<svg width="30" height="30" viewBox="0 0 30 30" fill="none" xmlns="http://www.w3.org/2000/svg">
<path fill-rule="evenodd" clip-rule="evenodd" d="M10.2762 25.4664C10.709 24.9285 11.4959 24.8434 12.0337 25.2763C13.6472 26.5746 16.3528 26.5746 17.9663 25.2763C18.5042 24.8434 19.2911 24.9285 19.7238 25.4664C20.1567 26.0043 20.0716 26.791 19.5337 27.2239C17.0051 29.2588 12.9949 29.2588 10.4664 27.2239C9.92854 26.791 9.8434 26.0043 10.2762 25.4664Z" fill="#FF0000"/>
<path fill-rule="evenodd" clip-rule="evenodd" d="M15 3.75C8.7868 3.75 3.75 8.7868 3.75 15V20C3.75 20.6904 3.19035 21.25 2.5 21.25C1.80965 21.25 1.25 20.6904 1.25 20V15C1.25 7.40609 7.40609 1.25 15 1.25C22.5939 1.25 28.75 7.40609 28.75 15L28.7501 20C28.7501 20.6903 28.1905 21.25 27.5001 21.25C26.8097 21.25 26.2501 20.6904 26.2501 20L26.25 15C26.25 8.7868 21.2133 3.75 15 3.75Z" fill="#FF0000"/>
<path fill-rule="evenodd" clip-rule="evenodd" d="M4.89783 14.4425C5.66323 13.8473 6.66277 13.8093 7.45784 14.2068L8.61804 14.787C9.465 15.2103 10 16.0761 10 17.023V22.9778C10 23.9248 9.465 24.7905 8.61804 25.214L7.45784 25.7941C6.66277 26.1916 5.66323 26.1536 4.89783 25.5583C4.33548 25.1211 3.46302 24.3817 2.71986 23.4736C2.00452 22.5996 1.25 21.3782 1.25 20.0005C1.25 18.6227 2.00452 17.4013 2.71986 16.5272C3.46302 15.6192 4.33548 14.8798 4.89783 14.4425Z" fill="#FF0000"/>
<path fill-rule="evenodd" clip-rule="evenodd" d="M22.5421 14.2068C23.3373 13.8093 24.3367 13.8473 25.1021 14.4425C25.6645 14.8798 26.537 15.6192 27.2801 16.5272C27.9955 17.4013 28.75 18.6227 28.75 20.0005C28.75 21.3782 27.9955 22.5996 27.2801 23.4736C26.537 24.3817 25.6645 25.1211 25.1021 25.5583C24.3367 26.1536 23.3373 26.1916 22.5421 25.7941L21.382 25.214C20.535 24.7905 20 23.9248 20 22.9778V17.023C20 16.0761 20.535 15.2103 21.382 14.787L22.5421 14.2068Z" fill="#FF0000"/>
</svg>
