<svg width="30" height="30" viewBox="0 0 30 30" fill="none" xmlns="http://www.w3.org/2000/svg">
<path fill-rule="evenodd" clip-rule="evenodd" d="M9.31235 6.25C9.58896 6.25 9.77399 6.54286 9.70797 6.81146C9.65375 7.03206 9.625 7.26267 9.625 7.5C9.625 9.08781 10.9122 10.375 12.5 10.375H13C13.2071 10.375 13.375 10.5429 13.375 10.75V11.25C13.375 12.8379 14.6621 14.125 16.25 14.125C17.8379 14.125 19.125 12.8379 19.125 11.25V10.75C19.125 10.5429 19.2929 10.375 19.5 10.375H20C21.5879 10.375 22.875 9.08782 22.875 7.5C22.875 7.26267 22.8463 7.03206 22.792 6.81146C22.726 6.54286 22.911 6.25 23.1876 6.25H27.4996C28.1899 6.25 28.7496 6.80965 28.7496 7.5C28.7496 8.19035 28.1899 8.75 27.4996 8.75H27.3684L26.6963 14.7991C26.5088 16.4871 26.203 17.9516 25.1856 18.9412C24.1684 19.931 22.696 20.1962 21.0035 20.3374L10.8166 21.1862C10.7186 21.3705 10.6045 21.5477 10.4747 21.7159L10.057 22.2569C10.4939 22.6644 10.8334 23.175 11.0366 23.75H17.7134C18.2281 22.2935 19.6172 21.25 21.25 21.25C23.3211 21.25 25 22.9289 25 25C25 27.0711 23.3211 28.75 21.25 28.75C19.6172 28.75 18.2281 27.7065 17.7134 26.25H11.0366C10.5218 27.7065 9.13278 28.75 7.5 28.75C5.42894 28.75 3.75 27.0711 3.75 25C3.75 22.9289 5.42894 21.25 7.5 21.25C7.55799 21.25 7.61566 21.2514 7.673 21.2539L8.49585 20.1881C8.70014 19.9235 8.78325 19.5988 8.73793 19.2838C8.7309 19.239 8.72234 19.1967 8.71215 19.1571L4.99351 4.70519C4.85476 4.16602 4.34036 3.75 3.7075 3.75H2.5C1.80965 3.75 1.25 3.19035 1.25 2.5C1.25 1.80965 1.80965 1.25 2.5 1.25H3.7075C5.43635 1.25 6.98059 2.39546 7.41464 4.08214L7.97251 6.25H9.31235ZM21.25 26.25C20.5596 26.25 20 25.6904 20 25C20 24.3096 20.5596 23.75 21.25 23.75C21.9404 23.75 22.5 24.3096 22.5 25C22.5 25.6904 21.9404 26.25 21.25 26.25ZM7.5 23.75C8.19035 23.75 8.75 24.3096 8.75 25C8.75 25.6904 8.19035 26.25 7.5 26.25C6.80965 26.25 6.25 25.6904 6.25 25C6.25 24.3096 6.80965 23.75 7.5 23.75ZM17.5 3.75C17.5 3.05965 16.9404 2.5 16.25 2.5C15.5596 2.5 15 3.05965 15 3.75V6.25H12.5C11.8096 6.25 11.25 6.80965 11.25 7.5C11.25 8.19035 11.8096 8.75 12.5 8.75H15V11.25C15 11.9404 15.5596 12.5 16.25 12.5C16.9404 12.5 17.5 11.9404 17.5 11.25V8.75H20C20.6904 8.75 21.25 8.19035 21.25 7.5C21.25 6.80965 20.6904 6.25 20 6.25H17.5V3.75Z" fill="#00AD66"/>
</svg>
