<svg width="30" height="30" viewBox="0 0 30 30" fill="none" xmlns="http://www.w3.org/2000/svg">
<path fill-rule="evenodd" clip-rule="evenodd" d="M2.0293 16.25C2.0293 15.5596 2.58893 15 3.2793 15H7.0293C7.71965 15 8.2793 15.5596 8.2793 16.25C8.2793 16.9404 7.71965 17.5 7.0293 17.5H3.2793C2.58893 17.5 2.0293 16.9404 2.0293 16.25ZM2.0293 20C2.0293 19.3096 2.58893 18.75 3.2793 18.75H7.0293C7.71965 18.75 8.2793 19.3096 8.2793 20C8.2793 20.6904 7.71965 21.25 7.0293 21.25H3.2793C2.58893 21.25 2.0293 20.6904 2.0293 20Z" fill="#851EEC"/>
<path fill-rule="evenodd" clip-rule="evenodd" d="M2.0293 23.75C2.0293 23.0596 2.58893 22.5 3.2793 22.5H7.0293C7.71965 22.5 8.2793 23.0596 8.2793 23.75C8.2793 24.4404 7.71965 25 7.0293 25H3.2793C2.58893 25 2.0293 24.4404 2.0293 23.75Z" fill="#851EEC"/>
<path fill-rule="evenodd" clip-rule="evenodd" d="M16.2742 1.66754C15.9591 1.52749 15.5995 1.52749 15.2844 1.66754L4.31556 6.54254C4.23296 6.57925 4.15586 6.62445 4.08512 6.67684C3.79407 6.83595 3.59667 7.14492 3.59667 7.5V7.54704C3.59343 7.58313 3.5918 7.61955 3.5918 7.65625C3.5918 7.69295 3.59343 7.72937 3.59667 7.76546V13.125H7.0293C8.75518 13.125 10.1543 14.5241 10.1543 16.25C10.1543 16.9535 9.92182 17.6027 9.52952 18.125C9.92182 18.6473 10.1543 19.2965 10.1543 20C10.1543 20.692 9.92935 21.3315 9.54857 21.8494C9.92935 22.3672 10.1543 23.0067 10.1543 23.6987C10.1543 24.461 9.88136 25.1595 9.4279 25.7019L15.3984 28.3566C15.6407 28.4644 15.9175 28.4645 16.1599 28.3568L27.4147 23.3568C27.7535 23.2064 27.9717 22.8705 27.9717 22.5V7.51696C27.9717 7.18084 27.7947 6.88604 27.529 6.72055C27.4437 6.64933 27.3479 6.58911 27.243 6.54254L16.2742 1.66754ZM10.0806 8.66479L7.81137 7.65625L15.7792 4.11495L18.0485 5.12349L10.0806 8.66479ZM13.1584 10.0327L15.7792 11.1976L23.7472 7.65625L21.1262 6.49139L13.1584 10.0327Z" fill="#851EEC"/>
</svg>
