<svg width="30" height="30" viewBox="0 0 30 30" fill="none" xmlns="http://www.w3.org/2000/svg">
<path d="M9.375 3.75C9.375 2.54188 10.3544 1.5625 11.5625 1.5625H18.4375C19.6456 1.5625 20.625 2.54188 20.625 3.75C20.625 4.95812 19.6456 5.9375 18.4375 5.9375H11.5625C10.3544 5.9375 9.375 4.95812 9.375 3.75Z" fill="#4429FF"/>
<path fill-rule="evenodd" clip-rule="evenodd" d="M7.8125 3.75141C7.8125 3.64063 7.71761 3.55099 7.60786 3.56613C6.48273 3.72131 5.54815 4.05295 4.81014 4.79165C4.05789 5.54459 3.73438 6.49254 3.58314 7.61846C3.43746 8.70305 3.43748 10.0822 3.4375 11.7933V20.063C3.43748 21.7741 3.43746 23.1533 3.58314 24.2379C3.73438 25.3638 4.05789 26.3118 4.81014 27.0646C5.56249 27.8178 6.5099 28.1416 7.6352 28.2931C8.71896 28.439 10.0969 28.4389 11.8063 28.4389H18.1936C19.9031 28.439 21.281 28.439 22.3648 28.2931C23.4901 28.1416 24.4375 27.8178 25.1899 27.0646C25.9421 26.3118 26.2656 25.3638 26.4169 24.2379C26.5625 23.1533 26.5625 21.7741 26.5625 20.0629V11.7934C26.5625 10.0822 26.5625 8.70308 26.4169 7.61846C26.2656 6.49254 25.9421 5.54459 25.1899 4.79165C24.4519 4.05295 23.5173 3.72131 22.3921 3.56613C22.2824 3.55099 22.1875 3.64063 22.1875 3.75141C22.1875 5.82248 20.5086 7.50141 18.4375 7.50141H11.5625C9.49144 7.50141 7.8125 5.82248 7.8125 3.75141ZM10.0025 12.8124C9.48468 12.8124 9.06495 13.2321 9.06495 13.7499C9.06495 14.2678 9.48468 14.6874 10.0025 14.6874H20.0025C20.5203 14.6874 20.94 14.2678 20.94 13.7499C20.94 13.2321 20.5203 12.8124 20.0025 12.8124H10.0025ZM10.0025 19.0624C9.48468 19.0624 9.06495 19.4821 9.06495 19.9999C9.06495 20.5178 9.48468 20.9374 10.0025 20.9374H15.0025C15.5203 20.9374 15.94 20.5178 15.94 19.9999C15.94 19.4821 15.5203 19.0624 15.0025 19.0624H10.0025Z" fill="#4429FF"/>
</svg>
