<svg width="30" height="30" viewBox="0 0 30 30" fill="none" xmlns="http://www.w3.org/2000/svg">
<path d="M5 15.3125C5 12.8963 6.95876 10.9375 9.375 10.9375C11.7912 10.9375 13.75 12.8963 13.75 15.3125C13.75 17.7287 11.7912 19.6875 9.375 19.6875C6.95876 19.6875 5 17.7287 5 15.3125Z" fill="#1570EF"/>
<path d="M3.90529 22.9386C5.30979 21.7408 7.24161 20.9375 9.375 20.9375C11.5084 20.9375 13.4402 21.7408 14.8447 22.9386C16.237 24.126 17.1874 25.7739 17.1874 27.5C17.1874 28.0178 16.7678 28.4375 16.2499 28.4375H2.5C1.98224 28.4375 1.5625 28.0178 1.5625 27.5C1.5625 25.7739 2.51309 24.126 3.90529 22.9386Z" fill="#1570EF"/>
<path fill-rule="evenodd" clip-rule="evenodd" d="M21.25 1.5625C17.2805 1.5625 14.0625 4.78045 14.0625 8.75C14.0625 10.8594 14.9721 12.7567 16.4175 14.0704C16.2909 14.6769 16.0531 15.1211 15.5871 15.5871C15.319 15.8552 15.2387 16.2585 15.3839 16.6087C15.529 16.9591 15.8709 17.1875 16.25 17.1875C16.5901 17.1875 16.933 17.1014 17.231 17.0026C17.5394 16.9004 17.8636 16.7624 18.182 16.6151C18.5019 16.4672 19.5155 15.9624 19.841 15.7992C20.2972 15.89 20.7685 15.9375 21.25 15.9375C25.2196 15.9375 28.4375 12.7195 28.4375 8.75C28.4375 4.78045 25.2196 1.5625 21.25 1.5625ZM20.3129 7.8125H18.4277V9.6875H20.3129V7.8125ZM24.0629 7.8125H22.1777V9.6875H24.0629V7.8125Z" fill="#1570EF"/>
</svg>
