<svg width="30" height="30" viewBox="0 0 30 30" fill="none" xmlns="http://www.w3.org/2000/svg">
<path d="M21.875 4.6875C23.7735 4.6875 25.3125 6.22653 25.3125 8.125C25.3125 10.0235 23.7735 11.5625 21.875 11.5625C19.9765 11.5625 18.4375 10.0235 18.4375 8.125C18.4375 6.22653 19.9765 4.6875 21.875 4.6875Z" fill="#FF6921"/>
<path d="M21.8753 12.8125C23.8204 12.8125 25.5835 13.6134 26.918 14.906C27.5678 15.5355 27.8128 16.4198 27.8128 17.2098V18.125C27.8128 18.6428 27.393 19.0625 26.8753 19.0625H20.3943C19.8096 18.6917 19.1839 18.3792 18.5254 18.1336C19.8059 17.1026 20.6253 15.522 20.6253 13.75C20.6253 13.4734 20.6053 13.2015 20.5668 12.9355C20.9913 12.8548 21.4285 12.8125 21.8753 12.8125Z" fill="#FF6921"/>
<path d="M9.44905 21.1189C10.9369 19.8379 12.8789 19.0625 15 19.0625C17.1211 19.0625 19.0631 19.8379 20.551 21.1189C21.2721 21.7399 21.5625 22.6364 21.5625 23.4597V24.375C21.5625 24.8928 21.1428 25.3125 20.625 25.3125H9.375C8.85724 25.3125 8.4375 24.8928 8.4375 24.375V23.4597C8.4375 22.6364 8.7279 21.7399 9.44905 21.1189Z" fill="#FF6921"/>
<path d="M10.9375 13.75C10.9375 11.5063 12.7564 9.6875 15 9.6875C17.2436 9.6875 19.0625 11.5063 19.0625 13.75C19.0625 15.9936 17.2436 17.8125 15 17.8125C12.7564 17.8125 10.9375 15.9936 10.9375 13.75Z" fill="#FF6921"/>
<path d="M8.125 4.6875C6.22653 4.6875 4.6875 6.22653 4.6875 8.125C4.6875 10.0235 6.22653 11.5625 8.125 11.5625C10.0235 11.5625 11.5625 10.0235 11.5625 8.125C11.5625 6.22653 10.0235 4.6875 8.125 4.6875Z" fill="#FF6921"/>
<path d="M8.125 12.8125C6.17982 12.8125 4.41671 13.6134 3.08229 14.906C2.43245 15.5355 2.1875 16.4198 2.1875 17.2098V18.125C2.1875 18.6428 2.60724 19.0625 3.125 19.0625H9.60601C10.1906 18.6917 10.8164 18.3792 11.4748 18.1336C10.1943 17.1026 9.375 15.522 9.375 13.75C9.375 13.4734 9.39497 13.2015 9.43354 12.9355C9.00896 12.8548 8.57179 12.8125 8.125 12.8125Z" fill="#FF6921"/>
</svg>
