<svg width="34" height="34" viewBox="0 0 34 34" fill="none" xmlns="http://www.w3.org/2000/svg">
<path d="M0.00176268 8.56251C0.249178 7.97507 0.685022 7.74466 1.32777 7.76489C2.42485 7.79831 3.52369 7.7728 4.62165 7.77456C5.25824 7.77456 5.62364 8.05246 5.78653 8.66804C6.01985 9.54745 6.25846 10.4216 6.46714 11.3063C6.53669 11.6009 6.66701 11.6695 6.95845 11.6677C9.91247 11.6554 12.8665 11.6607 15.8205 11.6607H16.2396C16.016 14.2936 16.6473 16.6566 18.255 18.7206C19.8628 20.7845 21.9812 21.9999 24.5522 22.4334C24.4695 23.2381 24.1798 23.5362 23.3618 23.6717C23.8259 25.2449 23.4869 26.5851 22.1468 27.5815C21.6126 27.9768 20.9685 28.1962 20.3038 28.2095C19.6391 28.2227 18.9868 28.0291 18.4373 27.6554C17.0012 26.6819 16.6305 25.3118 17.1025 23.6629H14.6803C15.1654 25.4296 14.7305 26.8789 13.0954 27.7908C11.8627 28.4785 10.5957 28.3475 9.48543 27.4698C8.24483 26.4858 7.96573 25.1763 8.41389 23.6602C7.60297 23.6602 7.35114 23.1185 7.17505 22.4352C6.12903 18.3574 5.06189 14.2857 4.00531 10.2114C3.9384 9.95374 3.83626 9.8658 3.56507 9.87371C2.8193 9.8957 2.06826 9.85437 1.32601 9.88954C0.682379 9.9212 0.249176 9.67849 0 9.0928L0.00176268 8.56251ZM21.4345 24.8536C21.4343 24.6948 21.4029 24.5375 21.3419 24.3908C21.2809 24.2442 21.1915 24.111 21.0789 23.9988C20.9663 23.8867 20.8326 23.7978 20.6856 23.7373C20.5386 23.6768 20.381 23.6458 20.222 23.6461C20.0627 23.6481 19.9053 23.6816 19.759 23.7446C19.6127 23.8077 19.4803 23.8992 19.3696 24.0137C19.2589 24.1281 19.172 24.2634 19.114 24.4117C19.056 24.5599 19.028 24.7182 19.0316 24.8773C19.0305 25.036 19.0612 25.1934 19.1218 25.3401C19.1823 25.4869 19.2716 25.6201 19.3843 25.7319C19.4971 25.8438 19.631 25.9321 19.7783 25.9916C19.9256 26.0511 20.0834 26.0807 20.2423 26.0786C20.4014 26.0775 20.5588 26.0448 20.7051 25.9824C20.8515 25.92 20.984 25.8292 21.0949 25.7152C21.2059 25.6012 21.293 25.4663 21.3513 25.3184C21.4096 25.1705 21.4378 25.0125 21.4345 24.8536ZM12.7467 24.8641C12.7479 24.7052 12.7177 24.5476 12.6578 24.4003C12.5979 24.2531 12.5095 24.119 12.3978 24.0059C12.286 23.8928 12.153 23.8028 12.0063 23.741C11.8597 23.6793 11.7023 23.6471 11.5431 23.6461C11.222 23.6485 10.9148 23.7781 10.6893 24.0065C10.4638 24.2349 10.3383 24.5434 10.3404 24.8641C10.3386 25.0229 10.3685 25.1804 10.4282 25.3275C10.4879 25.4746 10.5762 25.6084 10.6881 25.7212C10.8 25.8339 10.9332 25.9233 11.08 25.9842C11.2267 26.0451 11.3842 26.0763 11.5431 26.076C11.702 26.0761 11.8594 26.0447 12.0061 25.9838C12.1528 25.9228 12.286 25.8334 12.3979 25.7207C12.5098 25.608 12.5983 25.4743 12.6582 25.3273C12.718 25.1803 12.7481 25.0228 12.7467 24.8641Z" fill="#851EEC"/>
<path d="M26.031 20.4355C21.7862 20.4566 18.3039 17.0005 18.2775 12.7389C18.2502 8.50364 21.7211 5.01942 25.9852 5.00007C30.2274 4.98161 33.7221 8.41042 33.7414 12.6087C33.7617 16.9513 30.3507 20.4135 26.031 20.4355ZM24.9172 13.766C24.9489 13.8206 24.9586 13.8302 24.9586 13.839C24.9586 14.2339 24.9586 14.6305 24.9718 15.0227C24.9739 15.2433 25.0463 15.4576 25.1785 15.6343C25.3107 15.8111 25.4958 15.9413 25.707 16.0059C26.4017 16.2169 27.0339 15.7333 27.0621 14.9576C27.0762 14.5681 27.0621 14.1785 27.0621 13.7669H28.1644C28.8741 13.7669 29.339 13.3536 29.3417 12.7248C29.3443 12.096 28.8864 11.6695 28.1785 11.6651C27.8193 11.6651 27.4592 11.6651 27.0612 11.6651C27.0612 11.2386 27.0744 10.8464 27.0612 10.4551C27.0348 9.81572 26.5945 9.37866 26.0046 9.38481C25.3962 9.39009 24.9727 9.84562 24.9692 10.5025C24.9692 10.8824 24.9692 11.2624 24.9692 11.6651C24.5289 11.6651 24.1354 11.6537 23.7418 11.6651C23.1254 11.6871 22.6606 12.1558 22.6702 12.7301C22.6799 13.3043 23.1519 13.7555 23.7708 13.7634C24.1547 13.7704 24.5377 13.766 24.9172 13.766Z" fill="#851EEC"/>
</svg>
