<svg width="34" height="34" viewBox="0 0 34 34" fill="none" xmlns="http://www.w3.org/2000/svg">
<path d="M1.97266 11.8438H32.9706V12.2879C32.9706 15.162 32.9706 18.0356 32.9706 20.9089C32.9706 22.9875 31.4741 24.488 29.3989 24.4891C21.4423 24.4891 13.4864 24.4891 5.53137 24.4891C3.4832 24.4891 1.97501 22.9828 1.97266 20.9406C1.97266 18.0525 1.97266 15.1639 1.97266 12.275V11.8438ZM9.3842 16.0444C8.93127 16.0444 8.47718 16.0362 8.02425 16.0444C7.17369 16.0632 6.54076 16.6812 6.55253 17.4685C6.56429 18.2381 7.18897 18.8444 8.01483 18.8573C8.92186 18.8714 9.83007 18.8726 10.7371 18.8573C11.5606 18.8432 12.1841 18.2252 12.1865 17.4567C12.1888 16.6883 11.5653 16.0702 10.7453 16.0467C10.2912 16.0338 9.84066 16.0444 9.38302 16.0444H9.3842ZM17.1416 16.0444C16.6711 16.0444 16.2005 16.0326 15.737 16.0444C14.9134 16.0702 14.2958 16.6906 14.3029 17.4603C14.3099 17.8305 14.4614 18.1834 14.7251 18.4437C14.9888 18.704 15.3439 18.8511 15.7146 18.8538C16.6511 18.875 17.5875 18.875 18.5239 18.8538C18.8948 18.852 19.2501 18.7053 19.514 18.4451C19.7778 18.1848 19.9292 17.8318 19.9357 17.4614C19.9439 16.6942 19.318 16.0702 18.5016 16.0444C18.0475 16.0326 17.5934 16.0444 17.1404 16.0444H17.1416Z" fill="#462CFF"/>
<path d="M32.9699 8.98359H2.05555C2.05555 7.53247 1.91791 6.08604 2.09203 4.67956C2.28967 3.08625 3.79903 1.97705 5.41192 1.97705C13.4509 1.97705 21.4899 1.97705 29.5289 1.97705C30.4411 1.97985 31.3152 2.34336 31.9598 2.9881C32.6044 3.63283 32.9672 4.5063 32.9688 5.41746C32.9746 6.59599 32.9699 7.77922 32.9699 8.98359Z" fill="#462CFF"/>
<path d="M28.0316 28.7119H27.561C24.2011 28.7119 20.8412 28.7119 17.4813 28.7119C17.141 28.7158 16.8108 28.5968 16.5514 28.3768C16.292 28.1568 16.1209 27.8506 16.0696 27.5146C16.0202 27.1778 16.0945 26.8345 16.2787 26.5482C16.463 26.2618 16.7447 26.0517 17.0719 25.9566C17.228 25.9175 17.3887 25.9001 17.5495 25.9048C22.2153 25.9048 26.8818 25.9048 31.5491 25.9048C31.8298 25.8914 32.1075 25.9666 32.343 26.1197C32.5784 26.2729 32.7596 26.4961 32.8608 26.7579C32.986 27.0106 33.0267 27.2967 32.9769 27.5742C32.9272 27.8517 32.7896 28.1059 32.5844 28.2995C31.1727 29.7244 29.748 31.1411 28.3104 32.5495C28.1804 32.6799 28.0254 32.783 27.8548 32.8526C27.6841 32.9221 27.5013 32.9568 27.317 32.9545C27.1327 32.9522 26.9507 32.913 26.7819 32.8392C26.613 32.7654 26.4607 32.6585 26.334 32.5248C25.7869 31.9726 25.7799 31.143 26.334 30.5496C26.614 30.2488 26.9093 29.9621 27.2034 29.6766C27.4975 29.3911 27.7998 29.1161 28.0986 28.8353L28.0316 28.7119Z" fill="#462CFF"/>
</svg>
