<svg width="34" height="34" viewBox="0 0 34 34" fill="none" xmlns="http://www.w3.org/2000/svg">
<path d="M19.2207 32.402H16.0773C15.9684 32.3836 15.8604 32.3594 15.7515 32.3487C14.6904 32.2432 13.6235 32.1841 12.5702 32.0262C10.8283 31.7638 9.15835 31.2574 7.66251 30.2948C5.58896 28.9604 4.49285 27.0566 4.34599 24.6047C4.25943 23.1522 4.49285 21.7491 4.92954 20.373C5.88851 17.343 7.52539 14.6984 9.61936 12.325C10.9625 10.8017 12.4583 9.45379 14.279 8.50286C14.2994 8.49221 14.3062 8.45638 14.3198 8.43411C12.9184 7.33502 12.1802 6.47802 11.5052 5.10489C11.1269 4.33698 10.8244 3.54389 10.8808 2.66075C10.9226 2.03809 11.3788 1.58103 11.9993 1.59555C12.2998 1.60454 12.5971 1.66008 12.8804 1.76017C13.5126 1.98774 14.1292 2.25888 14.7546 2.50678C15.4556 2.80299 16.2389 2.84412 16.9672 2.62298C17.6004 2.42931 18.2433 2.26663 18.8842 2.10007C19.7304 1.88025 20.5707 1.62848 21.4596 1.65269C21.8846 1.66431 22.015 1.78923 22.0432 2.20949C22.0486 2.31958 22.0424 2.42994 22.0247 2.53873C21.8389 3.81116 21.2933 4.94414 20.6465 6.03645C20.1596 6.87337 19.5432 7.62861 18.82 8.27433C19.2256 8.4835 19.6136 8.66167 19.9871 8.87859C20.3728 9.09554 20.7468 9.33246 21.1075 9.58839C24.2412 11.8553 26.6104 14.7672 28.3435 18.1971C29.2996 20.0912 29.9639 22.0773 29.9969 24.2261C30.0475 27.1312 28.8133 29.3032 26.2544 30.7054C24.459 31.6902 22.4925 32.0776 20.4773 32.2761L19.2207 32.402ZM17.8075 16.9954C18.1497 16.9971 18.4833 17.102 18.7646 17.296C19.0458 17.4901 19.2614 17.7644 19.3831 18.0828C19.565 18.598 19.9579 18.8207 20.3985 18.6639C20.8148 18.5109 20.9753 18.0828 20.8041 17.5832C20.4705 16.609 19.7731 16.0038 18.82 15.6716C18.5 15.5603 18.1655 15.4925 17.8075 15.3966C17.8075 15.2543 17.8075 15.1061 17.8075 14.957C17.81 14.8067 17.8042 14.6564 17.79 14.5067C17.7686 14.322 17.6782 14.1521 17.5367 14.0307C17.3953 13.9093 17.2132 13.8453 17.0265 13.8514C16.8399 13.8575 16.6624 13.9332 16.5293 14.0636C16.3961 14.194 16.317 14.3694 16.3078 14.5551C16.2932 14.745 16.2932 14.9356 16.3078 15.1255C16.3302 15.3598 16.2504 15.4537 16.0083 15.4954C15.3908 15.6025 14.8119 15.8678 14.3286 16.2652C13.0925 17.2626 12.9534 19.5044 14.6554 20.405C15.0916 20.6272 15.5474 20.809 16.017 20.9482C16.2504 21.0218 16.3088 21.1167 16.3088 21.3414C16.2961 22.1432 16.3088 22.9459 16.303 23.7477C16.303 23.8339 16.2922 23.9201 16.2845 24.0334C15.555 23.8242 15.0532 23.4156 14.8256 22.7087C14.6554 22.1897 14.2946 21.9621 13.8588 22.0986C13.4027 22.241 13.217 22.6477 13.3852 23.1638C13.7616 24.3171 14.5601 25.0492 15.698 25.4327C16.3039 25.637 16.302 25.6341 16.3098 26.2907C16.3043 26.45 16.3243 26.6092 16.3691 26.7622C16.4267 26.9137 16.5333 27.0417 16.6721 27.126C16.8108 27.2104 16.9739 27.2463 17.1355 27.228C17.3028 27.2133 17.4597 27.1406 17.5788 27.0226C17.6979 26.9046 17.7716 26.7487 17.7871 26.5821C17.8144 26.2868 17.7929 25.9876 17.7929 25.6845L18.2608 25.608C18.8496 25.5205 19.4099 25.2981 19.8976 24.9582C21.411 23.8756 21.5063 21.4063 19.5942 20.4456C19.2486 20.2841 18.894 20.1425 18.5321 20.0215C18.3075 19.9402 17.9787 19.9508 17.8698 19.7978C17.7482 19.6274 17.8163 19.3136 17.8144 19.0686C17.8046 18.3743 17.8075 17.6829 17.8075 16.9954Z" fill="#009F5E"/>
<path d="M17.8477 21.3628C18.2153 21.5071 18.5713 21.6136 18.8961 21.7811C19.6275 22.1578 19.7286 23.0739 19.1208 23.6375C18.8436 23.8941 18.5051 24.0326 17.8477 24.1459V21.3628Z" fill="#009F5E"/>
<path d="M16.2859 16.9736V19.4565C15.8365 19.3238 15.4105 19.1912 15.0896 18.8571C14.8318 18.5879 14.825 18.0301 15.0662 17.6776C15.3492 17.2651 15.7665 17.0743 16.2859 16.9736Z" fill="#009F5E"/>
</svg>
