<svg width="34" height="34" viewBox="0 0 34 34" fill="none" xmlns="http://www.w3.org/2000/svg">
<path d="M5.39453 20.562V13.799C6.97221 13.4434 7.97839 12.4763 8.33813 10.8433H8.72839C12.8338 10.8433 16.9386 10.8454 21.0428 10.8497C21.2716 10.8533 21.4972 10.9046 21.705 11.0003C23.61 11.8796 25.5132 12.7636 27.4063 13.6687C27.9815 13.9458 28.5419 14.0724 29.18 13.7888V20.5629C27.1455 21.3831 26.6997 21.8293 26.2457 23.5288H25.8406C21.7488 23.5288 17.6566 23.5266 13.5641 23.5223C13.3227 23.5193 13.0846 23.4661 12.8649 23.3662C11.0034 22.5128 9.15009 21.6436 7.29312 20.78C6.38405 20.3597 6.32209 20.3523 5.39453 20.562ZM16.7472 13.4378C16.6797 13.4655 16.6344 13.4877 16.5863 13.5034C15.5135 13.8627 15.0142 14.5324 15.0299 15.5779C15.0475 16.5016 15.7003 17.2923 16.6834 17.5703C16.9802 17.6543 17.2808 17.7282 17.5767 17.8132C18.2527 18.009 18.5847 18.5253 18.409 19.1063C18.2305 19.7113 17.7284 19.9505 17.0219 19.7677C16.6233 19.6642 16.2265 19.5543 15.827 19.4536C15.3813 19.3409 15.0733 19.485 14.9947 19.836C14.9272 20.1334 15.1372 20.3985 15.5367 20.5121C15.805 20.6026 16.079 20.6755 16.3569 20.7301C16.6612 20.7754 16.7269 20.9352 16.7074 21.2067C16.6945 21.4126 16.6964 21.6191 16.713 21.8246C16.7324 22.1562 16.9137 22.3631 17.2484 22.3659C17.5832 22.3687 17.77 22.171 17.7913 21.8357C17.8047 21.6427 17.8075 21.449 17.7996 21.2557C17.7913 21.0534 17.8375 20.9499 18.0696 20.8816C19.0185 20.6045 19.578 19.8397 19.5854 18.8772C19.5928 17.9148 19.0028 17.1398 18.0493 16.8452C17.6442 16.7205 17.2281 16.6272 16.8277 16.4905C16.2395 16.2892 16.0009 15.7654 16.2099 15.1974C16.4013 14.6746 16.8943 14.4409 17.5046 14.5933C17.9411 14.7023 18.373 14.8335 18.8104 14.9397C19.196 15.0321 19.4994 14.875 19.5854 14.5591C19.6621 14.2737 19.4624 13.9948 19.0989 13.8821C19.0259 13.8599 18.9482 13.8488 18.8742 13.8276C18.5524 13.7352 18.1224 13.7352 17.9411 13.5265C17.7599 13.3177 17.8606 12.9039 17.8384 12.5788C17.8144 12.2343 17.5906 12.0034 17.2836 12.008C16.9765 12.0126 16.7583 12.2454 16.7481 12.5954C16.7398 12.8744 16.7472 13.157 16.7472 13.4378Z" fill="#7B17DE"/>
<path d="M5.21875 7.01946C6.22029 5.78361 7.30784 4.71955 8.59885 3.86701C11.6506 1.85436 14.9928 1.03138 18.6272 1.31587C20.8985 1.49413 23.0162 2.1721 25.0082 3.24816C25.4383 3.48 25.7943 3.48184 26.1772 3.17242C26.4777 2.93042 26.8097 2.72722 27.1306 2.51108C27.6855 2.14162 28.1211 2.32635 28.1867 2.98215C28.2848 3.95568 28.3569 4.93199 28.4429 5.90737C28.6121 7.81842 28.7869 9.72947 28.9524 11.6414C28.9857 12.0174 29.1245 12.4441 28.7351 12.7129C28.3708 12.965 28.0434 12.6833 27.7271 12.5374C25.1072 11.332 22.4919 10.1165 19.872 8.91019C19.6158 8.79196 19.3717 8.67096 19.3384 8.36061C19.3051 8.05026 19.5538 7.89324 19.7804 7.73899C20.08 7.53671 20.3788 7.3335 20.6691 7.12014C21.138 6.77376 21.1315 6.38768 20.6395 6.08102C19.2422 5.20354 17.7089 4.71862 16.0803 4.49325C12.7067 4.03142 9.63552 4.84979 6.81308 6.67771C6.3477 6.99751 5.77453 7.12037 5.21875 7.01946Z" fill="#7B17DE"/>
<path d="M29.2938 27.3259C28.4023 28.4112 27.4211 29.4014 26.2559 30.2059C23.1412 32.3552 19.6816 33.2263 15.9297 32.9501C13.6991 32.7804 11.5323 32.1273 9.58012 31.0363C9.12605 30.7859 8.75983 30.7592 8.35015 31.0981C8.02563 31.3531 7.68592 31.5881 7.33289 31.802C6.85755 32.1095 6.42291 31.8943 6.37205 31.3401L5.55085 22.1811C5.50184 21.6353 5.91242 21.3498 6.43585 21.5881C7.5456 22.0934 8.65534 22.6143 9.76508 23.1316C11.4093 23.8995 13.0533 24.6692 14.697 25.4407C15.3748 25.7585 15.4174 26.2138 14.8089 26.6415C14.5139 26.8493 14.2124 27.0488 13.9202 27.2613C13.4476 27.6049 13.4577 27.9873 13.947 28.2958C15.3545 29.1843 16.8998 29.672 18.5441 29.8891C22.1082 30.3592 25.3024 29.4374 28.2238 27.3952C28.4837 27.2105 28.9017 27.2566 29.2411 27.1957L29.2938 27.3259Z" fill="#7B17DE"/>
<path d="M18.2867 8.22113C18.2663 8.8677 18.5262 9.32398 19.0894 9.75256H8.01786C7.4371 9.75256 7.33167 9.84493 7.25769 10.4296C7.08476 11.792 6.28018 12.5716 4.90872 12.7055C4.46483 12.7489 4.28172 12.9299 4.28079 13.3761C4.27709 15.9161 4.27709 18.4562 4.28079 20.9963C4.27401 21.0476 4.27779 21.0998 4.2919 21.1496C4.72007 22.0612 4.46668 23.0569 4.63962 24.0028C4.76631 24.6955 4.77185 25.4104 4.83474 26.1494C4.27339 26.1494 3.73148 26.1983 3.20435 26.1337C2.80022 26.0847 2.52094 25.7771 2.42384 25.3652C2.38019 25.164 2.36001 24.9585 2.36371 24.7528C2.36371 19.7244 2.36371 14.6957 2.36371 9.66666C2.36371 8.61831 2.76324 8.22021 3.81472 8.22021H18.2894L18.2867 8.22113Z" fill="#7B17DE"/>
<path d="M16.3385 26.1564C16.3561 25.5311 16.1138 25.0535 15.6523 24.625H26.5075C27.1668 24.625 27.2695 24.5566 27.3259 23.886C27.423 22.7259 28.4486 21.6692 29.6527 21.6637C30.1151 21.6637 30.3 21.4476 30.3 20.9811C30.3049 18.4565 30.3049 15.9293 30.3 13.3997C30.3 13.348 30.3157 13.2824 30.2908 13.2473C29.9042 12.7116 30.1141 12.0881 30.042 11.5099C29.9088 10.4376 29.8395 9.35779 29.7424 8.26141C30.2972 8.26141 30.8253 8.20507 31.3367 8.27619C31.8916 8.35378 32.2365 8.86918 32.2384 9.46401C32.243 10.9853 32.2384 12.5075 32.2384 14.0287V24.7838C32.2384 25.7472 31.8361 26.1555 30.8845 26.1564H16.3385Z" fill="#7B17DE"/>
</svg>
