<svg width="28" height="23" viewBox="0 0 28 23" fill="none" xmlns="http://www.w3.org/2000/svg">
<path d="M25.3307 20.8143C24.9465 20.837 24.5624 20.837 24.2009 20.7916C22.0543 20.5647 20.5404 18.7489 19.8625 16.7969C19.501 17.3416 19.1169 17.9091 18.7101 18.4311C18.4616 18.7716 18.1904 19.1347 17.9193 19.4752C17.8515 19.5433 17.8063 19.6114 17.7385 19.7022C18.6198 21.1094 19.9303 22.1762 21.8961 22.4713C23.0033 22.6301 24.1331 22.494 25.1725 22.0854C25.6922 21.8811 26.1667 21.6087 26.596 21.291C26.8898 21.064 27.3643 20.7008 27.6806 20.315C26.9123 20.5647 26.1215 20.7462 25.3307 20.8143Z" fill="url(#paint0_linear_2043_13774)"/>
<path d="M25.6019 0L19.8627 3.6543L21.6929 4.49411C21.2862 5.37931 20.8795 6.24181 20.4501 7.12702C20.0886 7.85334 19.7271 8.57966 19.3656 9.28328C19.2752 9.46486 19.1848 9.64644 19.0718 9.82802C18.8007 10.3501 18.5295 10.8948 18.2358 11.3941C17.6257 12.5063 16.993 13.6639 16.2699 14.7761C15.208 16.4103 13.9652 17.8856 12.3383 18.8162C10.7566 19.7014 8.70042 19.9511 7.14132 19.0432C5.49184 18.1126 4.6784 16.1152 4.58801 14.2086C4.49763 11.9616 5.26588 9.66914 6.7346 7.94413C7.86438 6.62767 9.44607 5.62898 11.1633 5.51549C12.022 5.4474 12.9032 5.60628 13.6263 6.08293C14.5753 6.71846 15.1176 7.80794 15.4339 8.89742C15.8632 10.3728 15.9762 11.9162 16.1118 13.4596C16.7896 12.3928 17.3997 11.2807 17.9646 10.2366C18.2584 9.69184 18.5521 9.1244 18.8459 8.57966C18.4391 6.76386 17.6709 5.03885 16.3377 3.79048C14.5979 2.15626 11.9994 1.56613 9.67203 2.02008C7.32208 2.47403 5.22069 3.88127 3.68419 5.71977C2.0799 7.64906 1.0631 10.0323 0.814544 12.529C0.565992 15.1392 1.17607 17.8629 2.78036 19.9284C5.71779 23.6962 10.7792 23.8097 14.5527 21.2676C15.3435 20.7228 16.044 20.11 16.6767 19.4291C16.9026 19.1794 17.1286 18.9297 17.3319 18.68C17.4223 18.5893 17.4901 18.4985 17.5579 18.385C17.829 18.0445 18.1002 17.7041 18.3487 17.3409C18.8007 16.7508 19.2074 16.1379 19.5915 15.5478C19.6593 15.4343 19.7271 15.3435 19.7949 15.23C20.2468 14.5264 20.6987 13.8001 21.128 13.0738C21.5573 12.3474 21.964 11.6211 22.3482 10.8721C22.7323 10.1231 23.1164 9.37407 23.478 8.64775C23.9299 7.73985 24.3592 6.83195 24.7659 5.92405L26.6187 6.76386L25.6019 0Z" fill="url(#paint1_linear_2043_13774)"/>
<path d="M25.6017 0L19.8624 3.6543L21.6927 4.49411C21.2859 5.37931 20.8792 6.24181 20.4499 7.12702C20.0884 7.85334 19.7268 8.57966 19.3653 9.28328C19.2749 9.46486 19.1845 9.64644 19.0716 9.82802C18.8004 10.3501 18.5293 10.8948 18.2355 11.3941C17.6254 12.5063 16.9928 13.6639 16.2697 14.7761C15.2077 16.4103 13.965 17.8856 12.3381 18.8162C10.7564 19.7014 8.70017 19.9511 7.14107 19.0432C5.49159 18.1126 4.67815 16.1152 4.58777 14.2086C4.49738 11.9616 5.26563 9.66914 6.73435 7.94413C7.86413 6.62767 9.44583 5.62898 11.1631 5.51549C12.0217 5.4474 12.903 5.60628 13.626 6.08293C13.7164 6.15102 13.8068 6.21912 13.8972 6.28721C13.3775 5.78786 12.79 5.40201 12.1121 5.15233C8.67757 3.90397 4.49738 6.74116 2.78012 11.4849C1.40178 15.2981 2.01186 19.2248 4.09066 21.2903C7.07328 23.6735 11.2761 23.4692 14.5298 21.2676C15.3207 20.7228 16.0212 20.11 16.6538 19.4291C16.8798 19.1794 17.1057 18.9297 17.3091 18.68C17.3995 18.5893 17.4673 18.4985 17.5351 18.385C17.8062 18.0445 18.0774 17.7041 18.3259 17.3409C18.7778 16.7508 19.1845 16.1379 19.5687 15.5478C19.6365 15.4343 19.7042 15.3435 19.772 15.23C20.2239 14.5264 20.6758 13.8001 21.1052 13.0738C21.5345 12.3474 21.9412 11.6211 22.3253 10.8721C22.7095 10.1231 23.0936 9.37407 23.4551 8.64775C23.907 7.73985 24.3363 6.83195 24.7431 5.92405L26.5959 6.76386L25.6017 0Z" fill="url(#paint2_linear_2043_13774)"/>
<defs>
<linearGradient id="paint0_linear_2043_13774" x1="19.3493" y1="14.3547" x2="24.5544" y2="22.9436" gradientUnits="userSpaceOnUse">
<stop offset="0.3238" stop-color="#8340F0"/>
<stop offset="0.9222" stop-color="#6021D1"/>
</linearGradient>
<linearGradient id="paint1_linear_2043_13774" x1="0.746757" y1="11.4998" x2="26.661" y2="11.4998" gradientUnits="userSpaceOnUse">
<stop offset="0.0778417" stop-color="#6021D1"/>
<stop offset="0.6762" stop-color="#8340F0"/>
</linearGradient>
<linearGradient id="paint2_linear_2043_13774" x1="8.29356" y1="4.27349" x2="20.2257" y2="15.7445" gradientUnits="userSpaceOnUse">
<stop offset="0.3238" stop-color="#8340F0"/>
<stop offset="0.9222" stop-color="#6021D1"/>
</linearGradient>
</defs>
</svg>
