<svg width="15" height="14" viewBox="0 0 15 14" fill="none" xmlns="http://www.w3.org/2000/svg">
<path d="M7.5 0.166016C7.70733 0.166016 7.8932 0.294022 7.96713 0.487769L9.53913 4.60758L13.8577 4.81877C14.0612 4.82872 14.2383 4.9611 14.3054 5.15342C14.3725 5.34575 14.3163 5.55956 14.1631 5.69395L10.8765 8.57901L12.0845 13.2064C12.1372 13.4083 12.0589 13.6219 11.8881 13.7418C11.7172 13.8618 11.4899 13.8631 11.3177 13.7449L7.5 11.1243L3.68223 13.7449C3.51012 13.8631 3.28272 13.8618 3.1119 13.7418C2.94106 13.6219 2.86275 13.4083 2.91548 13.2064L4.12344 8.57901L0.836797 5.69395C0.683711 5.55956 0.627451 5.34575 0.694571 5.15342C0.761684 4.9611 0.938764 4.82872 1.14222 4.81877L5.46084 4.60758L7.0328 0.487769C7.10673 0.294022 7.2926 0.166016 7.5 0.166016Z" fill="#FFB805"/>
</svg>
