<svg width="30" height="30" viewBox="0 0 30 30" fill="none" xmlns="http://www.w3.org/2000/svg">
<path d="M30 12.027V21.678C30 24.501 28.512 26.07 25.749 26.172L25.461 26.178H4.527C1.677 26.178 0.108 24.714 0.006 21.966L0 21.678V12.027H30ZM9.147 14.88H5.895C5.166 14.88 4.668 15.327 4.602 15.987L4.593 16.143V18.612C4.593 19.302 5.04 19.797 5.73 19.863L5.895 19.872H9.147C9.873 19.872 10.371 19.425 10.44 18.765L10.446 18.612V16.143C10.446 15.399 9.93 14.88 9.147 14.88ZM4.527 3H25.461C28.308 3 29.892 4.464 29.994 7.2L30 7.488V8.841H0V7.488C0 4.665 1.476 3.105 4.236 3.006L4.527 3Z" fill="#8106FB"/>
<path opacity="0.4" d="M30 12.027V21.678C30 24.501 28.512 26.07 25.749 26.172L25.461 26.178H4.527C1.677 26.178 0.108 24.714 0.006 21.966L0 21.678V12.027H30ZM9.147 14.88H5.895C5.166 14.88 4.668 15.327 4.602 15.987L4.593 16.143V18.612C4.593 19.302 5.04 19.797 5.73 19.863L5.895 19.872H9.147C9.873 19.872 10.371 19.425 10.44 18.765L10.446 18.612V16.143C10.446 15.399 9.93 14.88 9.147 14.88ZM4.527 3H25.461C28.308 3 29.892 4.464 29.994 7.2L30 7.488V8.841H0V7.488C0 4.665 1.476 3.105 4.236 3.006L4.527 3Z" fill="#8106FB"/>
</svg>
