<svg width="28" height="28" viewBox="0 0 28 28" fill="none" xmlns="http://www.w3.org/2000/svg">
<path d="M9.18723 14.5193C8.73798 14.9685 8.73798 15.6969 9.18723 16.1461L13.1872 20.1461C13.2936 20.2525 13.4212 20.3367 13.5616 20.3947C13.7015 20.4525 13.8501 20.4833 14.0013 20.4833C14.1525 20.4833 14.3014 20.4525 14.4414 20.3947C14.5818 20.3366 14.7091 20.2524 14.8154 20.1461L18.8154 16.1461C19.2646 15.6969 19.2646 14.9685 18.8154 14.5193C18.3661 14.07 17.6378 14.07 17.1885 14.5193L15.1513 16.5566V2C15.1513 1.36516 14.6361 0.85 14.0013 0.85C13.3665 0.85 12.8513 1.36516 12.8513 2V16.5566L10.8141 14.5193L10.708 14.6253L10.8141 14.5193C10.3648 14.07 9.63647 14.07 9.18723 14.5193ZM22 10.1833C21.3652 10.1833 20.85 10.6985 20.85 11.3333C20.85 11.9682 21.3652 12.4833 22 12.4833C23.0342 12.4833 23.7361 12.7046 24.1824 13.1509C24.6287 13.5972 24.85 14.2992 24.85 15.3333V22C24.85 23.0342 24.6287 23.7361 24.1824 24.1824C23.7361 24.6287 23.0342 24.85 22 24.85H6C4.96584 24.85 4.26387 24.6287 3.81757 24.1824C3.37126 23.7361 3.15 23.0342 3.15 22V15.3333C3.15 14.2992 3.37126 13.5972 3.81757 13.1509C4.26387 12.7046 4.96584 12.4833 6 12.4833C6.63484 12.4833 7.15 11.9682 7.15 11.3333C7.15 10.6985 6.63484 10.1833 6 10.1833C4.36119 10.1833 3.06807 10.6351 2.18493 11.5183C1.3018 12.4014 0.85 13.6945 0.85 15.3333V22C0.85 23.6388 1.3018 24.9319 2.18493 25.8151C3.06807 26.6982 4.36119 27.15 6 27.15H22C23.6388 27.15 24.9319 26.6982 25.8151 25.8151C26.6982 24.9319 27.15 23.6388 27.15 22V15.3333C27.15 13.6945 26.6982 12.4014 25.8151 11.5183C24.9319 10.6351 23.6388 10.1833 22 10.1833Z" fill="#00B243" stroke="#00B243" strokeWidth="0.3"/>
</svg>
