<svg width="21" height="20" viewBox="0 0 21 20" fill="none" xmlns="http://www.w3.org/2000/svg">
<path d="M3.62891 10.4166C3.62891 11.045 3.77478 11.6507 4.06144 12.2174C4.21811 12.5257 4.09388 12.9016 3.78638 13.0574C3.69638 13.1033 3.59887 13.125 3.5047 13.125C3.27637 13.125 3.05643 13.0001 2.94643 12.7826C2.5756 12.0501 2.37891 11.2316 2.37891 10.4166C2.37891 7.34998 4.52057 5.20831 7.58724 5.20831H13.1614L12.5614 4.60834C12.3172 4.36417 12.3172 3.96831 12.5614 3.72414C12.8056 3.47997 13.2014 3.47997 13.4456 3.72414L15.1123 5.39081C15.1698 5.44831 15.2156 5.51739 15.2473 5.59405C15.3106 5.74655 15.3106 5.91905 15.2473 6.07155C15.2156 6.14822 15.1698 6.2175 15.1123 6.275L13.4456 7.94167C13.3239 8.06334 13.1639 8.12498 13.0039 8.12498C12.8439 8.12498 12.6839 8.06417 12.5622 7.94167C12.318 7.6975 12.318 7.30164 12.5622 7.05747L13.1622 6.4575H7.58805C4.85305 6.45833 3.62891 8.44665 3.62891 10.4166ZM18.0614 8.05072C17.9055 7.74322 17.5298 7.61836 17.2214 7.77586C16.9139 7.93169 16.7897 8.30757 16.9464 8.6159C17.233 9.18257 17.3789 9.78831 17.3789 10.4166C17.3789 12.3866 16.1547 14.375 13.4206 14.375H7.84644L8.44641 13.775C8.69058 13.5308 8.69058 13.135 8.44641 12.8908C8.20224 12.6466 7.80638 12.6466 7.56221 12.8908L5.89555 14.5575C5.65138 14.8016 5.65138 15.1975 5.89555 15.4417L7.56221 17.1083C7.68388 17.23 7.84391 17.2916 8.00391 17.2916C8.16391 17.2916 8.32393 17.2308 8.4456 17.1083C8.68976 16.8642 8.68976 16.4683 8.4456 16.2241L7.84562 15.6242H13.4198C16.4864 15.6242 18.6281 13.4825 18.6281 10.4158C18.6289 9.60167 18.433 8.78322 18.0614 8.05072Z" fill="#25314C"/>
</svg>
