<svg width="16" height="16" viewBox="0 0 16 16" fill="none" xmlns="http://www.w3.org/2000/svg">
<path d="M9.68844 6.09102L10.0147 6.10698L14.3333 6.31817L14.3333 6.31819L11.0467 9.20325L10.8148 9.40679L10.8927 9.7053L12.1007 14.3326L8.28296 11.7121L8 11.5179L7.71704 11.7121L3.89927 14.3326L5.10723 9.70531L5.18516 9.40679L4.9533 9.20325L1.66666 6.31819L1.66665 6.31817L5.98527 6.10698L6.31154 6.09102L6.42799 5.78582L7.99994 1.66603L7.99998 1.66602L7.99999 1.66603L9.57198 5.78583L9.68844 6.09102ZM12.1007 14.3327L12.1007 14.3327L12.1007 14.3326L12.1007 14.3326L12.1007 14.3327Z" stroke="#413B45"/>
</svg>
