<svg width="25" height="28" viewBox="0 0 25 28" fill="none" xmlns="http://www.w3.org/2000/svg">
<path d="M19.7099 4.61054L19.71 4.6104C20.175 3.83341 20.1864 2.897 19.7398 2.10868C19.2931 1.32029 18.4846 0.85 17.5799 0.85H7.61997C6.71396 0.85 5.90539 1.32167 5.46008 2.10875L5.46003 2.10886C5.01496 2.89694 5.02475 3.83335 5.49137 4.61057L6.64737 6.53944C2.76794 10.1497 0.783289 14.0011 0.783289 18C0.783289 19.0711 0.996074 21.3604 2.58926 23.3843C4.18784 25.415 7.15323 27.15 12.6 27.15C18.0467 27.15 21.0121 25.415 22.6107 23.3843C24.2038 21.3604 24.4166 19.0711 24.4166 18C24.4166 14.0012 22.4333 10.1498 18.5526 6.53946L19.7099 4.61054ZM17.7368 3.42672L17.7367 3.42693L16.4283 5.60863H8.77158L7.46326 3.42692L7.46313 3.42672C7.41603 3.34846 7.43845 3.28248 7.46104 3.24208C7.48362 3.20302 7.52826 3.15 7.61997 3.15H17.5799C17.6709 3.15 17.716 3.20341 17.7396 3.24328C17.7611 3.28102 17.784 3.3482 17.7368 3.42672ZM13.728 15.7654L13.7273 15.7652L12.0421 15.3403C12.0418 15.3402 12.0416 15.3401 12.0413 15.3401C11.8608 15.2925 11.708 15.1917 11.5895 15.0379L11.5889 15.0372C11.4789 14.896 11.4166 14.7102 11.4166 14.516C11.4166 14.0437 11.7871 13.6687 12.2333 13.6687H12.968C13.3791 13.6687 13.7307 13.9881 13.7788 14.423C13.8479 15.0554 14.409 15.5056 15.0473 15.4399L15.0482 15.4398C15.6806 15.3707 16.134 14.8001 16.0651 14.1704L16.065 14.1702C15.9186 12.845 14.975 11.7962 13.75 11.4752V11.3333C13.75 10.6985 13.2348 10.1833 12.6 10.1833C11.9651 10.1833 11.45 10.6985 11.45 11.3333V11.4726C10.1093 11.825 9.11662 13.0538 9.11662 14.516C9.11662 15.2164 9.34982 15.902 9.76635 16.4407C10.1883 16.9942 10.7918 17.393 11.4719 17.568L11.4726 17.5681L13.1585 17.9932C13.1586 17.9933 13.1586 17.9933 13.1587 17.9933C13.5247 18.0877 13.7833 18.4248 13.7833 18.8174C13.7833 19.0448 13.696 19.2589 13.5358 19.4214L13.5354 19.4218C13.3804 19.5802 13.1788 19.6646 12.9666 19.6646H12.232C11.8207 19.6646 11.4691 19.3451 11.421 18.9101L11.421 18.91C11.3506 18.2788 10.7903 17.8246 10.1519 17.8935L10.1517 17.8935C9.51933 17.9626 9.0659 18.5332 9.13485 19.163L9.13486 19.1631C9.28135 20.4883 10.2249 21.5371 11.45 21.8582V22C11.45 22.6348 11.9651 23.15 12.6 23.15C13.2348 23.15 13.75 22.6348 13.75 22V21.8609C14.2844 21.7215 14.7754 21.4419 15.1748 21.036C15.7598 20.4425 16.0833 19.6541 16.0833 18.8187C16.0833 17.3776 15.1176 16.1226 13.728 15.7654ZM12.6 24.85C8.26584 24.85 5.89618 23.635 4.60706 22.1897C3.31502 20.7411 3.08329 19.0334 3.08329 18C3.08329 14.5811 4.92338 11.1889 8.57071 7.90993H16.6292C20.2778 11.1888 22.1166 14.5811 22.1166 18C22.1166 19.0334 21.8849 20.7411 20.5928 22.1897C19.3037 23.635 16.9341 24.85 12.6 24.85Z" fill="#AD00FF" stroke="#AD00FF" strokeWidth="0.3"/>
</svg>
