<svg width="33" height="32" viewBox="0 0 33 32" fill="none" xmlns="http://www.w3.org/2000/svg">
<path d="M28.5361 19.568L28.5356 19.5705C28.3588 20.5427 28.0468 21.6078 27.2934 22.4294C26.5347 23.2567 25.348 23.8163 23.4667 23.8163H12.4453C10.5587 23.8163 8.93401 22.4081 8.66745 20.5395C8.66745 20.5395 8.66744 20.5395 8.66744 20.5395L6.65412 6.45299C6.54738 5.71064 5.90256 5.15098 5.15334 5.15098H4.79999C4.16515 5.15098 3.64999 4.63582 3.64999 4.00098C3.64999 3.36613 4.16515 2.85098 4.79999 2.85098H5.15464C7.0412 2.85098 8.66588 4.25907 8.93251 6.12761L28.5361 19.568ZM28.5361 19.568L29.8875 11.3493C29.8876 11.3489 29.8876 11.3484 29.8877 11.348C30.0913 10.2325 29.7901 9.09201 29.0646 8.22222L29.0646 8.2222C28.3374 7.35067 27.2684 6.85098 26.1333 6.85098H9.03656L8.93253 6.12778L28.5361 19.568ZM27.6214 10.9566L27.6218 10.954C27.706 10.4932 27.5852 10.0398 27.2968 9.69445C27.008 9.34855 26.5835 9.14963 26.132 9.14963H9.36357L10.9444 20.2143L27.6214 10.9566ZM27.6214 10.9566L26.2697 19.1769C26.2697 19.1772 26.2696 19.1776 26.2695 19.178C26.1189 20.0078 25.9198 20.5798 25.5243 20.9511C25.1321 21.3194 24.5172 21.5163 23.4667 21.5163H12.4453C11.6961 21.5163 11.0512 20.9567 10.9444 20.2144L27.6214 10.9566ZM19.9872 15.1869L19.95 15.2241V12.6663C19.95 12.0315 19.4348 11.5163 18.8 11.5163C18.1651 11.5163 17.65 12.0315 17.65 12.6663V15.2228L17.6128 15.1856L17.6128 15.1856C17.1635 14.7363 16.4352 14.7363 15.9859 15.1856C15.5367 15.6348 15.5367 16.3631 15.9859 16.8124L17.9859 18.8124C18.0923 18.9187 18.2197 19.0029 18.3601 19.0609C18.5 19.1187 18.6488 19.1496 18.8 19.1496C18.9512 19.1496 19.0999 19.1187 19.2399 19.0609C19.3803 19.0029 19.5077 18.9187 19.6141 18.8124L21.6141 16.8124C22.0633 16.3631 22.0633 15.6348 21.6141 15.1856C21.1646 14.7361 20.4362 14.7379 19.9872 15.1869L20.0933 15.293L19.9872 15.1869ZM12.8267 29.8163C13.8295 29.8163 14.6433 29.0025 14.6433 27.9996C14.6433 26.9968 13.8295 26.183 12.8267 26.183H12.8133C11.8097 26.183 11.0033 26.9976 11.0033 27.9996C11.0033 29.0033 11.826 29.8163 12.8267 29.8163ZM23.4933 26.183H23.48C22.4764 26.183 21.67 26.9976 21.67 27.9996C21.67 29.0033 22.4913 29.8163 23.4933 29.8163C24.4962 29.8163 25.31 29.0025 25.31 27.9996C25.31 26.9968 24.4962 26.183 23.4933 26.183Z" fill="#FB7800" stroke="#FB7800" strokeWidth="0.3"/>
</svg>
