<svg width="14" height="14" viewBox="0 0 14 14" fill="none" xmlns="http://www.w3.org/2000/svg">
<path d="M7 0.166016C7.20733 0.166016 7.3932 0.294022 7.46713 0.487769L9.03913 4.60758L13.3577 4.81877C13.5612 4.82872 13.7383 4.9611 13.8054 5.15342C13.8725 5.34575 13.8163 5.55956 13.6631 5.69395L10.3765 8.57901L11.5845 13.2064C11.6372 13.4083 11.5589 13.6219 11.3881 13.7418C11.2172 13.8618 10.9899 13.8631 10.8177 13.7449L7 11.1243L3.18223 13.7449C3.01012 13.8631 2.78272 13.8618 2.6119 13.7418C2.44106 13.6219 2.36275 13.4083 2.41548 13.2064L3.62344 8.57901L0.336797 5.69395C0.183711 5.55956 0.127451 5.34575 0.194571 5.15342C0.261684 4.9611 0.438764 4.82872 0.642224 4.81877L4.96084 4.60758L6.5328 0.487769C6.60673 0.294022 6.7926 0.166016 7 0.166016Z" fill="#979797"/>
</svg>
