<svg width="20" height="27" viewBox="0 0 20 27" fill="none" xmlns="http://www.w3.org/2000/svg">
<path d="M19.065 3.18C11.391 3.18 10.098 0.273 10.077 0.24C10.023 0.096 9.891 0 9.735 0H9.723C9.567 0 9.423 0.096 9.372 0.24C9.36 0.27 8.037 3.18 0.384 3.18C0.165 3.18 0 3.357 0 3.564V16.62C0 21.963 9.186 26.055 9.567 26.22C9.621 26.25 9.669 26.25 9.732 26.25C9.774 26.25 9.834 26.25 9.876 26.22C10.269 26.055 19.455 21.966 19.455 16.62V3.561C19.461 3.354 19.284 3.18 19.065 3.18ZM16.302 8.781C12.852 11.949 10.161 16.32 9.342 18.411C9.321 18.474 9.258 18.525 9.186 18.534C9.177 18.546 9.165 18.546 9.156 18.546C9.093 18.546 9.042 18.525 9.012 18.483L3.939 13.326C3.909 13.284 5.43 11.928 5.505 11.979L8.289 14.163C9.375 12.891 12.039 10.011 15.744 7.743C15.819 7.743 16.356 8.55 16.356 8.55C16.386 8.637 16.365 8.727 16.302 8.781Z" fill="#4429FF"/>
</svg>
