<svg width="23" height="27" viewBox="0 0 23 27" fill="none" xmlns="http://www.w3.org/2000/svg">
<path d="M21.327 0H1.641C0.735 0 0 0.735 0 1.641V24.609C0 25.518 0.735 26.25 1.641 26.25H21.327C22.233 26.25 22.968 25.515 22.968 24.609V1.641C22.968 0.735 22.233 0 21.327 0ZM15.681 2.688H20.436V4.341H15.681V2.688ZM2.454 2.688H7.209V4.341H2.454V2.688ZM21.09 24.429H1.878V6.819H21.087V24.429H21.09ZM4.527 11.406H18.57C19.029 11.406 19.404 11.028 19.404 10.56C19.404 10.092 19.032 9.714 18.57 9.714H4.527C4.068 9.714 3.696 10.092 3.696 10.56C3.696 11.028 4.065 11.406 4.527 11.406ZM4.527 14.907H18.57C19.029 14.907 19.404 14.529 19.404 14.061C19.404 13.593 19.032 13.215 18.57 13.215H4.527C4.068 13.215 3.696 13.593 3.696 14.061C3.696 14.529 4.065 14.907 4.527 14.907ZM4.527 18.405H18.57C19.029 18.405 19.404 18.027 19.404 17.559C19.404 17.091 19.032 16.713 18.57 16.713H4.527C4.068 16.713 3.696 17.091 3.696 17.559C3.696 18.027 4.065 18.405 4.527 18.405ZM4.527 21.909H18.57C19.029 21.909 19.404 21.531 19.404 21.063C19.404 20.595 19.032 20.217 18.57 20.217H4.527C4.068 20.217 3.696 20.595 3.696 21.063C3.696 21.531 4.065 21.909 4.527 21.909Z" fill="#00AD66"/>
</svg>
