<svg width="30" height="30" viewBox="0 0 30 30" fill="none" xmlns="http://www.w3.org/2000/svg">
<path d="M24.21 5.27398C21.741 3.27598 18.471 2.17798 15 2.17798C11.529 2.17798 8.256 3.27898 5.787 5.27398C3.264 7.31398 1.875 10.044 1.875 12.96C1.875 15.744 3.15 18.372 5.472 20.382L10.206 27.429C10.371 27.675 10.647 27.822 10.941 27.822H10.962C11.265 27.816 11.544 27.654 11.7 27.396L13.935 23.709C14.289 23.733 14.646 23.745 15 23.745C18.471 23.745 21.741 22.647 24.21 20.649C26.733 18.609 28.125 15.879 28.125 12.96C28.125 10.044 26.736 7.31398 24.21 5.27398ZM14.697 16.515C14.697 16.566 14.658 16.605 14.607 16.605H7.335C7.287 16.605 7.245 16.566 7.245 16.515V15.45C7.245 15.402 7.284 15.36 7.335 15.36H14.607C14.655 15.36 14.697 15.399 14.697 15.45V16.515ZM14.697 14.1C14.697 14.148 14.658 14.19 14.607 14.19H7.335C7.287 14.19 7.245 14.151 7.245 14.1V13.035C7.245 12.984 7.284 12.945 7.335 12.945H14.607C14.655 12.945 14.697 12.984 14.697 13.035V14.1ZM14.697 11.682C14.697 11.73 14.658 11.772 14.607 11.772H7.335C7.287 11.772 7.245 11.733 7.245 11.682V10.617C7.245 10.569 7.284 10.527 7.335 10.527H14.607C14.655 10.527 14.697 10.566 14.697 10.617V11.682ZM20.565 18.12C20.199 18.177 19.845 18.207 19.506 18.207C19.149 18.207 18.792 18.177 18.435 18.12C18.375 17.763 18.348 17.409 18.348 17.061C18.348 16.713 18.375 16.356 18.435 15.99C18.792 15.93 19.146 15.903 19.494 15.903C19.842 15.903 20.199 15.93 20.565 15.99C20.622 16.356 20.652 16.71 20.652 17.049C20.652 17.406 20.622 17.763 20.565 18.12ZM22.491 11.832C22.317 12.159 22.107 12.438 21.861 12.666C21.615 12.894 21.36 13.077 21.099 13.218C20.838 13.359 20.625 13.464 20.46 13.53V14.85C20.121 14.907 19.797 14.937 19.488 14.937C19.17 14.937 18.864 14.907 18.573 14.85V12.357C18.795 12.318 19.026 12.264 19.269 12.189C19.509 12.117 19.734 12.018 19.935 11.892C20.139 11.766 20.304 11.61 20.436 11.421C20.565 11.232 20.631 10.998 20.631 10.719C20.631 10.302 20.481 9.98698 20.181 9.76798C19.881 9.54898 19.485 9.44398 18.993 9.44398C18.789 9.44398 18.609 9.44998 18.45 9.46498C18.291 9.47998 18.144 9.50398 18.009 9.53698C17.874 9.56998 17.736 9.60898 17.595 9.65098C17.454 9.69298 17.307 9.74698 17.154 9.80398C17.019 9.55198 16.908 9.29098 16.821 9.02098C16.734 8.75098 16.68 8.46898 16.662 8.18098C16.914 8.09398 17.145 8.01898 17.358 7.95598C17.571 7.89298 17.778 7.84198 17.982 7.80298C18.186 7.76398 18.387 7.73698 18.591 7.72198C18.792 7.70698 19.011 7.70098 19.242 7.70098C20.4 7.70098 21.276 7.96498 21.864 8.48998C22.452 9.01798 22.749 9.73798 22.749 10.656C22.755 11.112 22.665 11.502 22.491 11.832Z" fill="#1570EF"/>
</svg>
