<svg width="20" height="20" viewBox="0 0 20 20" fill="none" xmlns="http://www.w3.org/2000/svg">
<path d="M10 18.334C14.1421 18.334 17.5 14.9761 17.5 10.834C17.5 6.69185 14.1421 3.33398 10 3.33398C5.85786 3.33398 2.5 6.69185 2.5 10.834C2.5 14.9761 5.85786 18.334 10 18.334Z" stroke="#6021D1" strokeWidth="1.25" strokeLinecap="round"/>
<path d="M4.16667 15.834L2.5 17.5007M15.8333 15.834L17.5 17.5007" stroke="#6021D1" strokeWidth="1.25" strokeLinecap="round" strokeLinejoin="round"/>
<path d="M15.8337 2.97475L16.3299 2.72663C17.0343 2.37443 17.2989 2.41474 17.8589 2.97475C18.4189 3.53475 18.4592 3.79937 18.107 4.50375L17.8589 5M4.16699 2.97475L3.67074 2.72663C2.96636 2.37443 2.70174 2.41474 2.14174 2.97475C1.58174 3.53475 1.54143 3.79937 1.89362 4.50375L2.14174 5" stroke="#6021D1" strokeWidth="1.25" strokeLinecap="round"/>
<path d="M10 7.91602V11.2493L11.6667 12.916" stroke="#6021D1" strokeWidth="1.25" strokeLinecap="round" strokeLinejoin="round"/>
<path d="M10 2.91602V1.66602" stroke="#6021D1" strokeWidth="1.25" strokeLinecap="round" strokeLinejoin="round"/>
<path d="M8.33398 1.66602H11.6673" stroke="#6021D1" strokeWidth="1.25" strokeLinecap="round" strokeLinejoin="round"/>
</svg>
