<svg width="48" height="48" viewBox="0 0 48 48" fill="none" xmlns="http://www.w3.org/2000/svg">
<path fill-rule="evenodd" clip-rule="evenodd" d="M4 6C4 4.89544 4.89544 4 6 4H42C43.1046 4 44 4.89544 44 6V42C44 43.1046 43.1046 44 42 44H6C4.89544 44 4 43.1046 4 42V6ZM27 17C27 14.7909 28.7908 13 31 13C33.2092 13 35 14.7909 35 17C35 19.2091 33.2092 21 31 21C28.7908 21 27 19.2091 27 17ZM36.1402 33.5002C37.4256 33.4988 38.7158 33.7112 40 34.1414V40H30.967C30.4522 38.5004 29.773 37.0624 28.9448 35.7076C31.3134 34.2142 33.7382 33.49 36.1324 33.5002H36.1402ZM8 27.5032V40H27.7642C26.479 36.8446 24.3246 34.0296 21.48 31.8614C17.6839 28.9678 12.9098 27.419 8 27.5032Z" fill="#B3B3B3"/>
</svg>
