<svg width="199" height="48" viewBox="0 0 199 48" fill="none" xmlns="http://www.w3.org/2000/svg">
<path d="M52.9226 43.5319C52.1377 43.5783 51.3527 43.5783 50.6139 43.4855C46.2274 43.0217 43.1338 39.3111 41.7485 35.3223C41.0098 36.4354 40.2248 37.595 39.3937 38.6618C38.8858 39.3575 38.3317 40.0996 37.7776 40.7953C37.6391 40.9345 37.5467 41.0736 37.4082 41.2592C39.209 44.1349 41.8871 46.3148 45.9042 46.9178C48.1667 47.2424 50.4754 46.9642 52.5994 46.1293C53.6614 45.7118 54.631 45.1553 55.5084 44.5059C56.1086 44.0421 57.0783 43.3 57.7247 42.5115C56.1548 43.0217 54.5387 43.3927 52.9226 43.5319Z" fill="white"/>
<path d="M53.477 1L41.7488 8.46751L45.4889 10.1836C44.6578 11.9925 43.8266 13.7551 42.9493 15.564C42.2106 17.0482 41.4718 18.5324 40.733 19.9703C40.5483 20.3413 40.3636 20.7124 40.1327 21.0834C39.5787 22.1502 39.0246 23.2634 38.4243 24.2838C37.1776 26.5565 35.8848 28.922 34.4072 31.1947C32.237 34.5342 29.6975 37.549 26.3729 39.4507C23.1408 41.2596 18.939 41.7698 15.753 39.9145C12.3823 38.0129 10.72 33.9312 10.5353 30.0352C10.3506 25.4433 11.9205 20.7587 14.9218 17.2337C17.2305 14.5436 20.4627 12.5027 23.9719 12.2708C25.7265 12.1317 27.5273 12.4564 29.0049 13.4304C30.9442 14.7291 32.0523 16.9554 32.6988 19.1818C33.5761 22.1966 33.8069 25.3506 34.084 28.5045C35.4692 26.3246 36.7159 24.0519 37.8702 21.9183C38.4705 20.8051 39.0707 19.6456 39.671 18.5324C38.8399 14.8218 37.27 11.2968 34.5457 8.7458C30.9903 5.40629 25.6803 4.20036 20.9244 5.128C16.1224 6.05564 11.8282 8.93133 8.68836 12.6883C5.41002 16.6307 3.3322 21.5009 2.82429 26.6029C2.31638 31.9368 3.56307 37.5027 6.84141 41.7234C12.844 49.4228 23.1869 49.6548 30.898 44.46C32.5141 43.3468 33.9455 42.0945 35.2383 40.703C35.7001 40.1928 36.1618 39.6826 36.5774 39.1724C36.7621 38.9869 36.9006 38.8014 37.0391 38.5694C37.5932 37.8737 38.1473 37.178 38.6552 36.4359C39.5787 35.2299 40.4098 33.9776 41.1947 32.7717C41.3333 32.5398 41.4718 32.3543 41.6103 32.1223C42.5338 30.6845 43.4573 29.2003 44.3346 27.7161C45.2119 26.2318 46.043 24.7476 46.8279 23.217C47.6129 21.6864 48.3979 20.1558 49.1366 18.6716C50.0601 16.8163 50.9374 14.961 51.7686 13.1057L55.5548 14.8218L53.477 1Z" fill="#F9FAFB"/>
<path d="M53.4775 1L41.7493 8.46751L45.4894 10.1836C44.6583 11.9925 43.8272 13.7551 42.9499 15.564C42.2111 17.0482 41.4723 18.5324 40.7335 19.9703C40.5488 20.3413 40.3641 20.7124 40.1333 21.0834C39.5792 22.1502 39.0251 23.2634 38.4248 24.2838C37.1781 26.5565 35.8853 28.922 34.4077 31.1947C32.2375 34.5342 29.698 37.549 26.3734 39.4507C23.1413 41.2596 18.9395 41.7698 15.7535 39.9145C12.3828 38.0129 10.7205 33.9312 10.5358 30.0352C10.3511 25.4433 11.921 20.7587 14.9223 17.2337C17.231 14.5436 20.4632 12.5027 23.9724 12.2708C25.727 12.1317 27.5278 12.4564 29.0054 13.4304C29.1901 13.5695 29.3747 13.7087 29.5594 13.8478C28.4974 12.8274 27.2969 12.0389 25.9117 11.5287C18.8933 8.97771 10.3511 14.7755 6.84192 24.4693C4.02531 32.2615 5.27201 40.2856 9.52 44.5063C15.6149 49.3765 24.2033 48.959 30.8523 44.46C32.4684 43.3468 33.8998 42.0945 35.1927 40.703C35.6544 40.1928 36.1161 39.6826 36.5317 39.1724C36.7164 38.9869 36.8549 38.8014 36.9934 38.5694C37.5475 37.8737 38.1016 37.178 38.6095 36.4359C39.533 35.2299 40.3641 33.9776 41.1491 32.7717C41.2876 32.5398 41.4261 32.3543 41.5646 32.1223C42.4881 30.6845 43.4116 29.2003 44.2889 27.7161C45.1662 26.2318 45.9973 24.7476 46.7823 23.217C47.5672 21.6864 48.3522 20.1558 49.091 18.6716C50.0145 16.8163 50.8918 14.961 51.7229 13.1057L55.5091 14.8218L53.4775 1Z" fill="white"/>
<path d="M67.6542 15.0586H81.0589C82.2732 15.0586 83.3008 15.3401 84.1415 15.8562C84.9822 16.3723 85.6828 17.076 86.1966 17.8736C86.7103 18.7181 87.084 19.6095 87.3175 20.6417C87.551 21.6738 87.6912 22.6591 87.6912 23.6913V39.4553C87.6912 39.7837 87.551 39.9244 87.2241 39.9244H70.6434C69.7093 39.9244 68.9153 39.6429 68.3081 39.033C67.7009 38.4231 67.2339 37.7663 66.9069 36.9687C66.58 36.1711 66.3465 35.3735 66.2064 34.5759C66.0662 33.7784 66.0195 33.1684 66.0195 32.7462C66.0195 31.9955 66.1129 31.151 66.2998 30.2127C66.4866 29.2743 66.8135 28.4298 67.1872 27.6792C67.6075 26.8816 68.1213 26.2248 68.8219 25.7087C69.4758 25.1457 70.3165 24.9111 71.2506 24.9111H79.1906C80.0314 24.9111 80.6852 24.7234 81.1523 24.3012C81.6194 23.9258 81.8996 23.4567 81.8996 22.8937C81.8996 22.4714 81.7595 22.0023 81.4325 21.58C81.1056 21.1578 80.6852 20.9232 80.2182 20.9232H67.7477C67.4207 20.9232 67.2806 20.7824 67.2806 20.454V15.5747C67.1872 15.2463 67.3273 15.0586 67.6542 15.0586ZM81.3858 34.3414C81.7128 34.3414 81.8529 34.2006 81.8529 33.8722V31.0103C81.8529 30.6818 81.7128 30.5411 81.3858 30.5411H72.932C72.465 30.5411 72.138 30.7288 71.8578 31.1041C71.5776 31.4794 71.4374 31.8548 71.4374 32.3239C71.4374 32.8869 71.5776 33.3561 71.9045 33.7314C72.2314 34.1537 72.6518 34.3414 73.2123 34.3414H81.3858Z" fill="white"/>
<path d="M110.904 34.1068C111.231 34.1068 111.371 34.2475 111.371 34.5759V39.4553C111.371 39.7837 111.231 39.9244 110.904 39.9244H101.983C100.255 39.9244 98.6673 39.596 97.3128 38.9861C95.9583 38.3762 94.7907 37.5786 93.8565 36.5464C92.9224 35.5612 92.1751 34.4352 91.6614 33.2154C91.1476 31.9955 90.9141 30.7757 90.9141 29.5558V25.5679C90.9141 23.9258 91.1476 22.4714 91.6147 21.2047C92.0817 19.9379 92.7823 18.8119 93.7631 17.9205C94.744 17.0291 95.9583 16.3253 97.4996 15.8093C99.0409 15.2932 100.816 15.0586 102.918 15.0586H110.951C111.278 15.0586 111.418 15.1993 111.418 15.5278V20.4071C111.418 20.7355 111.278 20.8763 110.951 20.8763H101.983C100.162 20.8763 98.7607 21.4393 97.8733 22.5653C96.9859 23.6913 96.5188 25.0518 96.5188 26.647V28.7114C96.5188 30.3065 96.9391 31.6202 97.8266 32.6054C98.714 33.5907 100.068 34.1068 101.983 34.1068H110.904Z" fill="white"/>
<path d="M121.086 38.4231C121.086 39.4553 120.666 39.9714 119.779 39.9714H116.556C116.089 39.9714 115.809 39.7837 115.575 39.4084C115.388 39.033 115.248 38.5639 115.248 38.0947V18.202C115.248 17.4044 115.575 16.7007 116.229 16.0438C116.883 15.387 117.723 15.0586 118.704 15.0586H129.447C130.568 15.0586 131.642 15.2932 132.623 15.7623C133.604 16.2315 134.444 16.8414 135.192 17.5921C135.939 18.3428 136.499 19.2342 136.92 20.2194C137.34 21.2047 137.527 22.2368 137.527 23.269V39.4553C137.527 39.7837 137.34 39.9244 137.013 39.9244H132.202C131.875 39.9244 131.735 39.7837 131.735 39.4553V24.3012C131.735 23.5036 131.595 22.8468 131.362 22.3307C131.128 21.8146 130.801 21.4393 130.381 21.1578C129.96 20.8763 129.447 20.6886 128.886 20.5478C128.326 20.454 127.719 20.3602 127.018 20.3602H122.394C122.067 20.3602 121.74 20.5009 121.413 20.7355C121.133 20.9701 120.946 21.2516 120.946 21.5331V38.4231H121.086Z" fill="white"/>
<path d="M165.036 30.3065C165.036 32.2301 164.849 33.7783 164.522 35.0451C164.195 36.2649 163.681 37.2501 162.98 38.0008C162.28 38.7515 161.439 39.2206 160.412 39.5491C159.384 39.8306 158.123 39.9713 156.675 39.9713H148.221C146.773 39.9713 145.559 39.6898 144.625 39.1737C143.691 38.6576 142.897 37.9539 142.336 37.1094C141.776 36.2649 141.356 35.3266 141.169 34.2475C140.935 33.1684 140.842 32.0893 140.842 30.9633V22.5652C140.842 21.4392 141.029 20.4071 141.449 19.4687C141.823 18.5304 142.383 17.7797 143.037 17.1229C143.691 16.4661 144.485 15.95 145.372 15.6216C146.26 15.2931 147.241 15.1055 148.221 15.1055H157.796C158.637 15.1055 159.524 15.2462 160.365 15.5746C161.252 15.9031 162 16.3722 162.7 16.9821C163.401 17.5921 163.915 18.3427 164.382 19.2341C164.802 20.1256 165.036 21.1108 165.036 22.2837V30.3065ZM159.197 23.269C159.197 22.8936 159.057 22.5652 158.824 22.2368C158.59 21.9553 158.263 21.6738 157.89 21.4861C157.516 21.2985 157.096 21.1108 156.628 21.017C156.161 20.9231 155.694 20.8762 155.181 20.8762H149.996C149.576 20.8762 149.155 20.9231 148.782 21.017C148.361 21.1108 147.988 21.2516 147.661 21.4392C147.334 21.6269 147.054 21.8615 146.82 22.1899C146.587 22.5183 146.493 22.8936 146.493 23.3159V30.9633C146.493 31.6201 146.633 32.1362 146.914 32.5585C147.194 32.9807 147.521 33.3091 147.941 33.5437C148.361 33.7783 148.782 33.9191 149.249 34.0129C149.716 34.1067 150.183 34.1536 150.557 34.1536H154.947C156.068 34.1536 157.096 33.8721 157.936 33.3561C158.777 32.7931 159.197 32.1362 159.197 31.2917V27.4915V23.269Z" fill="white"/>
<path d="M192.172 30.3065C192.172 32.2301 191.985 33.7783 191.658 35.0451C191.332 36.2649 190.818 37.2501 190.117 38.0008C189.417 38.7515 188.576 39.2206 187.548 39.5491C186.521 39.8306 185.26 39.9713 183.812 39.9713H175.358C173.91 39.9713 172.696 39.6898 171.762 39.1737C170.828 38.6576 170.034 37.9539 169.473 37.1094C168.913 36.2649 168.492 35.3266 168.305 34.2475C168.072 33.1684 167.979 32.0893 167.979 30.9633V22.5652C167.979 21.4392 168.165 20.4071 168.586 19.4687C168.959 18.5304 169.52 17.7797 170.174 17.1229C170.828 16.4661 171.622 15.95 172.509 15.6216C173.396 15.2931 174.377 15.1055 175.405 15.1055H184.98C185.82 15.1055 186.708 15.2462 187.548 15.5746C188.436 15.9031 189.183 16.3722 189.884 16.9821C190.584 17.5921 191.098 18.3427 191.565 19.2341C191.985 20.1256 192.219 21.1108 192.219 22.2837V30.3065H192.172ZM186.334 23.269C186.334 22.8936 186.194 22.5652 185.96 22.2368C185.727 21.9553 185.4 21.6738 185.026 21.4861C184.653 21.2985 184.232 21.1108 183.765 21.017C183.298 20.9231 182.831 20.8762 182.317 20.8762H177.133C176.713 20.8762 176.292 20.9231 175.919 21.017C175.498 21.1108 175.125 21.2516 174.798 21.4392C174.471 21.6269 174.19 21.8615 173.957 22.1899C173.723 22.5183 173.63 22.8936 173.63 23.3159V30.9633C173.63 31.6201 173.77 32.1362 174.05 32.5585C174.331 32.9807 174.657 33.3091 175.078 33.5437C175.498 33.7783 175.919 33.9191 176.386 34.0129C176.853 34.1067 177.32 34.1536 177.693 34.1536H182.084C183.205 34.1536 184.232 33.8721 185.073 33.3561C185.914 32.7931 186.334 32.1362 186.334 31.2917V27.4915V23.269Z" fill="white"/>
</svg>
