<svg width="56" height="56" viewBox="0 0 56 56" fill="none" xmlns="http://www.w3.org/2000/svg">
<rect width="56" height="56" rx="8" fill="#00B243" fillOpacity="0.15"/>
<path d="M23.1872 28.5193C22.738 28.9685 22.738 29.6969 23.1872 30.1461L27.1872 34.1461C27.2936 34.2525 27.4212 34.3367 27.5616 34.3947C27.7015 34.4525 27.8501 34.4833 28.0013 34.4833C28.1525 34.4833 28.3014 34.4525 28.4414 34.3947C28.5818 34.3366 28.7091 34.2524 28.8154 34.1461L32.8154 30.1461C33.2646 29.6969 33.2646 28.9685 32.8154 28.5193C32.3661 28.07 31.6378 28.07 31.1885 28.5193L29.1513 30.5566V16C29.1513 15.3652 28.6361 14.85 28.0013 14.85C27.3665 14.85 26.8513 15.3652 26.8513 16V30.5566L24.8141 28.5193L24.708 28.6253L24.8141 28.5193C24.3648 28.07 23.6365 28.07 23.1872 28.5193ZM36 24.1833C35.3652 24.1833 34.85 24.6985 34.85 25.3333C34.85 25.9682 35.3652 26.4833 36 26.4833C37.0342 26.4833 37.7361 26.7046 38.1824 27.1509C38.6287 27.5972 38.85 28.2992 38.85 29.3333V36C38.85 37.0342 38.6287 37.7361 38.1824 38.1824C37.7361 38.6287 37.0342 38.85 36 38.85H20C18.9658 38.85 18.2639 38.6287 17.8176 38.1824C17.3713 37.7361 17.15 37.0342 17.15 36V29.3333C17.15 28.2992 17.3713 27.5972 17.8176 27.1509C18.2639 26.7046 18.9658 26.4833 20 26.4833C20.6348 26.4833 21.15 25.9682 21.15 25.3333C21.15 24.6985 20.6348 24.1833 20 24.1833C18.3612 24.1833 17.0681 24.6351 16.1849 25.5183C15.3018 26.4014 14.85 27.6945 14.85 29.3333V36C14.85 37.6388 15.3018 38.9319 16.1849 39.8151C17.0681 40.6982 18.3612 41.15 20 41.15H36C37.6388 41.15 38.9319 40.6982 39.8151 39.8151C40.6982 38.9319 41.15 37.6388 41.15 36V29.3333C41.15 27.6945 40.6982 26.4014 39.8151 25.5183C38.9319 24.6351 37.6388 24.1833 36 24.1833Z" fill="#00B243" stroke="#00B243" strokeWidth="0.3"/>
</svg>
