<svg width="16" height="16" viewBox="0 0 16 16" fill="none" xmlns="http://www.w3.org/2000/svg">
<g id="next 1">
<path id="Vector" d="M14.5893 7.25577L10.0918 2.75827C9.97065 2.64123 9.80835 2.57647 9.63989 2.57794C9.47143 2.5794 9.31028 2.64697 9.19116 2.7661C9.07203 2.88522 9.00446 3.04637 9.003 3.21483C9.00153 3.38329 9.06629 3.54559 9.18333 3.66676L12.5841 7.06752H1.28508C1.11468 7.06752 0.951254 7.13521 0.830762 7.2557C0.71027 7.37619 0.642578 7.53961 0.642578 7.71002C0.642578 7.88042 0.71027 8.04384 0.830762 8.16433C0.951254 8.28482 1.11468 8.35252 1.28508 8.35252H12.5841L9.18333 11.7533C9.12196 11.8125 9.07302 11.8834 9.03934 11.9618C9.00567 12.0402 8.98795 12.1245 8.98721 12.2098C8.98646 12.2951 9.00272 12.3797 9.03503 12.4587C9.06733 12.5377 9.11504 12.6094 9.17537 12.6697C9.23569 12.7301 9.30743 12.7778 9.38639 12.8101C9.46535 12.8424 9.54995 12.8586 9.63526 12.8579C9.72057 12.8571 9.80488 12.8394 9.88327 12.8057C9.96166 12.7721 10.0326 12.7231 10.0918 12.6618L14.5893 8.16426C14.7098 8.04378 14.7774 7.88038 14.7774 7.71002C14.7774 7.53965 14.7098 7.37626 14.5893 7.25577Z" fill="#2F1C6A"/>
</g>
</svg>
