<svg width="101" height="16" viewBox="0 0 101 16" fill="none" xmlns="http://www.w3.org/2000/svg">
<g id="star">
<path id="star - Copy" d="M16.223 5.70218L11.0997 4.94697L8.80437 0.261693C8.75497 0.181729 8.68575 0.115686 8.60333 0.0698712C8.52091 0.0240563 8.42804 0 8.3336 0C8.23915 0 8.14629 0.0240563 8.06387 0.0698712C7.98145 0.115686 7.91223 0.181729 7.86282 0.261693L5.56747 4.94697L0.444165 5.70218C0.350437 5.71174 0.261407 5.74769 0.187546 5.80581C0.113686 5.86393 0.0580688 5.94179 0.0272364 6.03025C-0.00359608 6.1187 -0.00836094 6.21406 0.0135023 6.30511C0.0353655 6.39616 0.0829474 6.47912 0.150651 6.54422L3.87234 10.1941L2.9918 15.3676C2.97905 15.4622 2.99304 15.5584 3.0322 15.6456C3.07136 15.7327 3.13415 15.8073 3.21354 15.861C3.29294 15.9148 3.38581 15.9455 3.48177 15.9497C3.57773 15.954 3.673 15.9317 3.75692 15.8853L8.33277 13.4542L12.9086 15.8787C12.9921 15.9251 13.0868 15.9476 13.1824 15.9438C13.2779 15.9399 13.3705 15.9099 13.4499 15.857C13.5293 15.804 13.5924 15.7303 13.6322 15.6439C13.672 15.5575 13.687 15.4619 13.6754 15.3676L12.7948 10.1941L16.5165 6.5393C16.5827 6.47399 16.629 6.39142 16.65 6.30111C16.671 6.2108 16.6658 6.11644 16.6351 6.02892C16.6044 5.94139 16.5495 5.86428 16.4765 5.80646C16.4036 5.74865 16.3157 5.7125 16.223 5.70218Z" fill="#FFC107"/>
<path id="star - Copy_2" d="M37.2777 5.70218L32.1544 4.94697L29.8591 0.261693C29.8097 0.181729 29.7404 0.115686 29.658 0.0698712C29.5756 0.0240563 29.4827 0 29.3883 0C29.2938 0 29.201 0.0240563 29.1186 0.0698712C29.0361 0.115686 28.9669 0.181729 28.9175 0.261693L26.6222 4.94697L21.4989 5.70218C21.4051 5.71174 21.3161 5.74769 21.2422 5.80581C21.1684 5.86393 21.1128 5.94179 21.0819 6.03025C21.0511 6.1187 21.0463 6.21406 21.0682 6.30511C21.0901 6.39616 21.1376 6.47912 21.2053 6.54422L24.927 10.1941L24.0465 15.3676C24.0337 15.4622 24.0477 15.5584 24.0869 15.6456C24.126 15.7327 24.1888 15.8073 24.2682 15.861C24.3476 15.9148 24.4405 15.9455 24.5365 15.9497C24.6324 15.954 24.7277 15.9317 24.8116 15.8853L29.3875 13.4542L33.9633 15.8787C34.0468 15.9251 34.1415 15.9476 34.237 15.9438C34.3326 15.9399 34.4252 15.9099 34.5046 15.857C34.584 15.804 34.6471 15.7303 34.6869 15.6439C34.7267 15.5575 34.7416 15.4619 34.7301 15.3676L33.8495 10.1941L37.5712 6.5393C37.6374 6.47399 37.6837 6.39142 37.7047 6.30111C37.7256 6.2108 37.7205 6.11644 37.6898 6.02892C37.6591 5.94139 37.6041 5.86428 37.5312 5.80646C37.4583 5.74865 37.3704 5.7125 37.2777 5.70218Z" fill="#FFC107"/>
<path id="star - Copy_3" d="M58.3324 5.70218L53.2091 4.94697L50.9137 0.261693C50.8643 0.181729 50.7951 0.115686 50.7127 0.0698712C50.6303 0.0240563 50.5374 0 50.443 0C50.3485 0 50.2557 0.0240563 50.1732 0.0698712C50.0908 0.115686 50.0216 0.181729 49.9722 0.261693L47.6768 4.94697L42.5535 5.70218C42.4598 5.71174 42.3708 5.74769 42.2969 5.80581C42.2231 5.86393 42.1674 5.94179 42.1366 6.03025C42.1058 6.1187 42.101 6.21406 42.1229 6.30511C42.1447 6.39616 42.1923 6.47912 42.26 6.54422L45.9817 10.1941L45.1012 15.3676C45.0884 15.4622 45.1024 15.5584 45.1416 15.6456C45.1807 15.7327 45.2435 15.8073 45.3229 15.861C45.4023 15.9148 45.4952 15.9455 45.5911 15.9497C45.6871 15.954 45.7824 15.9317 45.8663 15.8853L50.4421 13.4542L55.018 15.8787C55.1014 15.9251 55.1962 15.9476 55.2917 15.9438C55.3873 15.9399 55.4799 15.9099 55.5593 15.857C55.6387 15.804 55.7018 15.7303 55.7416 15.6439C55.7814 15.5575 55.7963 15.4619 55.7848 15.3676L54.9042 10.1941L58.6259 6.5393C58.6921 6.47399 58.7384 6.39142 58.7593 6.30111C58.7803 6.2108 58.7752 6.11644 58.7445 6.02892C58.7138 5.94139 58.6588 5.86428 58.5859 5.80646C58.513 5.74865 58.4251 5.7125 58.3324 5.70218Z" fill="#FFC107"/>
<path id="star - Copy_4" d="M79.3871 5.70218L74.2638 4.94697L71.9684 0.261693C71.919 0.181729 71.8498 0.115686 71.7674 0.0698712C71.685 0.0240563 71.5921 0 71.4977 0C71.4032 0 71.3103 0.0240563 71.2279 0.0698712C71.1455 0.115686 71.0763 0.181729 71.0269 0.261693L68.7315 4.94697L63.6082 5.70218C63.5145 5.71174 63.4255 5.74769 63.3516 5.80581C63.2777 5.86393 63.2221 5.94179 63.1913 6.03025C63.1605 6.1187 63.1557 6.21406 63.1776 6.30511C63.1994 6.39616 63.247 6.47912 63.3147 6.54422L67.0364 10.1941L66.1559 15.3676C66.1431 15.4622 66.1571 15.5584 66.1963 15.6456C66.2354 15.7327 66.2982 15.8073 66.3776 15.861C66.457 15.9148 66.5499 15.9455 66.6458 15.9497C66.7418 15.954 66.8371 15.9317 66.921 15.8853L71.4968 13.4542L76.0727 15.8787C76.1561 15.9251 76.2509 15.9476 76.3464 15.9438C76.442 15.9399 76.5346 15.9099 76.614 15.857C76.6934 15.804 76.7565 15.7303 76.7963 15.6439C76.8361 15.5575 76.851 15.4619 76.8395 15.3676L75.9589 10.1941L79.6806 6.5393C79.7468 6.47399 79.7931 6.39142 79.814 6.30111C79.835 6.2108 79.8299 6.11644 79.7992 6.02892C79.7685 5.94139 79.7135 5.86428 79.6406 5.80646C79.5677 5.74865 79.4798 5.7125 79.3871 5.70218Z" fill="#D8D8D8"/>
<path id="star - Copy_5" d="M100.442 5.70218L95.3185 4.94697L93.0231 0.261693C92.9737 0.181729 92.9045 0.115686 92.8221 0.0698712C92.7397 0.0240563 92.6468 0 92.5523 0C92.4579 0 92.365 0.0240563 92.2826 0.0698712C92.2002 0.115686 92.131 0.181729 92.0816 0.261693L89.7862 4.94697L84.6629 5.70218C84.5692 5.71174 84.4802 5.74769 84.4063 5.80581C84.3324 5.86393 84.2768 5.94179 84.246 6.03025C84.2152 6.1187 84.2104 6.21406 84.2323 6.30511C84.2541 6.39616 84.3017 6.47912 84.3694 6.54422L88.0911 10.1941L87.2106 15.3676C87.1978 15.4622 87.2118 15.5584 87.251 15.6456C87.2901 15.7327 87.3529 15.8073 87.4323 15.861C87.5117 15.9148 87.6046 15.9455 87.7005 15.9497C87.7965 15.954 87.8917 15.9317 87.9757 15.8853L92.5515 13.4542L97.1274 15.8787C97.2108 15.9251 97.3056 15.9476 97.4011 15.9438C97.4967 15.9399 97.5893 15.9099 97.6687 15.857C97.7481 15.804 97.8112 15.7303 97.851 15.6439C97.8908 15.5575 97.9057 15.4619 97.8941 15.3676L97.0136 10.1941L100.735 6.5393C100.801 6.47399 100.848 6.39142 100.869 6.30111C100.89 6.2108 100.885 6.11644 100.854 6.02892C100.823 5.94139 100.768 5.86428 100.695 5.80646C100.622 5.74865 100.534 5.7125 100.442 5.70218Z" fill="#D8D8D8"/>
</g>
</svg>
