<svg width="30" height="30" viewBox="0 0 30 30" fill="none" xmlns="http://www.w3.org/2000/svg">
<g id="privacy-policy 1">
<g id="Layer 2">
<path id="Vector" d="M16.5625 10.625C16.5625 10.2106 16.3979 9.81317 16.1049 9.52015C15.8118 9.22712 15.4144 9.0625 15 9.0625C14.5856 9.0625 14.1882 9.22712 13.8951 9.52015C13.6021 9.81317 13.4375 10.2106 13.4375 10.625V12.1875H16.5625V10.625Z" fill="#2353F5"/>
<path id="Vector_2" d="M18.125 14.0625H11.875C11.6265 14.0629 11.3882 14.1618 11.2125 14.3375C11.0368 14.5132 10.9379 14.7515 10.9375 15V18.75C10.9379 18.9985 11.0368 19.2368 11.2125 19.4125C11.3882 19.5882 11.6265 19.6871 11.875 19.6875H18.125C18.3735 19.6871 18.6118 19.5882 18.7875 19.4125C18.9632 19.2368 19.0621 18.9985 19.0625 18.75V15C19.0621 14.7515 18.9632 14.5132 18.7875 14.3375C18.6118 14.1618 18.3735 14.0629 18.125 14.0625Z" fill="#2353F5"/>
<path id="Vector_3" d="M25.2277 5.22705C23.5515 5.04867 21.9019 4.6759 20.3119 4.11625C18.8553 3.60148 17.458 2.93238 16.1438 2.12036C15.7996 1.90962 15.4038 1.7981 15.0003 1.7981C14.5967 1.7981 14.201 1.90962 13.8568 2.12036C12.5423 2.93226 11.1448 3.60136 9.68812 4.11625C8.09872 4.67571 6.44967 5.04849 4.77418 5.22709C4.23591 5.2819 3.73717 5.53467 3.37471 5.93637C3.01225 6.33807 2.8119 6.86007 2.8125 7.40112V13.8953C2.81325 16.2914 3.45441 18.6437 4.6696 20.7088C5.88479 22.7739 7.62985 24.4767 9.72413 25.6409L13.9374 27.9821C14.2618 28.1646 14.6278 28.2604 15 28.2604C15.3722 28.2604 15.7382 28.1646 16.0626 27.9821L20.2759 25.6409C22.3702 24.4767 24.1152 22.7739 25.3304 20.7088C26.5456 18.6437 27.1868 16.2914 27.1875 13.8953V7.40112C27.1882 6.86034 26.9881 6.33855 26.626 5.93688C26.2639 5.53521 25.7656 5.28226 25.2277 5.22705ZM20.9375 18.75C20.9366 19.4956 20.64 20.2105 20.1127 20.7377C19.5855 21.265 18.8706 21.5616 18.125 21.5625H11.875C11.1294 21.5616 10.4145 21.265 9.88728 20.7377C9.36003 20.2105 9.06342 19.4956 9.0625 18.75V15C9.06479 14.3103 9.32092 13.6456 9.78203 13.1327C10.2431 12.6198 10.8769 12.2946 11.5625 12.2192V10.625C11.5625 9.71332 11.9247 8.83897 12.5693 8.19432C13.214 7.54966 14.0883 7.1875 15 7.1875C15.9117 7.1875 16.786 7.54966 17.4307 8.19432C18.0753 8.83897 18.4375 9.71332 18.4375 10.625V12.2192C19.1231 12.2946 19.7569 12.6198 20.218 13.1327C20.6791 13.6456 20.9352 14.3103 20.9375 15V18.75Z" fill="#2353F5"/>
</g>
</g>
</svg>
