<svg width="34" height="34" viewBox="0 0 34 34" fill="none" xmlns="http://www.w3.org/2000/svg">
<path d="M17.7961 27.6294H17.2686C12.8982 27.6294 8.52827 27.6294 4.15875 27.6294C2.60492 27.6294 1.51209 26.8615 1.15142 25.5114C1.07998 25.2248 1.04491 24.9305 1.04704 24.6352C1.04161 20.0787 1.04161 15.5222 1.04704 10.9657C1.04704 10.8493 1.06194 10.7328 1.07279 10.5879H33.2733V18.6929C29.5474 14.9011 25.3971 14.0777 20.8373 17.1084C18.3073 18.7863 16.0687 22.7366 17.7961 27.6294ZM8.63176 23.824C9.56325 23.824 10.4961 23.8416 11.4276 23.8173C12.1502 23.7996 12.5584 23.2417 12.3699 22.5985C12.2479 22.1786 11.8858 21.9552 11.2852 21.9538C9.52527 21.9538 7.76536 21.9538 6.00544 21.9538C5.88701 21.9536 5.76872 21.9622 5.65156 21.9796C5.42919 22.0057 5.22494 22.1149 5.07982 22.2852C4.93471 22.4555 4.85948 22.6743 4.86923 22.8977C4.86923 23.4543 5.24616 23.8132 5.88613 23.8254C6.79863 23.8362 7.71655 23.824 8.63176 23.824Z" fill="#0095FF"/>
<path d="M33.2833 8.65115H1C1.04746 7.46892 0.978309 6.27585 1.1722 5.13018C1.39456 3.81795 2.57552 3.00135 3.91512 3C12.7581 3 21.6015 3 30.4454 3C31.9626 3 33.1856 4.10911 33.2724 5.61906C33.3294 6.61848 33.2833 7.63007 33.2833 8.65115Z" fill="#0095FF"/>
<path d="M33.2987 24.3369C33.2729 28.3305 30.0771 31.433 26.019 31.4073C22.1928 31.3829 19.0024 28.1151 19.0593 24.2299C19.1217 20.0454 22.6226 17.0999 26.3919 17.188C30.1612 17.276 33.3245 20.495 33.2987 24.3369ZM25.4251 25.4202C25.1987 25.1494 25.0279 24.9232 24.8381 24.7161C24.6482 24.5089 24.4462 24.3098 24.2374 24.1256C24.1536 24.0367 24.0531 23.9651 23.9417 23.915C23.8302 23.8649 23.7099 23.8372 23.5878 23.8334C23.4656 23.8297 23.3438 23.8501 23.2295 23.8934C23.1152 23.9367 23.0106 24.002 22.9215 24.0857C22.8325 24.1693 22.7609 24.2697 22.7107 24.381C22.6605 24.4924 22.6327 24.6125 22.629 24.7345C22.6253 24.8566 22.6457 24.9781 22.689 25.0923C22.7323 25.2065 22.7978 25.311 22.8815 25.3999C23.5229 26.077 24.1832 26.7352 24.8625 27.3717C24.9403 27.4532 25.034 27.5181 25.1377 27.5624C25.2414 27.6068 25.353 27.6297 25.4658 27.6297C25.5786 27.6297 25.6903 27.6068 25.794 27.5624C25.8977 27.5181 25.9913 27.4532 26.0692 27.3717C27.3898 26.0789 28.6969 24.772 29.9904 23.4512C30.3388 23.0951 30.2697 22.5601 29.9117 22.2162C29.5199 21.8397 28.9626 21.8614 28.5314 22.2974C27.5281 23.2995 26.5288 24.3084 25.4251 25.4189V25.4202Z" fill="#0095FF"/>
</svg>
