<svg width="34" height="34" viewBox="0 0 34 34" fill="none" xmlns="http://www.w3.org/2000/svg">
<path d="M7.89742 2.12587C8.34298 2.31759 8.52167 2.67142 8.60595 3.13903C8.88061 4.75463 9.18882 6.36477 9.48924 8.00375H20.8107C21.005 9.80562 21.7892 11.2653 23.2483 12.3183C24.7075 13.3712 26.3212 13.6587 28.1073 13.2722C27.9809 13.9151 27.8615 14.5277 27.7398 15.1426C27.5525 16.0841 27.3598 17.0248 27.1756 17.967C27.0469 18.624 26.7488 18.8742 26.0722 18.8742H11.4673C11.66 19.9333 11.8481 20.9683 12.0416 22.0344H25.1015C25.6602 22.0344 25.7851 22.1591 25.7859 22.7179C25.7859 22.9416 25.7913 23.1653 25.7859 23.3882C25.775 23.6789 25.6251 23.8293 25.3341 23.8558C25.2467 23.8636 25.1593 23.8558 25.0711 23.8558H11.5438C10.7393 23.8558 10.488 23.6508 10.3437 22.8598C9.58521 18.7001 8.82728 14.5402 8.06987 10.38C7.67972 8.24301 7.28957 6.10603 6.88928 3.93242H6.58261C5.31695 3.93242 4.05131 3.93242 2.78566 3.93242C2.36898 3.93242 2.22305 3.78979 2.21525 3.37907C2.21135 3.19437 2.22617 3.0081 2.21135 2.82495C2.1895 2.54984 2.24724 2.31136 2.4626 2.12354L7.89742 2.12587Z" fill="#4429FF"/>
<path d="M31.2281 7.56269C31.2277 8.15907 31.1095 8.74951 30.8804 9.30023C30.6512 9.85094 30.3156 10.3511 29.8927 10.7721C29.4698 11.1932 28.9679 11.5267 28.4158 11.7538C27.8636 11.9809 27.2721 12.0969 26.675 12.0954C24.1718 12.0868 22.1539 10.0434 22.1602 7.52295C22.1664 5.04227 24.228 3.0027 26.7156 3.02063C27.9164 3.02722 29.0657 3.50899 29.9115 4.36037C30.7573 5.21175 31.2308 6.3633 31.2281 7.56269ZM27.5958 7.11067V6.79113C27.5958 6.31417 27.5997 5.83799 27.5958 5.3618C27.5958 5.02122 27.4397 4.86379 27.0979 4.856C26.8256 4.84977 26.5517 4.84899 26.2802 4.856C25.9681 4.86379 25.7987 5.01187 25.7948 5.31816C25.7839 6.22221 25.7769 7.12626 25.7948 8.03031C25.7944 8.25748 25.8832 8.47576 26.0423 8.63813C26.2014 8.80051 26.4179 8.89401 26.6454 8.89851C27.2579 8.90942 27.872 8.90552 28.4853 8.89851C28.7764 8.89851 28.9348 8.73874 28.9449 8.4496C28.9543 8.18774 28.9504 7.92509 28.9449 7.66245C28.9402 7.26108 28.8021 7.1169 28.4034 7.10911C28.1482 7.10521 27.8876 7.11067 27.5958 7.11067Z" fill="#4429FF"/>
<path d="M12.1852 32.0002C11.3446 32.0012 10.538 31.6691 9.94227 31.0768C9.34657 30.4844 9.0105 29.6802 9.00781 28.8407C9.01001 28.0011 9.34292 27.1962 9.93457 26.5999C10.5262 26.0035 11.3291 25.6637 12.1696 25.6539C13.9144 25.6406 15.3688 27.0918 15.3688 28.8391C15.3643 29.6793 15.0268 30.4835 14.4302 31.0759C13.8336 31.6683 13.0264 32.0006 12.1852 32.0002ZM12.1735 27.4893C11.996 27.4898 11.8202 27.5252 11.6564 27.5936C11.4926 27.6619 11.3439 27.7619 11.2187 27.8877C11.0936 28.0135 10.9945 28.1626 10.9271 28.3267C10.8597 28.4907 10.8253 28.6665 10.8259 28.8438C10.834 29.202 10.9816 29.5429 11.2373 29.7942C11.493 30.0455 11.8366 30.1874 12.1953 30.1897C12.5538 30.1832 12.8953 30.0362 13.1462 29.7805C13.3971 29.5248 13.5374 29.1808 13.5367 28.8227C13.5367 28.6452 13.5013 28.4695 13.4324 28.3059C13.3636 28.1422 13.2627 27.994 13.1358 27.8698C13.0088 27.7456 12.8583 27.648 12.693 27.5826C12.5278 27.5173 12.3512 27.4855 12.1735 27.4893Z" fill="#4429FF"/>
<path d="M23.0555 31.9999C22.2148 31.9966 21.4095 31.6615 20.8152 31.0676C20.2208 30.4737 19.8857 29.6692 19.8828 28.8295C19.8899 27.9897 20.2269 27.1863 20.8211 26.5922C21.4154 25.9981 22.2194 25.6608 23.0602 25.6528C23.906 25.6559 24.716 25.9942 25.3124 26.5933C25.9087 27.1924 26.2426 28.0034 26.2407 28.8482C26.2391 29.2641 26.1554 29.6756 25.9944 30.0592C25.8333 30.4428 25.5982 30.7909 25.3024 31.0836C25.0065 31.3763 24.6558 31.6079 24.2703 31.7651C23.8848 31.9224 23.472 32.0021 23.0555 31.9999ZM21.7157 28.7975C21.706 29.1556 21.8382 29.5029 22.0835 29.7642C22.3289 30.0254 22.6675 30.1793 23.0259 30.1926C23.7539 30.2214 24.3883 29.6236 24.4234 28.8762C24.457 28.1592 23.8647 27.5241 23.1343 27.4944C22.354 27.4602 21.7423 28.0221 21.7157 28.7975Z" fill="#4429FF"/>
</svg>
