<svg width="34" height="34" viewBox="0 0 34 34" fill="none" xmlns="http://www.w3.org/2000/svg">
<path d="M28.9855 1.51855C29.2081 1.69871 29.2723 1.93486 29.252 2.21403C29.2357 2.44531 29.252 2.67984 29.2398 2.91112C29.2211 3.18217 29.0635 3.33554 28.7881 3.34285C28.4972 3.35015 28.2063 3.34285 27.8837 3.34285C27.8837 3.6496 27.8748 3.92065 27.891 4.19007C27.8998 4.22891 27.9174 4.26522 27.9425 4.29618C27.9676 4.32713 27.9995 4.35192 28.0357 4.36861C28.6247 4.59664 29.2187 4.81413 29.9182 5.07463C30.0556 4.92774 30.2693 4.68834 30.4951 4.46274C30.7779 4.18033 30.9956 4.18115 31.2792 4.45463C31.4685 4.63722 31.657 4.82143 31.8366 5.01376C32.0527 5.24505 32.0584 5.4812 31.8366 5.71167C31.6148 5.94214 31.358 6.17586 31.1695 6.36088C31.4133 6.98656 31.6928 7.53921 31.8439 8.12512C32.5825 10.993 30.5634 13.9161 27.6189 14.2797C24.8011 14.6286 22.3189 12.7175 21.9402 9.90478C21.6152 7.48808 23.2183 5.07382 25.6014 4.45544C25.9784 4.35806 26.0661 4.20143 26.028 3.86709C26.0189 3.69408 26.0189 3.52072 26.028 3.34772C25.7265 3.34772 25.4592 3.35259 25.1862 3.34772C24.8279 3.3396 24.6719 3.18541 24.667 2.82591C24.667 2.59382 24.68 2.3601 24.6621 2.128C24.641 1.85615 24.7345 1.65651 24.9693 1.52099L28.9855 1.51855ZM26.9607 6.09958C26.3286 6.09766 25.7101 6.28288 25.1834 6.63183C24.6566 6.98078 24.2452 7.47781 24.0011 8.06015C23.757 8.6425 23.6912 9.28403 23.8119 9.90373C23.9326 10.5234 24.2345 11.0935 24.6794 11.542C25.1243 11.9904 25.6923 12.2971 26.3116 12.4233C26.9309 12.5496 27.5738 12.4897 28.1591 12.2512C28.7443 12.0127 29.2457 11.6063 29.5999 11.0834C29.9541 10.5605 30.1452 9.9445 30.149 9.31319C30.151 8.46534 29.8166 7.65123 29.2191 7.04898C28.6216 6.44673 27.8096 6.10537 26.9607 6.09958Z" fill="#FF6921"/>
<path d="M11.1198 19.369C11.3035 20.394 11.4757 21.3783 11.6634 22.3603C11.678 22.4325 11.7958 22.5023 11.8803 22.5388C11.9486 22.568 12.0428 22.5453 12.1241 22.5453H24.865C25.4598 22.5453 25.5817 22.6646 25.5817 23.2464C25.5817 23.4591 25.5817 23.6717 25.5817 23.8843C25.5735 24.2089 25.4192 24.3663 25.1031 24.3955C25.0129 24.4045 24.9211 24.3996 24.8293 24.3996H11.2011C10.4 24.3996 10.1196 24.1846 9.97502 23.4031C9.47452 20.6823 8.97888 17.9602 8.48813 15.2368C8.01362 12.6237 7.53857 10.0106 7.06299 7.39749C6.88992 6.44395 6.70873 5.49123 6.54623 4.53607C6.50967 4.32183 6.42842 4.25691 6.21311 4.25853C4.95616 4.26908 3.6992 4.26421 2.44225 4.2634C1.8735 4.2634 1.75406 4.13681 1.75325 3.56063C1.75325 3.35856 1.74594 3.15487 1.75325 2.95361C1.77031 2.59979 1.93769 2.43343 2.28626 2.43262C3.93836 2.43262 5.59046 2.43262 7.24256 2.43262C7.74469 2.43262 8.07944 2.73531 8.17531 3.2555C8.48136 4.92398 8.78632 6.593 9.0902 8.26256C9.10063 8.30213 9.1131 8.34114 9.12757 8.37942H20.5994C20.3743 10.4342 20.9049 12.2268 22.3194 13.7046C23.734 15.1824 25.4793 15.7967 27.5317 15.6701C27.3196 16.7048 27.1254 17.7046 26.9044 18.6987C26.8159 19.0971 26.4811 19.3292 26.0578 19.3641C25.9465 19.3731 25.8352 19.3682 25.723 19.3682H11.1198V19.369Z" fill="#FF6921"/>
<path d="M22.8305 32.6184C21.9813 32.618 21.1668 32.2816 20.5653 31.6828C19.9638 31.084 19.6243 30.2716 19.6211 29.4234C19.6211 27.6511 21.0836 26.1912 22.85 26.2106C24.6164 26.2301 26.0578 27.6714 26.0497 29.4275C26.0428 30.2759 25.7007 31.0872 25.0977 31.6848C24.4948 32.2824 23.6799 32.618 22.8305 32.6184ZM22.8305 28.0577C22.6506 28.0568 22.4723 28.0916 22.306 28.1601C22.1397 28.2287 21.9886 28.3295 21.8616 28.4568C21.7346 28.5841 21.6342 28.7353 21.5662 28.9016C21.4982 29.068 21.464 29.2462 21.4655 29.4259C21.461 29.6074 21.493 29.7881 21.5595 29.9571C21.626 30.1261 21.7257 30.2802 21.8527 30.4102C21.9797 30.5402 22.1315 30.6435 22.299 30.714C22.4666 30.7845 22.6466 30.8208 22.8285 30.8208C23.0103 30.8208 23.1903 30.7845 23.3579 30.714C23.5255 30.6435 23.6772 30.5402 23.8042 30.4102C23.9312 30.2802 24.0309 30.1261 24.0974 29.9571C24.1639 29.7881 24.1959 29.6074 24.1915 29.4259C24.1953 29.246 24.1628 29.0671 24.0959 28.9C24.0291 28.733 23.9292 28.581 23.8022 28.4533C23.6753 28.3256 23.5239 28.2248 23.3571 28.1568C23.1903 28.0888 23.0115 28.0551 22.8313 28.0577H22.8305Z" fill="#FF6921"/>
<path d="M11.8553 32.6183C11.0059 32.6188 10.1907 32.2841 9.58712 31.6871C8.98359 31.09 8.64063 30.2791 8.63292 29.4307C8.61829 27.6737 10.1011 26.1944 11.8602 26.2106C12.7114 26.2112 13.5275 26.5496 14.1289 27.1512C14.7303 27.7528 15.0678 28.5684 15.0672 29.4185C15.0665 30.2687 14.7278 31.0837 14.1254 31.6844C13.5231 32.2851 12.7065 32.6222 11.8553 32.6216V32.6183ZM11.8553 28.0576C11.6746 28.0541 11.495 28.087 11.3273 28.1546C11.1596 28.2221 11.0073 28.3228 10.8796 28.4506C10.7519 28.5784 10.6514 28.7307 10.584 28.8983C10.5167 29.0658 10.484 29.2453 10.4879 29.4258C10.488 29.6056 10.5236 29.7835 10.5926 29.9495C10.6617 30.1155 10.7629 30.2662 10.8904 30.3931C11.0178 30.5199 11.1691 30.6204 11.3355 30.6888C11.502 30.7572 11.6803 30.7921 11.8602 30.7916C12.2198 30.7851 12.5626 30.6387 12.8159 30.3837C13.0691 30.1286 13.2127 29.785 13.2163 29.4258C13.2169 29.2462 13.182 29.0682 13.1135 28.902C13.0451 28.7359 12.9444 28.5849 12.8173 28.4578C12.6903 28.3306 12.5393 28.2298 12.3731 28.1611C12.2069 28.0925 12.0287 28.0573 11.8488 28.0576H11.8553Z" fill="#FF6921"/>
<path d="M27.8772 8.83395C27.8772 9.11717 27.8829 9.40201 27.8772 9.68361C27.8691 10.0342 27.7001 10.1997 27.3507 10.2062C27.0777 10.2111 26.8038 10.2119 26.53 10.2062C26.2237 10.1989 26.0425 10.052 26.036 9.74934C26.0192 9.14287 26.0192 8.53639 26.036 7.92992C26.0442 7.62479 26.2188 7.4779 26.5235 7.46898C26.8063 7.46086 27.0923 7.46086 27.3734 7.46898C27.7025 7.4779 27.8658 7.64751 27.8747 7.9851C27.8837 8.26751 27.8772 8.55073 27.8772 8.83395Z" fill="#FF6921"/>
</svg>
