<svg width="34" height="34" viewBox="0 0 34 34" fill="none" xmlns="http://www.w3.org/2000/svg">
<path d="M22.0696 1.00098C22.3632 1.0608 22.6584 1.11659 22.952 1.18127C24.4129 1.50928 25.7362 2.28197 26.7395 3.39295C27.7429 4.50392 28.377 5.89851 28.5545 7.38468C28.7847 9.25745 28.2773 11.1463 27.1395 12.6519C26.0018 14.1575 24.3229 15.1618 22.4579 15.4524C18.5951 16.0774 14.8916 13.4312 14.1928 9.55058C14.0213 8.59623 14.0423 7.61723 14.2547 6.67111C14.467 5.725 14.8664 4.83085 15.4293 4.0412C15.9922 3.25155 16.7074 2.58234 17.5327 2.07288C18.358 1.56342 19.2769 1.224 20.2353 1.07455C20.3631 1.05434 20.4893 1.02604 20.6162 1.00179L22.0696 1.00098ZM21.2511 13.3601C21.4805 13.3629 21.7015 13.2747 21.8659 13.1148C22.0303 12.9549 22.1245 12.7364 22.1279 12.5072C22.1279 12.3034 22.1982 12.2145 22.3802 12.1288C22.9033 11.89 23.3333 11.486 23.6041 10.9789C23.8749 10.4719 23.9715 9.88989 23.8789 9.32259C23.7171 8.34757 23.1057 7.74041 22.195 7.40327C21.7597 7.24777 21.3327 7.07021 20.9155 6.8713C20.7893 6.80905 20.6316 6.59803 20.6543 6.49212C20.7079 6.30688 20.8295 6.14868 20.9948 6.04908C21.1599 5.9743 21.3454 5.95749 21.5213 6.00138C21.7838 6.06607 22.0389 6.15792 22.2823 6.27545C22.7676 6.49293 23.2772 6.3563 23.5166 5.92781C23.756 5.49932 23.6144 4.97381 23.1567 4.70378C22.9322 4.56968 22.6945 4.45914 22.4473 4.37393C22.2508 4.30763 22.1416 4.22921 22.0907 4.00688C22.0474 3.80212 21.9304 3.62036 21.7619 3.49608C21.5935 3.3718 21.3852 3.31363 21.1767 3.33261C20.9734 3.34117 20.7797 3.42148 20.63 3.55928C20.4803 3.69708 20.3843 3.88345 20.3591 4.0853C20.3512 4.16295 20.3224 4.23701 20.2756 4.29953C20.2289 4.36205 20.166 4.41069 20.0938 4.44022C19.285 4.85497 18.8879 5.53893 18.8426 6.43149C18.7981 7.30302 19.1717 7.96193 19.9361 8.36455C20.4593 8.64024 21.0117 8.86176 21.5536 9.09217C21.9645 9.26599 22.1416 9.46973 22.1085 9.78422C22.0917 9.98176 22.0079 10.1676 21.8709 10.311C21.734 10.4544 21.5521 10.5466 21.3555 10.5725C20.884 10.6258 20.444 10.5587 20.0283 10.2879C19.928 10.2192 19.8146 10.172 19.6952 10.1492C19.5758 10.1264 19.453 10.1285 19.3345 10.1554C19.2159 10.1823 19.1042 10.2333 19.0064 10.3054C18.9085 10.3774 18.8266 10.4689 18.7657 10.5741C18.6444 10.7813 18.6103 11.0281 18.671 11.2603C18.7317 11.4926 18.8821 11.6913 19.0893 11.8127C19.4022 11.9926 19.7305 12.1444 20.0703 12.2662C20.2393 12.3293 20.3267 12.3924 20.355 12.584C20.4318 13.0658 20.7901 13.365 21.2511 13.3601Z" fill="#00AD66"/>
<path d="M1 11.4098C1.22323 10.9094 1.60498 10.7275 2.15414 10.7372C3.65445 10.7614 5.15556 10.7445 6.65587 10.7461C7.26488 10.7461 7.66443 11.1155 7.65796 11.6669C7.65149 12.2013 7.25356 12.5562 6.65668 12.5562C5.16608 12.5562 3.67467 12.5393 2.18407 12.5651C1.62924 12.574 1.22808 12.4099 1 11.8917V11.4098Z" fill="#00AD66"/>
<path d="M11.1224 22.4674L8.52859 7.77825H5.93157C5.4463 7.77825 4.96102 7.77825 4.47575 7.77825C3.93629 7.7734 3.54564 7.3918 3.54321 6.8768C3.54036 6.75541 3.56241 6.63472 3.608 6.52218C3.65359 6.40963 3.72175 6.3076 3.80828 6.22239C3.89482 6.13718 3.99789 6.07058 4.11115 6.0267C4.22442 5.98283 4.34547 5.9626 4.46685 5.96727C6.06125 5.96404 7.65537 5.96404 9.24923 5.96727C9.76442 5.96727 10.1065 6.25185 10.1979 6.75876C10.4236 8.01675 10.6428 9.27554 10.866 10.5335C10.8814 10.6208 10.9072 10.7057 10.9315 10.8076C11.3893 10.8076 11.8333 10.8254 12.2749 10.8011C12.5402 10.7858 12.6477 10.8698 12.74 11.1245C13.9531 14.4829 16.3253 16.5591 19.833 17.1994C24.2215 18.0006 28.5308 15.3714 29.9429 11.1358C30.0238 10.8933 30.12 10.7631 30.3991 10.8011C30.6101 10.8164 30.8219 10.8183 31.0331 10.8068C31.6923 10.8116 32.1096 11.3072 31.977 11.9459C31.5111 14.1919 31.0423 16.4365 30.5705 18.6797C30.2411 20.2546 29.9111 21.8298 29.5806 23.4052C29.4544 24.0019 29.1559 24.2388 28.5453 24.2388H11.8697C11.3165 24.2388 10.9436 24.4595 10.7714 24.8855C10.5045 25.5412 10.9541 26.2422 11.6796 26.2987C11.7896 26.3076 11.9012 26.2987 12.012 26.2987H28.1134C28.8413 26.2987 29.2999 26.9455 29.0185 27.5664C28.9523 27.732 28.8366 27.8731 28.6872 27.9705C28.5378 28.0678 28.362 28.1168 28.1838 28.1105C27.6298 28.1105 27.0757 28.1105 26.508 28.1105C26.9124 29.548 26.5694 30.7235 25.3223 31.5554C24.372 32.1901 23.0997 32.1262 22.168 31.4536C21.136 30.709 20.7931 29.6086 21.1417 28.1283H17.7949C18.1896 29.5132 17.8677 30.6702 16.6755 31.5118C16.2114 31.8324 15.6601 32.0028 15.096 32.0001C14.5319 31.9973 13.9822 31.8215 13.5212 31.4964C12.3461 30.6532 12.0331 29.5035 12.4237 28.1364C12.0112 28.1113 11.5947 28.1251 11.1935 28.0556C9.9286 27.8292 8.95967 26.7515 8.8796 25.5258C8.79064 24.1514 9.58325 22.9646 10.8717 22.5523L11.1224 22.4674Z" fill="#00AD66"/>
<path d="M5.29116 15.948C4.66678 15.948 4.04239 15.948 3.418 15.948C2.85185 15.948 2.45717 15.5753 2.45312 15.0514C2.45312 14.513 2.847 14.137 3.42933 14.1362C4.6781 14.1362 5.92687 14.1362 7.17564 14.1362C7.74179 14.1362 8.13729 14.5073 8.14134 15.032C8.14134 15.5721 7.74827 15.9464 7.16432 15.948C6.53994 15.9496 5.91555 15.948 5.29116 15.948Z" fill="#00AD66"/>
<path d="M6.27923 19.3333C5.79396 19.3333 5.31273 19.3373 4.82988 19.3333C4.29527 19.3276 3.90625 18.9411 3.90625 18.4261C3.90625 17.9112 4.2977 17.5247 4.83312 17.5223C5.8096 17.518 6.78607 17.518 7.76255 17.5223C8.29797 17.5223 8.687 17.9136 8.68619 18.4294C8.68538 18.9452 8.29636 19.3333 7.75932 19.3333C7.26596 19.3405 6.7726 19.3333 6.27923 19.3333Z" fill="#00AD66"/>
</svg>
