<svg width="34" height="34" viewBox="0 0 34 34" fill="none" xmlns="http://www.w3.org/2000/svg">
<path d="M21.661 0.75H22.4802C22.6394 0.793834 22.8004 0.835949 22.957 0.883221C23.7599 1.14107 24.3226 1.67051 24.7331 2.39076C26.0368 4.677 27.3491 6.95722 28.6451 9.24775C28.6989 9.35776 28.7801 9.45212 28.8809 9.5218C28.9817 9.59148 29.0988 9.63414 29.2208 9.6457C30.3395 9.81759 31.3928 10.9134 31.4815 12.0428C31.5443 12.8473 31.5331 13.6569 31.5417 14.4648C31.5494 15.1524 31.262 15.43 30.5641 15.43C28.9902 15.43 27.4163 15.43 25.8415 15.43C25.5168 15.4255 25.1922 15.4465 24.8708 15.4928C22.4914 15.8787 20.8504 17.2178 20.1138 19.4963C19.3772 21.7748 19.9262 23.8126 21.6214 25.5024C22.7694 26.6472 24.203 27.1474 25.8105 27.1535C27.418 27.1595 29.0427 27.1535 30.6588 27.1535C31.2474 27.1535 31.5365 27.4345 31.5425 28.0129C31.5494 28.6851 31.5563 29.3572 31.5425 30.0293C31.5185 31.0306 31.1476 31.8832 30.3059 32.4505C29.9265 32.7083 29.46 32.8338 29.0332 33.0195H3.26793C2.99256 32.9266 2.70083 32.8665 2.44353 32.7367C1.31881 32.1686 0.750861 31.2412 0.75 29.9786C0.75 24.1805 0.75 18.3824 0.75 12.5843C0.75 12.5207 0.75 12.4579 0.75 12.3952C0.803353 10.8791 1.95992 9.66117 3.47188 9.57522C4.27735 9.52966 5.0871 9.56061 5.89428 9.53482C6.10022 9.52989 6.30201 9.47597 6.4829 9.37753C10.2916 7.16865 14.0874 4.93742 17.9031 2.74143C19.1328 2.03923 20.2816 1.17459 21.661 0.75ZM9.2693 9.48153L9.29857 9.54771C10.1049 9.54771 10.9121 9.55631 11.7184 9.54084C11.9142 9.53674 12.1061 9.48543 12.2777 9.39129C15.8679 7.30961 19.4534 5.22277 23.0344 3.13078C23.1317 3.07405 23.2255 3.01045 23.3262 2.94685C23.2926 2.88755 23.2754 2.84973 23.2513 2.81621C22.7788 2.17675 22.0104 2.05642 21.2359 2.50765C17.679 4.57902 14.1201 6.65153 10.5592 8.72518C10.129 8.97616 9.69813 9.22827 9.26672 9.48153H9.2693ZM27.1117 9.52623C26.5747 8.58595 26.0618 7.68864 25.5351 6.76813L20.8883 9.47466L20.9055 9.52623H27.1117Z" fill="#1570EF"/>
<path d="M32.9969 23.8838C32.8248 24.3677 32.6278 24.8292 32.2087 25.173C31.7824 25.5205 31.2469 25.7065 30.6967 25.6981C29.0282 25.705 27.3604 25.7162 25.6927 25.6981C23.4183 25.6715 21.6396 24.0995 21.298 21.8468C20.9538 19.5709 22.6688 17.2709 24.9587 16.9537C25.2909 16.9112 25.6255 16.8905 25.9603 16.8918C27.5024 16.8858 29.0445 16.8918 30.5866 16.8918C31.8378 16.8918 32.5598 17.4187 32.9419 18.6065C32.9576 18.645 32.976 18.6823 32.9969 18.7182V23.8838ZM24.2195 21.2778C24.2165 21.6643 24.3669 22.0362 24.6379 22.3122C24.9089 22.5881 25.2782 22.7456 25.6652 22.7501C26.0521 22.7432 26.4211 22.5862 26.6941 22.3124C26.9671 22.0386 27.1228 21.6694 27.1281 21.283C27.1236 20.9014 26.9699 20.5367 26.6997 20.2669C26.4296 19.997 26.0644 19.8435 25.6824 19.839C25.491 19.8349 25.3008 19.8691 25.1229 19.9397C24.945 20.0102 24.7831 20.1157 24.6467 20.2498C24.5103 20.3839 24.4022 20.544 24.3289 20.7206C24.2555 20.8972 24.2183 21.0866 24.2195 21.2778Z" fill="#1570EF"/>
</svg>
