<svg width="34" height="34" viewBox="0 0 34 34" fill="none" xmlns="http://www.w3.org/2000/svg">
<path d="M31.9749 21.2732C31.8795 21.7175 31.806 22.1689 31.684 22.6055C31.2585 24.1299 30.3867 25.4926 29.1806 26.5189C27.9745 27.5452 26.4889 28.1883 24.9144 28.3657C20.7429 28.8405 16.9124 25.9666 16.2275 21.8495C15.4956 17.4442 18.4833 13.3208 22.8736 12.6773C27.1224 12.0526 31.1132 14.9561 31.8654 19.2138C31.8967 19.3934 31.9381 19.5715 31.9749 19.7503V21.2732ZM23.1395 16.2751C23.019 16.3282 22.9291 16.3657 22.8416 16.4079C21.8486 16.8905 21.2418 18.0315 21.4154 19.0896C21.6398 20.4571 22.6203 21.3247 24.0214 21.3927C24.4124 21.4114 24.6892 21.5918 24.8338 21.9542C24.9014 22.1076 24.9205 22.2779 24.8885 22.4425C24.8565 22.607 24.7749 22.7579 24.6548 22.8749C24.3874 23.1592 24.0355 23.2529 23.6946 23.0803C23.3899 22.9138 23.109 22.7071 22.8596 22.4657C22.4874 22.1267 21.9697 22.0854 21.6202 22.4063C21.5337 22.4824 21.4635 22.5753 21.4138 22.6793C21.3642 22.7832 21.3361 22.8962 21.3314 23.0112C21.3266 23.1263 21.3453 23.2412 21.3862 23.3489C21.4271 23.4566 21.4894 23.5549 21.5694 23.6379C21.8156 23.9007 22.0852 24.1406 22.3748 24.3548C22.6093 24.5305 22.9901 24.5992 23.1066 24.8233C23.2356 25.0678 23.1332 25.4325 23.1402 25.7441C23.152 26.2618 23.5312 26.6586 24.0082 26.6656C24.4851 26.6726 24.8839 26.2697 24.8956 25.7347C24.9019 25.4809 24.9065 25.2263 24.8956 24.9733C24.8878 24.8171 24.941 24.739 25.0887 24.6703C26.2467 24.1236 26.8316 22.9725 26.5947 21.7371C26.3703 20.5656 25.3303 19.7003 24.0731 19.6394C23.611 19.6168 23.3303 19.4278 23.1926 19.0475C23.1345 18.886 23.1253 18.711 23.1662 18.5443C23.2071 18.3776 23.2962 18.2267 23.4225 18.1103C23.7095 17.8472 24.1215 17.798 24.5101 18.0073C24.6917 18.1199 24.8647 18.2457 25.0278 18.3837C25.2028 18.5184 25.4227 18.5816 25.6427 18.5604C25.8628 18.5391 26.0664 18.435 26.2124 18.2692C26.3584 18.1034 26.4358 17.8884 26.4288 17.6677C26.4218 17.447 26.331 17.2373 26.1748 17.0811C26.0135 16.9256 25.8378 16.7857 25.6501 16.6633C25.4054 16.5016 25.0426 16.4196 24.9222 16.1994C24.7947 15.9651 24.8956 15.6098 24.8909 15.3068C24.8808 14.7663 24.507 14.3696 24.016 14.3626C23.5249 14.3556 23.1434 14.764 23.1348 15.2997C23.1317 15.6215 23.1363 15.9432 23.1363 16.2728L23.1395 16.2751Z" fill="#EE11E5"/>
<path d="M12.6016 31.9914V9.03162H12.2818C11.521 9.03162 10.7602 9.03162 10.0002 9.03162C9.5803 9.03162 9.28005 8.82389 9.1401 8.45294C9.0738 8.28201 9.064 8.09437 9.11211 7.91747C9.16022 7.74057 9.26374 7.58368 9.40752 7.46973C11.4483 5.71469 13.4914 3.96303 15.5368 2.21476C15.6454 2.13468 15.7599 2.06289 15.8793 2H16.3484C16.8629 2.41234 17.3891 2.81296 17.8911 3.24014C19.5096 4.61851 21.118 6.00781 22.7349 7.38851C23.0321 7.64232 23.2041 7.9422 23.1188 8.3358C23.0918 8.49109 23.0204 8.63529 22.9134 8.75109C22.8063 8.86689 22.6681 8.94938 22.5152 8.98867C22.3926 9.01765 22.2666 9.03026 22.1407 9.02616C21.3134 9.02616 20.487 9.02616 19.6246 9.02616V10.3249C19.6246 10.7638 19.6152 11.2034 19.6292 11.6423C19.6355 11.8415 19.5714 11.9445 19.3947 12.0468C16.6838 13.5939 15.0012 15.8961 14.4914 18.9801C13.8237 23.0191 15.7847 26.9715 19.3728 28.9519C19.5769 29.0644 19.6386 29.1862 19.6316 29.4049C19.6152 29.8821 19.6034 30.3623 19.6316 30.8387C19.6644 31.376 19.4869 31.7665 18.9826 31.9867L12.6016 31.9914Z" fill="#EE11E5"/>
<path d="M7.33203 31.9913C7.33203 26.4669 7.33203 20.9425 7.33203 15.4181C7.33203 14.6825 7.6448 14.3631 8.37352 14.3623H10.8506V31.9913H7.33203Z" fill="#EE11E5"/>
<path d="M2.65135 31.9914C2.16892 31.7727 1.99691 31.4041 2.00004 30.873C2.01803 28.0531 2.00863 25.2331 2.00863 22.4131C2.00863 21.7219 2.33703 21.3916 3.0251 21.3916H5.52014V31.9914H2.65135Z" fill="#EE11E5"/>
</svg>
