<svg width="34" height="34" viewBox="0 0 34 34" fill="none" xmlns="http://www.w3.org/2000/svg">
<path d="M6.33766 10.8508C6.1892 10.812 6.06962 10.7831 5.95105 10.7513C5.26952 10.5582 4.87098 9.95516 4.93674 9.21574C4.97219 8.89259 5.12061 8.59228 5.3559 8.36766C5.59118 8.14303 5.89824 8.00849 6.22306 7.98771C6.34661 7.97775 6.47116 7.97676 6.59471 7.97676C13.493 7.97676 20.3906 7.97676 27.2876 7.97676C27.5575 7.96833 27.827 8.00533 28.0847 8.08623C28.6696 8.29522 28.9884 8.85251 28.9526 9.50136C28.9329 9.78763 28.8251 10.0609 28.6441 10.2837C28.4631 10.5065 28.2176 10.6681 27.9412 10.7463C27.8226 10.7802 27.7011 10.807 27.5476 10.8458V11.3225C27.5476 17.194 27.5493 23.0655 27.5526 28.937C27.5526 29.9461 27.2428 30.786 26.4337 31.41C25.9743 31.7782 25.4035 31.9799 24.8146 31.9822C24.3164 31.9822 23.8262 31.9822 23.2941 31.9822V10.8379H20.4952V31.9902H20.1077C16.5207 31.9902 12.9247 31.9693 9.33376 32.0001C7.74752 32.0131 6.63457 30.9552 6.39743 29.759C6.34689 29.4532 6.32622 29.1433 6.33566 28.8335C6.33168 22.9998 6.33168 17.1658 6.33566 11.3315L6.33766 10.8508Z" fill="#0469F7"/>
<path d="M30.3569 13.5866V5.18341H3.53433V13.5866C3.61603 13.6075 3.70769 13.6364 3.80036 13.6563C4.14367 13.7295 4.44797 13.9264 4.65511 14.2095C4.86226 14.4925 4.95772 14.8419 4.92328 15.1908C4.87886 15.5512 4.70067 15.8819 4.42392 16.1174C4.14718 16.3529 3.79203 16.4761 3.42871 16.4627C1.88133 16.392 0.69563 15.1878 0.688655 13.6384C0.676698 10.8081 0.676698 7.97785 0.688655 5.14759C0.69563 3.56925 1.88432 2.36708 3.4596 2.33524C4.54068 2.31335 5.62275 2.32728 6.70383 2.32728C14.5082 2.32728 22.3132 2.32496 30.1188 2.32031C31.3972 2.32031 32.3667 2.79202 32.9326 3.95139C33.0962 4.28484 33.185 4.64994 33.1926 5.0212C33.2139 7.94036 33.2159 10.8572 33.1986 13.7717C33.1887 15.2436 31.8246 16.5134 30.3669 16.4647C30.0157 16.4557 29.6798 16.3196 29.4216 16.0815C29.1635 15.8435 29.0009 15.5199 28.964 15.1709C28.9337 14.8215 29.0341 14.4733 29.2457 14.1934C29.4573 13.9136 29.7651 13.7219 30.1098 13.6553C30.1866 13.6364 30.2693 13.6095 30.3569 13.5866Z" fill="#0469F7"/>
</svg>
