<svg width="34" height="34" viewBox="0 0 34 34" fill="none" xmlns="http://www.w3.org/2000/svg">
<path d="M13.382 13.8651C13.0888 14.8882 12.8007 15.8843 12.5202 16.8771C12.2507 17.8337 12.8134 18.728 13.7939 18.8727C14.0123 18.8971 14.2333 18.8765 14.4433 18.8122C15.5544 18.5051 16.6663 18.2005 17.7648 17.853C18.0908 17.7461 18.3887 17.5676 18.6366 17.3306C19.7468 16.2579 20.8267 15.1532 21.9277 14.0713C22.0512 13.9542 22.2119 13.8843 22.3817 13.8735C25.2721 13.8618 28.1622 13.8592 31.0521 13.866C31.9551 13.866 32.6054 14.5104 32.6054 15.409C32.6054 20.0913 32.6054 24.7747 32.6054 29.4592C32.6054 30.3535 31.9492 30.9988 31.047 30.9997H3.90293C2.98729 30.9997 2.34375 30.3519 2.34375 29.4289C2.34375 24.7679 2.34375 20.1067 2.34375 15.4452C2.34375 14.5054 2.98561 13.8693 3.92821 13.8685C6.97585 13.8685 10.0235 13.8685 13.0711 13.8685L13.382 13.8651ZM25.0065 20.9163C26.3093 20.9163 27.6119 20.9163 28.9142 20.9163C29.3977 20.9163 29.5754 20.7346 29.578 20.2475C29.578 19.6703 29.5822 19.0932 29.578 18.516C29.578 18.0953 29.3826 17.8959 28.9614 17.8959C26.3456 17.8926 23.73 17.8926 21.1148 17.8959C20.6936 17.8959 20.5024 18.097 20.4999 18.5177C20.4999 19.0839 20.4999 19.651 20.4999 20.2172C20.4999 20.7464 20.6684 20.9155 21.1957 20.9163C22.4676 20.9175 23.7387 20.9175 25.009 20.9163H25.0065ZM6.3761 19.9067C6.37261 19.6524 6.4674 19.4065 6.64076 19.2202C6.81411 19.0339 7.05271 18.9215 7.30691 18.9064C7.89656 18.8761 8.33794 19.2597 8.39101 19.8478C8.42555 20.2222 8.62604 20.4317 8.93013 20.4098C9.25023 20.3871 9.43555 20.128 9.39427 19.7519C9.31846 19.0991 9.03459 18.5404 8.44999 18.2375C8.04735 18.0297 7.80726 17.8387 7.86791 17.3424C7.90076 17.0748 7.6211 16.8771 7.3625 16.8872C7.23472 16.8925 7.11369 16.9459 7.02381 17.0368C6.93392 17.1276 6.88187 17.2492 6.87814 17.3768C6.86677 17.5022 6.86677 17.6284 6.87814 17.7538C6.89415 17.922 6.82508 17.9834 6.67261 18.0449C5.77382 18.41 5.2406 19.301 5.38464 20.1608C5.5607 21.1982 6.31714 21.8696 7.37346 21.9276C7.98585 21.9604 8.39101 22.3643 8.38848 22.9372C8.38998 23.1954 8.29088 23.444 8.11214 23.6306C7.93341 23.8171 7.68905 23.9269 7.43073 23.9367C6.84951 23.9544 6.43001 23.5657 6.37863 22.9608C6.34662 22.5906 6.14445 22.3962 5.82182 22.4257C5.52194 22.4526 5.34422 22.6781 5.3737 23.0314C5.43014 23.7121 5.72074 24.2934 6.32639 24.6056C6.73409 24.8167 6.95817 25.0153 6.8992 25.5058C6.86719 25.7725 7.09801 25.9433 7.37346 25.9492C7.64891 25.9551 7.82833 25.8011 7.87887 25.5285C7.89725 25.4145 7.90092 25.2985 7.88981 25.1836C7.87128 24.9724 7.92857 24.8571 8.15348 24.7688C8.57747 24.6033 8.93023 24.295 9.1508 23.8973C9.37136 23.4996 9.44586 23.0374 9.36141 22.5906C9.17356 21.613 8.40787 20.9609 7.3962 20.918C6.79223 20.8919 6.37779 20.4805 6.37863 19.9059L6.3761 19.9067ZM18.485 22.9355C16.3415 22.9355 14.1977 22.9355 12.0536 22.9355C11.6467 22.9355 11.4252 23.1139 11.4218 23.4336C11.4184 23.7533 11.6408 23.9384 12.0452 23.9443H12.1395C16.3636 23.9443 20.5881 23.9443 24.8128 23.9443C24.9568 23.9443 25.1371 23.9561 25.2339 23.8795C25.367 23.7769 25.5136 23.5934 25.5153 23.4437C25.517 23.2939 25.3712 23.1122 25.2415 23.002C25.1573 22.9288 24.9829 22.9389 24.8498 22.9389C22.731 22.9338 20.6102 22.9322 18.4875 22.9338L18.485 22.9355ZM10.3984 27.9768C12.0561 27.9768 13.7147 27.9768 15.3733 27.9768C15.7431 27.9768 15.963 27.7664 15.9537 27.4577C15.9444 27.1489 15.733 26.9798 15.375 26.9689C15.3219 26.9689 15.2697 26.9689 15.2175 26.9689C12.0053 26.9689 8.79339 26.9689 5.58176 26.9689C5.46674 26.963 5.35142 26.9703 5.23808 26.9907C5.16316 27.0061 5.09284 27.0386 5.03269 27.0858C4.97254 27.133 4.9242 27.1935 4.89151 27.2625C4.85882 27.3316 4.84268 27.4073 4.84435 27.4836C4.84602 27.56 4.86546 27.6349 4.90113 27.7025C5.02243 27.949 5.24566 27.9793 5.49078 27.9785C7.12776 27.9762 8.76503 27.9751 10.4026 27.9751L10.3984 27.9768ZM27.6254 27.5443C27.5617 27.39 27.4897 27.2391 27.4097 27.0925C26.826 26.1671 25.7368 25.6993 24.6527 25.9988C24.0462 26.1671 23.4734 26.4649 22.9014 26.7459C21.9235 27.228 20.9716 27.1279 20.4022 26.1881C20.371 26.1324 20.3286 26.0839 20.2775 26.0456C20.2265 26.0073 20.168 25.9801 20.1058 25.9658C20.0436 25.9514 19.979 25.9503 19.9163 25.9623C19.8537 25.9744 19.7942 25.9994 19.7418 26.0358C19.6849 26.0688 19.6353 26.1129 19.5959 26.1654C19.5564 26.218 19.528 26.2779 19.5123 26.3417C19.4966 26.4054 19.4939 26.4717 19.5043 26.5365C19.5148 26.6014 19.5383 26.6634 19.5733 26.719C19.9886 27.408 20.5749 27.8666 21.3919 27.981C22.209 28.0954 22.941 27.8514 23.6512 27.4762C24.0247 27.2675 24.4169 27.0943 24.8229 26.9588C25.4791 26.7585 26.1412 27.0227 26.5379 27.5788C26.5918 27.6562 26.6221 27.7765 26.6963 27.8077C26.8647 27.88 27.077 27.9818 27.2337 27.9381C27.3904 27.8943 27.494 27.6848 27.6254 27.5443ZM14.9505 20.9163C15.9158 20.9163 16.8803 20.9264 17.8448 20.9071C18.025 20.9071 18.2575 20.8288 18.3637 20.7018C18.4572 20.5899 18.4808 20.3097 18.4024 20.197C18.3418 20.1189 18.2655 20.0544 18.1785 20.0074C18.0915 19.9605 17.9956 19.9322 17.897 19.9244C16.6065 19.9025 15.3169 19.9126 14.0264 19.9126C13.3449 19.9126 12.6618 19.8958 11.982 19.9252C11.8881 19.9332 11.7969 19.9611 11.7146 20.0069C11.6322 20.0527 11.5606 20.1155 11.5044 20.1911C11.4683 20.2725 11.4525 20.3614 11.4584 20.4502C11.4642 20.539 11.4916 20.625 11.5381 20.7009C11.6434 20.8288 11.875 20.9071 12.0553 20.9104C13.0206 20.9273 13.9851 20.9163 14.9505 20.9163ZM28.0828 22.9355C27.7585 22.9355 27.4333 22.9296 27.109 22.9355C26.7628 22.9439 26.5514 23.145 26.5573 23.4454C26.5632 23.7457 26.7637 23.9342 27.0955 23.9392C27.7442 23.9499 28.3928 23.9499 29.0414 23.9392C29.3716 23.9342 29.5746 23.7306 29.5788 23.4437C29.583 23.1568 29.3716 22.9439 29.0245 22.9389C28.7104 22.9271 28.3961 22.9338 28.0828 22.9338V22.9355Z" fill="#F500EC"/>
<path d="M21.7357 12.8227C20.66 11.75 19.5911 10.6824 18.5078 9.60126C18.5617 9.54405 18.6291 9.46748 18.7007 9.39597L23.5375 4.56337C24.1954 3.90629 24.8625 3.90208 25.5154 4.55075C25.9702 5.00254 26.4276 5.45097 26.8758 5.90866C27.3921 6.43701 27.4098 7.17065 26.8951 7.68386C25.2003 9.38952 23.4993 11.0899 21.7922 12.7849C21.7752 12.8 21.7562 12.8128 21.7357 12.8227Z" fill="#F500EC"/>
<path d="M18.2024 16.3496C17.1236 15.2744 16.0536 14.2101 14.9922 13.1568L17.7618 10.3955L20.9628 13.5926L18.2024 16.3496Z" fill="#F500EC"/>
<path d="M14.3702 14.0522L17.2729 16.954C17.2148 16.975 17.1441 17.0045 17.0716 17.0255C16.1172 17.2998 15.162 17.569 14.2076 17.8475C13.981 17.914 13.7721 17.9274 13.5927 17.7524C13.4133 17.5774 13.4242 17.3688 13.4866 17.1416C13.7848 16.1194 14.0728 15.0963 14.3702 14.0522Z" fill="#F500EC"/>
<path d="M27.7567 8.17139C28.0574 8.95635 27.9352 9.6353 27.4029 10.1906C26.5908 11.0403 25.7485 11.8598 24.9146 12.6877C24.6686 12.9316 24.3805 12.9325 24.164 12.7137C23.9475 12.495 23.9526 12.2157 24.2011 11.9658C24.9541 11.2086 25.7283 10.4649 26.4653 9.68999C26.9227 9.2138 27.3279 8.67955 27.7567 8.17139Z" fill="#F500EC"/>
<path d="M25.7422 3.38915C26.1566 2.87257 26.6932 2.61344 27.3604 2.74469C27.9989 2.87005 28.4242 3.26632 28.5826 3.90909C28.7511 4.60656 28.4908 5.15426 27.9669 5.60353C27.2306 4.87074 26.4995 4.14383 25.7422 3.38915Z" fill="#F500EC"/>
</svg>
