<svg width="16" height="16" viewBox="0 0 16 16" fill="none" xmlns="http://www.w3.org/2000/svg">
<g clip-path="url(#clip0_2874_127)">
<path d="M8.00065 0.833984C4.04865 0.833984 0.833984 4.04865 0.833984 8.00065C0.833984 11.9527 4.04865 15.1673 8.00065 15.1673C11.9527 15.1673 15.1673 11.9527 15.1673 8.00065C15.1673 4.04865 11.9527 0.833984 8.00065 0.833984ZM8.00065 14.1673C4.59999 14.1673 1.83399 11.4013 1.83399 8.00065C1.83399 4.59999 4.59999 1.83399 8.00065 1.83399C11.4013 1.83399 14.1673 4.59999 14.1673 8.00065C14.1673 11.4013 11.4013 14.1673 8.00065 14.1673ZM9.68734 7.6473C9.88267 7.84263 9.88267 8.15932 9.68734 8.35466L7.68734 10.3547C7.59001 10.452 7.46199 10.5013 7.33399 10.5013C7.20599 10.5013 7.07797 10.4527 6.98063 10.3547C6.7853 10.1593 6.7853 9.84263 6.98063 9.6473L8.62728 8.00065L6.98063 6.35401C6.7853 6.15867 6.7853 5.84198 6.98063 5.64665C7.17597 5.45132 7.49266 5.45132 7.68799 5.64665L9.68734 7.6473Z" fill="#0B071A"/>
</g>
<defs>
<clipPath id="clip0_2874_127">
<rect width="16" height="16" fill="white"/>
</clipPath>
</defs>
</svg>
