<svg width="30" height="30" viewBox="0 0 30 30" fill="none" xmlns="http://www.w3.org/2000/svg">
<g clip-path="url(#clip0_932_6203)">
<path d="M2.196 7.317V24.879C2.196 26.487 3.513 27.804 5.121 27.804H22.683V28.536C22.683 29.34 22.023 30 21.219 30H1.464C0.66 30 0 29.34 0 28.536V8.781C0 7.977 0.66 7.317 1.464 7.317H2.196ZM28.536 0C29.34 0 30 0.66 30 1.464V16.464L20.196 9.294L20.16 9.255C20.121 9.255 20.121 9.219 20.085 9.219C20.049 9.219 20.049 9.219 20.013 9.183C19.977 9.183 19.977 9.147 19.938 9.147H19.647C19.611 9.147 19.572 9.147 19.572 9.183C19.572 9.183 19.536 9.183 19.536 9.219C19.512 9.219 19.503 9.237 19.491 9.246L19.464 9.255C19.428 9.255 19.428 9.294 19.428 9.294C19.389 9.294 19.389 9.33 19.353 9.33L19.281 9.402L9.147 22.683H8.781C7.977 22.683 7.317 22.023 7.317 21.219V1.464C7.317 0.66 7.977 0 8.781 0H28.536ZM19.902 10.902L30 18.294V21.219C30 21.978 29.418 22.605 28.677 22.677L28.536 22.683H10.977L19.902 10.902ZM12.438 2.196C10.83 2.196 9.513 3.513 9.513 5.121C9.513 6.732 10.83 8.049 12.438 8.049C14.049 8.049 15.366 6.732 15.366 5.121C15.366 3.513 14.049 2.196 12.438 2.196ZM12.438 3.66C13.245 3.66 13.902 4.317 13.902 5.121C13.902 5.928 13.245 6.585 12.438 6.585C11.634 6.585 10.977 5.928 10.977 5.121C10.977 4.317 11.634 3.66 12.438 3.66Z" fill="#EE11E5"/>
<path opacity="0.4" d="M5.85316 21.219V3.65997H5.12116C4.31716 3.65997 3.66016 4.31697 3.66016 5.12097V24.879C3.66016 25.683 4.31716 26.34 5.12116 26.34H24.8792C25.6832 26.34 26.3402 25.683 26.3402 24.879V24.147H8.78116C7.17016 24.147 5.85316 22.83 5.85316 21.219Z" fill="#EE11E5"/>
</g>
<defs>
<clipPath id="clip0_932_6203">
<rect width="30" height="30" fill="white"/>
</clipPath>
</defs>
</svg>
