<svg width="30" height="30" viewBox="0 0 30 30" fill="none" xmlns="http://www.w3.org/2000/svg">
<rect opacity="0.1" x="0.5" y="0.5" width="29" height="29" rx="14.5" fill="#FF1B28" stroke="#FF3030"/>
<path d="M15.7616 14.9976L18.9965 11.7626C19.207 11.5522 19.207 11.212 18.9965 11.0016C18.7861 10.7911 18.4459 10.7911 18.2354 11.0016L15.0005 14.2365L11.7656 11.0016C11.5551 10.7911 11.215 10.7911 11.0046 11.0016C10.794 11.212 10.794 11.5522 11.0046 11.7626L14.2394 14.9976L11.0046 18.2325C10.794 18.443 10.794 18.7832 11.0046 18.9936C11.1094 19.0986 11.2473 19.1513 11.3851 19.1513C11.5229 19.1513 11.6607 19.0986 11.7656 18.9936L15.0005 15.7586L18.2354 18.9936C18.3404 19.0986 18.4782 19.1513 18.616 19.1513C18.7538 19.1513 18.8915 19.0986 18.9965 18.9936C19.207 18.7832 19.207 18.443 18.9965 18.2325L15.7616 14.9976Z" fill="#FF3030" stroke="#FF3030" strokeWidth="0.5"/>
</svg>
