<svg width="25" height="25" viewBox="0 0 25 25" fill="none" xmlns="http://www.w3.org/2000/svg">
<path d="M10.9382 1.25099L6.28819 8.84999C5.77519 9.67499 6.37519 10.749 7.35019 10.749H16.6382C17.6132 10.749 18.2132 9.67499 17.7002 8.84999L13.0622 1.25099C12.5762 0.449988 11.4242 0.449988 10.9382 1.25099ZM13.2512 18.876C13.2512 15.768 15.7682 13.251 18.8762 13.251C21.9842 13.251 24.5012 15.768 24.5012 18.876C24.5012 21.984 21.9842 24.501 18.8762 24.501C15.7682 24.501 13.2512 21.984 13.2512 18.876Z" fill="#00AD66"/>
<path d="M2.001 23.874H9.501C10.188 23.874 10.749 23.313 10.749 22.626V15.126C10.749 14.439 10.188 13.875 9.501 13.875H2.001C1.314 13.875 0.75 14.439 0.75 15.126V22.626C0.75 23.313 1.314 23.874 2.001 23.874Z" fill="#00AD66"/>
</svg>
