<svg width="30" height="30" viewBox="0 0 30 30" fill="none" xmlns="http://www.w3.org/2000/svg">
<path d="M7.788 7.67099L5.781 5.09099L7.371 3.04499C7.65 2.69099 8.097 2.69099 8.376 3.04499L10.104 5.27099L7.788 7.67099ZM24.264 5.03099L22.719 3.04499C22.44 2.68799 21.993 2.68799 21.714 3.04499L19.944 5.32499L22.212 7.67099L24.264 5.03099ZM28.125 3.81899V17.052C28.125 20.076 22.251 22.53 15 22.53C7.749 22.53 1.875 20.073 1.875 17.049V3.81899C1.875 3.26999 2.223 2.90699 2.592 2.90699C2.766 2.90699 2.943 2.99099 3.087 3.17699L5.181 5.87099L7.731 9.14699L10.716 6.05699L14.553 2.07899C14.685 1.94399 14.838 1.87799 15 1.87799C15.162 1.87799 15.315 1.94399 15.447 2.07899L19.341 6.10799L22.275 9.14399L26.913 3.17999C27.057 2.99399 27.237 2.90999 27.408 2.90999C27.774 2.90699 28.125 3.27299 28.125 3.81899ZM5.301 14.97L4.809 13.722C4.704 13.455 4.407 13.455 4.302 13.722L3.807 14.97C3.768 15.075 3.768 15.201 3.807 15.303L4.302 16.551C4.407 16.818 4.704 16.818 4.809 16.551L5.304 15.303C5.343 15.195 5.343 15.075 5.301 14.97ZM16.83 16.47L15.234 13.515C15.12 13.308 14.883 13.308 14.766 13.515L13.17 16.47C13.101 16.593 13.101 16.761 13.17 16.887L14.766 19.842C14.88 20.049 15.117 20.049 15.234 19.842L16.83 16.887C16.899 16.755 16.899 16.59 16.83 16.47ZM26.247 14.97L25.752 13.722C25.647 13.455 25.35 13.455 25.245 13.722L24.753 14.97C24.714 15.075 24.714 15.201 24.753 15.303L25.248 16.551C25.353 16.818 25.65 16.818 25.755 16.551L26.25 15.303C26.286 15.195 26.286 15.075 26.247 14.97ZM17.982 23.895C17.025 23.988 16.023 24.036 15 24.036C13.974 24.036 12.975 23.988 12.018 23.895C7.116 23.421 3.252 21.813 2.115 19.77C2.013 19.587 1.935 19.404 1.875 19.215V22.65C1.875 25.674 7.749 28.125 15 28.125C22.251 28.125 28.125 25.674 28.125 22.65V19.212C28.068 19.398 27.99 19.584 27.885 19.767C26.751 21.813 22.887 23.424 17.982 23.895Z" fill="#1570EF"/>
</svg>
