<svg width="17" height="16" viewBox="0 0 17 16" fill="none" xmlns="http://www.w3.org/2000/svg">
<path d="M7.88127 11.4547C8.14793 11.7067 8.49058 11.8327 8.83325 11.8327C9.17592 11.8327 9.5179 11.7067 9.78524 11.4547L13.9679 7.50269C14.3152 7.17469 14.4266 6.67534 14.2499 6.23067C14.0726 5.78601 13.6506 5.49935 13.172 5.49935H11.9433V2.66667C11.9433 2.02333 11.4199 1.5 10.7766 1.5H6.77661C6.13328 1.5 5.60994 2.02333 5.60994 2.66667V5.5H4.49455C4.01588 5.5 3.59325 5.78732 3.41658 6.23132C3.23992 6.67599 3.35065 7.17469 3.69865 7.50269L7.88127 11.4547ZM4.3466 6.60067C4.3646 6.55467 4.4052 6.5 4.4952 6.5H6.1106C6.24326 6.5 6.37062 6.44735 6.46395 6.35335C6.55728 6.25935 6.6106 6.13267 6.6106 6V2.66667C6.6106 2.57467 6.68526 2.5 6.77726 2.5H10.7773C10.8693 2.5 10.9439 2.57467 10.9439 2.66667V6C10.9439 6.13267 10.9966 6.26002 11.0906 6.35335C11.1846 6.44735 11.3113 6.5 11.4439 6.5H13.1726C13.2626 6.5 13.3025 6.55467 13.3212 6.60067C13.3392 6.64667 13.348 6.714 13.2826 6.776L9.09985 10.728C8.94985 10.8687 8.7186 10.8687 8.5686 10.728L4.38599 6.776C4.31932 6.714 4.32793 6.64667 4.3466 6.60067ZM13.9999 14C13.9999 14.276 13.7759 14.5 13.4999 14.5H4.16658C3.89059 14.5 3.66658 14.276 3.66658 14C3.66658 13.724 3.89059 13.5 4.16658 13.5H13.4999C13.7759 13.5 13.9999 13.724 13.9999 14Z" fill="white"/>
</svg>
