<svg width="21" height="20" viewBox="0 0 21 20" fill="none" xmlns="http://www.w3.org/2000/svg">
<path d="M18.1999 8.44861C17.1057 6.61611 14.6498 3.54199 10.504 3.54199C6.35813 3.54199 3.9022 6.61611 2.80804 8.44861C2.23554 9.40528 2.23554 10.5945 2.80804 11.552C3.9022 13.3845 6.35813 16.4587 10.504 16.4587C14.6498 16.4587 17.1057 13.3845 18.1999 11.552C18.7724 10.5945 18.7724 9.40611 18.1999 8.44861ZM17.1273 10.9104C16.169 12.5154 14.0331 15.2087 10.504 15.2087C6.97479 15.2087 4.83896 12.5162 3.88063 10.9104C3.54563 10.3487 3.54563 9.65114 3.88063 9.08948C4.83896 7.48448 6.97479 4.79118 10.504 4.79118C14.0331 4.79118 16.169 7.48364 17.1273 9.08948C17.4631 9.65198 17.4631 10.3487 17.1273 10.9104ZM10.504 6.45866C8.55063 6.45866 6.96229 8.04783 6.96229 10.0003C6.96229 11.9528 8.55063 13.542 10.504 13.542C12.4573 13.542 14.0456 11.9528 14.0456 10.0003C14.0456 8.04783 12.4573 6.45866 10.504 6.45866ZM10.504 12.292C9.23979 12.292 8.21229 11.2645 8.21229 10.0003C8.21229 8.73616 9.23979 7.70866 10.504 7.70866C11.7681 7.70866 12.7956 8.73616 12.7956 10.0003C12.7956 11.2645 11.7681 12.292 10.504 12.292Z" fill="#413B45"/>
</svg>
