<svg width="26" height="26" viewBox="0 0 26 26" fill="none" xmlns="http://www.w3.org/2000/svg">
<path d="M24.5891 16.3906C23.7064 15.8906 22.6611 15.9039 21.7891 16.4266L19.1624 18.0026C18.7504 16.8373 17.6371 16 16.3331 16H8.99976C8.14509 16 7.36777 16.3067 6.74377 16.7987C6.31577 16.3133 5.69709 16 4.99976 16H2.33309C1.04642 16 -0.000244141 17.0467 -0.000244141 18.3333V23.6667C-0.000244141 24.9533 1.04642 26 2.33309 26H4.99976C5.69576 26 6.31577 25.6867 6.74377 25.2013C7.36777 25.6933 8.14509 26 8.99976 26H16.4624C17.8944 26 19.2998 25.5066 20.4198 24.612L24.9571 20.9813C25.6197 20.4506 25.9998 19.6587 25.9998 18.8107C25.9998 17.796 25.4717 16.8906 24.5891 16.3906ZM5.33309 23.6667C5.33309 23.8507 5.18376 24 4.99976 24H2.33309C2.14909 24 1.99976 23.8507 1.99976 23.6667V18.3333C1.99976 18.1493 2.14909 18 2.33309 18H4.99976C5.18376 18 5.33309 18.1493 5.33309 18.3333V19.6667V22.3333V23.6667ZM23.7064 19.4199L19.1691 23.0493C18.4038 23.6613 17.4424 23.9987 16.4611 23.9987H8.99976C8.08109 23.9987 7.33309 23.2507 7.33309 22.332V19.6654C7.33309 18.7467 8.08109 17.9987 8.99976 17.9987H16.3331C16.8851 17.9987 17.3331 18.4467 17.3331 18.9987C17.3331 19.5507 16.8851 19.9987 16.3331 19.9987H11.6664C11.1144 19.9987 10.6664 20.4467 10.6664 20.9987C10.6664 21.5507 11.1144 21.9987 11.6664 21.9987H16.3331C17.4571 21.9987 18.4398 21.3773 18.9531 20.46L22.8184 18.1413C23.1678 17.9293 23.4851 18.064 23.6038 18.1307C23.7224 18.1987 23.9998 18.4 23.9998 18.8107C23.9998 19.0494 23.8931 19.2719 23.7064 19.4199ZM10.0171 6.57471C9.57842 6.01871 9.33309 5.30808 9.33309 4.58008C9.33309 2.99741 10.4718 1.68003 11.9731 1.39469V1C11.9731 0.448 12.4211 0 12.9731 0C13.5251 0 13.9731 0.448 13.9731 1V1.38525C15.3731 1.62659 16.4824 2.76269 16.6464 4.22135C16.7077 4.77069 16.3131 5.26533 15.7651 5.32666C15.2278 5.39333 14.7211 4.99465 14.6597 4.44531C14.5877 3.81065 14.0544 3.33333 13.4198 3.33333H12.5798C11.8918 3.33333 11.3331 3.89208 11.3331 4.58008C11.3331 4.85875 11.4251 5.12934 11.5918 5.34001C11.7678 5.56667 12.0038 5.72005 12.2784 5.78939L14.2078 6.26807C15.6571 6.63473 16.6664 7.93062 16.6664 9.41862C16.6664 10.284 16.3278 11.0987 15.7131 11.7134C15.2331 12.1934 14.6278 12.4986 13.9731 12.612V13C13.9731 13.552 13.5251 14 12.9731 14C12.4211 14 11.9731 13.552 11.9731 13V12.6107C10.5971 12.3507 9.51444 11.22 9.35311 9.77865C9.29178 9.22931 9.68642 8.73467 10.2344 8.67334C10.7704 8.60801 11.2784 9.00535 11.3398 9.55469C11.4118 10.1894 11.9451 10.6667 12.5798 10.6667H13.4198C13.7504 10.6667 14.0624 10.536 14.2984 10.3C14.5358 10.0626 14.6664 9.75059 14.6664 9.41992C14.6664 8.84792 14.2771 8.35064 13.7211 8.20931L11.7917 7.73063C11.0877 7.55197 10.4584 7.14137 10.0171 6.57471Z" fill="#6021D1"/>
</svg>
