<svg width="32" height="32" viewBox="0 0 32 32" fill="none" xmlns="http://www.w3.org/2000/svg">
<path d="M3.87988 15.8274L3.88008 15.8275C3.92191 15.8319 3.96289 15.8334 4.00133 15.8334C4.55437 15.8334 5.03243 15.4155 5.09406 14.8535L5.09407 14.8535C5.43046 11.7703 7.03492 9.04508 9.4867 7.27357V9.40137C9.4867 10.0086 9.97947 10.5014 10.5867 10.5014C11.1939 10.5014 11.6867 10.0086 11.6867 9.40137V5.33464C11.6867 4.95473 11.4902 4.60141 11.1676 4.40051C10.8463 4.19953 10.4416 4.17907 10.1013 4.34627C6.08384 6.31873 3.39371 10.1578 2.90599 14.6144C2.83999 15.2173 3.27555 15.7614 3.87988 15.8274ZM28.1202 16.1739L28.1196 16.1738C27.5107 16.1109 26.9733 16.5434 26.9073 17.1478C26.5709 20.231 24.9664 22.9564 22.5147 24.7279V22.5999C22.5147 21.9927 22.0219 21.4999 21.4147 21.4999C20.8074 21.4999 20.3147 21.9927 20.3147 22.5999V26.6667C20.3147 27.0466 20.5112 27.3999 20.8338 27.6008L20.834 27.6009C21.0113 27.7108 21.2122 27.7667 21.4147 27.7667C21.58 27.7667 21.7459 27.73 21.9001 27.6537C25.9176 25.6826 28.6077 21.8435 29.0954 17.3856L29.0955 17.3853C29.16 16.7824 28.7229 16.2399 28.1202 16.1739ZM13.5667 6V11.3333C13.5667 12.2926 13.8534 13.0704 14.3915 13.6085C14.9296 14.1467 15.7074 14.4333 16.6667 14.4333H24.6667C25.6259 14.4333 26.4038 14.1467 26.9419 13.6085C27.48 13.0704 27.7667 12.2926 27.7667 11.3333V6C27.7667 5.04075 27.48 4.26291 26.9419 3.72479C26.4038 3.18667 25.6259 2.9 24.6667 2.9H16.6667C15.7074 2.9 14.9296 3.18667 14.3915 3.72479C13.8534 4.26291 13.5667 5.04075 13.5667 6ZM16.6667 12.2333C16.2752 12.2333 16.0635 12.1778 15.9429 12.0571C15.8223 11.9365 15.7667 11.7249 15.7667 11.3333V6C15.7667 5.60848 15.8223 5.39684 15.9429 5.27621C16.0635 5.15558 16.2752 5.1 16.6667 5.1H24.6667C25.0582 5.1 25.2699 5.15558 25.3905 5.27621C25.5111 5.39684 25.5667 5.60848 25.5667 6V11.3333C25.5667 11.7249 25.5111 11.9365 25.3905 12.0571C25.2699 12.1778 25.0582 12.2333 24.6667 12.2333H16.6667ZM18.4334 26V20.6667C18.4334 19.7074 18.1467 18.9296 17.6086 18.3915C17.0704 17.8533 16.2926 17.5667 15.3334 17.5667H7.33336C6.37411 17.5667 5.59628 17.8533 5.05815 18.3915C4.52003 18.9296 4.23336 19.7074 4.23336 20.6667V26C4.23336 26.9593 4.52003 27.7371 5.05815 28.2752C5.59628 28.8133 6.37411 29.1 7.33336 29.1H15.3334C16.2926 29.1 17.0704 28.8133 17.6086 28.2752C18.1467 27.7371 18.4334 26.9593 18.4334 26ZM15.3334 19.7667C15.7249 19.7667 15.9365 19.8223 16.0572 19.9429C16.1778 20.0635 16.2334 20.2751 16.2334 20.6667V26C16.2334 26.3915 16.1778 26.6032 16.0572 26.7238C15.9365 26.8444 15.7249 26.9 15.3334 26.9H7.33336C6.94184 26.9 6.7302 26.8444 6.60957 26.7238C6.48894 26.6032 6.43336 26.3915 6.43336 26V20.6667C6.43336 20.2751 6.48894 20.0635 6.60957 19.9429C6.7302 19.8223 6.94184 19.7667 7.33336 19.7667H15.3334ZM11.3334 21.4267C10.3581 21.4267 9.5667 22.2181 9.5667 23.1934C9.5667 24.1686 10.3581 24.96 11.3334 24.96C12.3086 24.96 13.1 24.1686 13.1 23.1934C13.1 22.2181 12.3086 21.4267 11.3334 21.4267ZM20.6667 10.2693C21.6419 10.2693 22.4334 9.47783 22.4334 8.5026C22.4334 7.52738 21.6419 6.73594 20.6667 6.73594C19.6915 6.73594 18.9 7.52738 18.9 8.5026C18.9 9.47783 19.6915 10.2693 20.6667 10.2693Z" fill="#FF0000" stroke="#FF0000" strokeWidth="0.2"/>
</svg>
