<svg width="27" height="26" viewBox="0 0 27 26" fill="none" xmlns="http://www.w3.org/2000/svg">
<path d="M19.689 4.92C21.948 4.92 22.965 3.822 22.965 2.46C22.965 1.107 21.948 0 19.689 0C17.565 0 15.891 0.954 14.76 2.058C14.265 1.77 13.695 1.584 13.071 1.584C12.477 1.584 11.934 1.752 11.454 2.025C10.323 0.936 8.658 0 6.558 0C4.293 0 3.282 1.104 3.282 2.46C3.282 3.822 4.29 4.92 6.558 4.92H12.006V25.347H14.238V4.92H19.689ZM19.689 1.644C20.433 1.644 21.321 1.788 21.321 2.46C21.321 3.141 20.433 3.285 19.689 3.285H15.957L15.927 3.21C16.758 2.406 18.024 1.644 19.689 1.644ZM10.191 3.285H6.561C5.817 3.285 4.917 3.138 4.917 2.46C4.917 1.788 5.814 1.644 6.561 1.644C8.196 1.644 9.429 2.373 10.263 3.156L10.191 3.285ZM0 7.296V10.581H11.487V5.655H1.644C0.735 5.655 0 6.393 0 7.296ZM1.644 23.703C1.644 24.606 2.379 25.344 3.285 25.344H11.487V12.216H1.644V23.703ZM24.606 5.655H14.835V10.584H26.25V7.296C26.25 6.393 25.512 5.655 24.606 5.655ZM14.835 25.344H22.965C23.871 25.344 24.609 24.606 24.609 23.703V12.216H14.835V25.344Z" fill="#FF6921"/>
</svg>
