<svg width="30" height="28" viewBox="0 0 30 28" fill="none" xmlns="http://www.w3.org/2000/svg">
<path d="M18.264 22.422C18.189 20.481 16.914 18.846 15.039 18.324C14.952 18.3 14.868 18.279 14.781 18.258C14.052 18.714 13.191 18.981 12.267 18.981C11.331 18.981 10.461 18.708 9.726 18.24C7.8 18.663 6.342 20.439 6.297 22.35C6.273 23.358 6.252 24.363 6.249 25.371C6.249 26.31 6.18 26.337 6.66 26.463C6.663 26.466 12.828 27.903 17.877 26.478C18.144 26.367 18.294 26.232 18.288 25.905C18.267 24.744 18.309 23.58 18.264 22.422ZM7.671 18.297C8.055 18.012 8.496 17.829 8.94 17.613C8.118 16.803 7.59 15.693 7.536 14.46C7.509 14.457 7.479 14.457 7.449 14.457C6.531 14.46 5.61 14.436 4.692 14.466C3.594 14.502 2.658 14.799 1.893 15.375C1.539 15.66 0.048 17.073 0 20.829V22.68C1.542 23.175 3.117 23.499 4.725 23.706C5.253 23.772 5.454 23.67 5.436 23.082C5.382 21.126 6.063 19.491 7.671 18.297ZM21.894 15.12C20.361 14.184 18.654 14.499 16.998 14.475C16.938 15.702 16.413 16.806 15.591 17.616C16.359 17.937 17.034 18.342 17.589 18.924C18.729 20.121 19.185 21.558 19.089 23.184C19.062 23.592 19.158 23.772 19.623 23.739C21.003 23.634 22.344 23.364 23.64 22.869C23.964 22.743 24.123 22.575 24.111 22.197C24.078 21.018 24.12 19.833 24.063 18.654C23.988 17.097 23.208 15.924 21.894 15.12ZM12.294 17.886C14.223 17.859 15.783 16.281 15.783 14.358C15.786 12.408 14.247 10.848 12.309 10.839C10.344 10.827 8.742 12.396 8.733 14.343C8.724 16.266 10.377 17.913 12.294 17.886ZM6.192 14.25C6.267 14.244 6.444 14.241 6.615 14.208C6.954 14.139 7.275 14.061 7.542 13.914C7.644 12.423 8.436 11.124 9.6 10.329C9.591 10.239 9.579 10.149 9.558 10.056C9.21 8.286 7.488 6.987 5.778 7.197C3.882 7.428 2.463 9.015 2.556 10.803C2.658 12.747 4.176 14.226 6.192 14.25ZM28.107 11.832C27.342 11.253 26.406 10.956 25.308 10.92C24.39 10.89 23.469 10.914 22.551 10.911C22.521 10.911 22.491 10.911 22.464 10.914C22.41 12.147 21.882 13.257 21.06 14.067C21.504 14.286 21.945 14.469 22.329 14.751C23.937 15.945 24.618 17.58 24.564 19.536C24.546 20.124 24.747 20.229 25.275 20.16C26.883 19.956 28.458 19.629 30 19.134V17.286C29.952 13.53 28.461 12.114 28.107 11.832ZM22.458 10.368C22.725 10.518 23.046 10.593 23.385 10.662C23.556 10.698 23.733 10.698 23.808 10.704C25.824 10.683 27.342 9.204 27.444 7.257C27.537 5.469 26.118 3.882 24.222 3.651C22.512 3.441 20.79 4.74 20.442 6.51C20.421 6.603 20.409 6.696 20.4 6.783C21.564 7.578 22.356 8.88 22.458 10.368ZM14.646 9.969C14.631 10.023 14.622 10.077 14.616 10.128C15.993 10.917 16.935 12.375 17.001 14.061C17.052 14.082 17.109 14.1 17.169 14.115C19.407 14.733 21.633 13.026 21.615 10.692C21.6 8.847 20.25 7.395 18.363 7.191C16.701 7.014 15.027 8.265 14.646 9.969ZM13.995 9.831C14.106 9.225 14.37 8.661 14.7 8.049C12.924 7.905 11.25 7.908 9.432 8.052C9.888 8.715 10.119 9.327 10.209 9.975C10.83 9.675 11.529 9.507 12.267 9.507C12.876 9.507 13.461 9.621 13.995 9.831ZM12.066 7.71H12.084C13.332 7.713 14.559 7.086 15.279 6.003C15.579 5.556 15.771 5.061 15.858 4.551C15.897 4.326 15.921 4.092 15.921 3.855C15.921 1.983 14.586 0.423 12.816 0.072L12.762 0.054H12.705C12.495 0.018 12.282 0 12.066 0C9.936 0 8.211 1.725 8.211 3.855C8.211 5.985 9.936 7.71 12.066 7.71Z" fill="#8700F1"/>
</svg>
