<svg width="20" height="21" viewBox="0 0 20 21" fill="none" xmlns="http://www.w3.org/2000/svg">
<path d="M19 8.25C18.586 8.25 18.25 8.586 18.25 9V16.62C18.25 18.439 17.439 19.25 15.62 19.25H4.38C2.537 19.25 1.75 18.463 1.75 16.62V5.37C1.75 3.534 2.537 2.75 4.38 2.75H12C12.414 2.75 12.75 2.414 12.75 2C12.75 1.586 12.414 1.25 12 1.25H4.38C1.717 1.25 0.25 2.713 0.25 5.37V16.62C0.25 19.283 1.717 20.75 4.38 20.75H15.62C18.283 20.75 19.75 19.283 19.75 16.62V9C19.75 8.586 19.414 8.25 19 8.25ZM16.47 6.53003C16.539 6.59903 16.622 6.65402 16.714 6.69202C16.806 6.73002 16.903 6.75 17.001 6.75C17.099 6.75 17.196 6.73002 17.288 6.69202C17.38 6.65402 17.463 6.59903 17.532 6.53003L19.532 4.53003C19.825 4.23703 19.825 3.76199 19.532 3.46899C19.239 3.17599 18.764 3.17599 18.471 3.46899L17.751 4.18896V1C17.751 0.586 17.415 0.25 17.001 0.25C16.587 0.25 16.251 0.586 16.251 1V4.18896L15.531 3.46899C15.238 3.17599 14.763 3.17599 14.47 3.46899C14.177 3.76199 14.177 4.23703 14.47 4.53003L16.47 6.53003ZM9.64999 7.86096H10.35C10.922 7.86096 11.401 8.29096 11.466 8.86096C11.512 9.27296 11.881 9.57295 12.295 9.52295C12.707 9.47695 13.003 9.10597 12.957 8.69397C12.822 7.49197 11.892 6.565 10.728 6.396V6C10.728 5.586 10.392 5.25 9.978 5.25C9.564 5.25 9.228 5.586 9.228 6V6.40405C7.983 6.60805 7.028 7.68203 7.028 8.98303C7.028 9.57003 7.225 10.144 7.58 10.592C7.936 11.051 8.44401 11.383 9.01401 11.527L10.622 11.926C11.123 12.053 11.473 12.501 11.473 13.015C11.473 13.313 11.356 13.594 11.143 13.807C10.93 14.02 10.649 14.137 10.351 14.137H9.651C9.079 14.137 8.6 13.707 8.535 13.137C8.489 12.725 8.11599 12.423 7.70599 12.475C7.29399 12.521 6.99801 12.892 7.04401 13.304C7.17701 14.491 8.085 15.412 9.228 15.597V16C9.228 16.414 9.564 16.75 9.978 16.75C10.392 16.75 10.728 16.414 10.728 16V15.6021C11.283 15.5211 11.798 15.275 12.203 14.87C12.699 14.374 12.973 13.716 12.973 13.017C12.973 11.815 12.158 10.769 10.987 10.473L9.379 10.074C9.131 10.012 8.92 9.87304 8.761 9.67004C8.611 9.48004 8.528 9.23599 8.528 8.98499C8.528 8.36499 9.03099 7.86096 9.64999 7.86096Z" fill="white"/>
</svg>
