<svg width="23" height="20" viewBox="0 0 23 20" fill="none" xmlns="http://www.w3.org/2000/svg">
<path d="M20.4114 2.60987C19.9007 2.09888 19.2942 1.69352 18.6268 1.41696C17.9593 1.14039 17.2439 0.998047 16.5214 0.998047C15.7989 0.998047 15.0835 1.14039 14.4161 1.41696C13.7486 1.69352 13.1422 2.09888 12.6314 2.60987L11.5714 3.66987L10.5114 2.60987C9.47972 1.57818 8.08044 0.998582 6.62141 0.998582C5.16237 0.998582 3.7631 1.57818 2.73141 2.60987C1.69972 3.64156 1.12012 5.04084 1.12012 6.49987C1.12012 7.95891 1.69972 9.35818 2.73141 10.3899L3.79141 11.4499L11.5714 19.2299L19.3514 11.4499L20.4114 10.3899C20.9224 9.87912 21.3278 9.27269 21.6043 8.60523C21.8809 7.93777 22.0232 7.22236 22.0232 6.49987C22.0232 5.77738 21.8809 5.06198 21.6043 4.39452C21.3278 3.72706 20.9224 3.12063 20.4114 2.60987Z" stroke="#413B45" strokeWidth="1.2" strokeLinecap="round" strokeLinejoin="round"/>
</svg>
