<svg width="29" height="27" viewBox="0 0 29 27" fill="none" xmlns="http://www.w3.org/2000/svg">
<path d="M27.9042 4.46792C27.2375 3.58259 26.1668 3.03195 24.7201 2.82795L10.6388 0.854641C9.19209 0.650641 8.01751 0.883969 7.13485 1.5493C6.24951 2.21597 5.69754 3.28662 5.49487 4.73062L5.29875 6.11213H4.56014C1.62281 6.11213 0.00415039 7.72945 0.00415039 10.6681V22.2254C0.00415039 25.1641 1.62281 26.7814 4.56014 26.7814H18.7841C21.3294 26.7814 22.8802 25.5626 23.2509 23.3279C25.3296 23.1599 26.6534 21.8106 26.9988 19.4119L28.5974 7.97215C28.8041 6.53082 28.5695 5.35192 27.9042 4.46792ZM4.56014 8.11213H18.7841C20.6001 8.11213 21.3416 8.85212 21.3416 10.6681V17.4416L16.7774 12.8774C15.9214 12.0228 14.5321 12.0241 13.6801 12.8774L8.11613 18.4416L7.29484 17.6186C6.43884 16.7626 5.04951 16.7653 4.19751 17.6186L2.00415 19.812V10.6681C2.00415 8.85212 2.74547 8.11213 4.56014 8.11213ZM18.7841 24.7814H4.56014C2.88547 24.7814 2.13347 24.14 2.02547 22.6173L5.61076 19.032C5.68276 18.9614 5.80546 18.96 5.88013 19.032L6.99487 20.1466C7.61354 20.7666 8.62285 20.764 9.23885 20.1466L15.0948 14.2908C15.1695 14.2188 15.2922 14.2202 15.3642 14.2908L21.3416 20.2681V22.2254C21.3416 24.0414 20.6001 24.7814 18.7841 24.7814ZM26.6174 7.69351L25.0188 19.132C24.8255 20.4733 24.3189 21.1492 23.3416 21.3159V10.6681C23.3416 7.72945 21.7228 6.11213 18.7841 6.11213H7.31746L7.47355 5.01219C7.60155 4.11086 7.89082 3.48263 8.33748 3.14663C8.78015 2.81197 9.46147 2.70545 10.3588 2.83478L24.4415 4.80809C25.3428 4.93609 25.9694 5.22539 26.3054 5.67072C26.6414 6.11472 26.7454 6.79484 26.6174 7.69351ZM5.69344 13.1147C5.69344 12.3787 6.28413 11.7814 7.0188 11.7814H7.02954C7.76421 11.7814 8.36011 12.3787 8.36011 13.1147C8.36011 13.8507 7.76421 14.4481 7.02954 14.4481C6.29621 14.4481 5.69344 13.8507 5.69344 13.1147Z" fill="#B7B7B7"/>
</svg>
