<svg width="20" height="20" viewBox="0 0 20 20" fill="none" xmlns="http://www.w3.org/2000/svg">
<path d="M15.625 0.25H4.375C1.715 0.25 0.25 1.715 0.25 4.375V15.625C0.25 18.285 1.715 19.75 4.375 19.75H15.625C18.285 19.75 19.75 18.285 19.75 15.625V4.375C19.75 1.715 18.285 0.25 15.625 0.25ZM18.25 15.625C18.25 17.465 17.465 18.25 15.625 18.25H4.375C2.535 18.25 1.75 17.465 1.75 15.625V4.375C1.75 2.535 2.535 1.75 4.375 1.75H15.625C17.465 1.75 18.25 2.535 18.25 4.375V15.625ZM14.25 10C14.25 10.414 13.914 10.75 13.5 10.75H10.75V13.5C10.75 13.914 10.414 14.25 10 14.25C9.586 14.25 9.25 13.914 9.25 13.5V10.75H6.5C6.086 10.75 5.75 10.414 5.75 10C5.75 9.586 6.086 9.25 6.5 9.25H9.25V6.5C9.25 6.086 9.586 5.75 10 5.75C10.414 5.75 10.75 6.086 10.75 6.5V9.25H13.5C13.914 9.25 14.25 9.586 14.25 10Z" fill="white"/>
</svg>
