<svg width="20" height="20" viewBox="0 0 20 20" fill="none" xmlns="http://www.w3.org/2000/svg">
<g clip-path="url(#clip0_3542_66985)">
<path d="M6.12765 14.9993C4.35838 14.9993 3.47375 14.9993 2.84393 14.6217C2.43229 14.3748 2.10067 14.0219 1.88664 13.6028C1.55918 12.9616 1.6472 12.1138 1.82325 10.4181C1.97021 9.0026 2.04369 8.29481 2.40505 7.77502C2.64229 7.43376 2.96318 7.15405 3.33933 6.96062C3.91225 6.66602 4.65072 6.66602 6.12765 6.66602H13.871C15.348 6.66602 16.0864 6.66602 16.6594 6.96062C17.0355 7.15405 17.3564 7.43376 17.5937 7.77502C17.955 8.29481 18.0285 9.0026 18.1754 10.4181C18.3515 12.1138 18.4395 12.9616 18.112 13.6028C17.898 14.0219 17.5664 14.3748 17.1548 14.6217C16.5249 14.9993 15.6404 14.9993 13.871 14.9993" stroke="white" strokeWidth="1.5"/>
<path d="M14.1673 6.66602V4.99935C14.1673 3.428 14.1673 2.64232 13.6792 2.15417C13.191 1.66602 12.4053 1.66602 10.834 1.66602H9.16732C7.59597 1.66602 6.81029 1.66602 6.32214 2.15417C5.83398 2.64232 5.83398 3.428 5.83398 4.99935V6.66602" stroke="white" strokeWidth="1.5" strokeLinejoin="round"/>
<path d="M11.6579 13.334H8.3434C7.77234 13.334 7.48679 13.334 7.24384 13.4247C6.91991 13.5457 6.64254 13.7807 6.45582 14.0922C6.31578 14.326 6.24653 14.6266 6.10802 15.2277C5.89159 16.1669 5.78339 16.6365 5.85698 17.0131C5.95511 17.5152 6.26096 17.9402 6.68609 18.1652C7.00493 18.334 7.45109 18.334 8.3434 18.334H11.6579C12.5502 18.334 12.9964 18.334 13.3152 18.1652C13.7403 17.9402 14.0462 17.5152 14.1443 17.0131C14.2179 16.6365 14.1097 16.1669 13.8933 15.2277C13.7548 14.6266 13.6855 14.326 13.5455 14.0922C13.3587 13.7807 13.0814 13.5457 12.7575 13.4247C12.5145 13.334 12.229 13.334 11.6579 13.334Z" stroke="white" strokeWidth="1.5" strokeLinejoin="round"/>
<path d="M15 10H15.0075" stroke="white" strokeWidth="2" strokeLinecap="round" strokeLinejoin="round"/>
</g>
<defs>
<clipPath id="clip0_3542_66985">
<rect width="20" height="20" fill="white"/>
</clipPath>
</defs>
</svg>
