<svg width="17" height="18" viewBox="0 0 17 18" fill="none" xmlns="http://www.w3.org/2000/svg">
<path d="M10.7833 15.8745C11.5224 15.8812 12.4065 15.4979 12.6806 14.4037L10.7833 15.8745ZM10.7833 15.8745C10.0791 15.8695 9.16577 15.4745 8.90744 14.3779L10.7833 15.8745ZM13.7681 0.849179L13.768 0.84919L2.84071 3.58087L2.86496 3.67788L2.8407 3.58087C1.33928 3.95623 0.336191 5.24992 0.347358 6.79776C0.358524 8.34554 1.3788 9.62463 2.88537 9.97937L2.88539 9.97937L6.69679 10.876L7.59346 14.6866L7.59347 14.6866C7.94821 16.1932 9.22722 17.2134 10.775 17.2245H10.7757H10.7758H10.7758H10.7759H10.7759H10.7759H10.776H10.776H10.7761H10.7761H10.7762H10.7762H10.7763H10.7763H10.7763H10.7764H10.7764H10.7765H10.7765H10.7766H10.7766H10.7767H10.7767H10.7767H10.7768H10.7768H10.7769H10.7769H10.777H10.777H10.7771H10.7771H10.7771H10.7772H10.7772H10.7773H10.7773H10.7774H10.7774H10.7775H10.7775H10.7775H10.7776H10.7776H10.7777H10.7777H10.7778H10.7778H10.7779H10.7779H10.7779H10.778H10.778H10.7781H10.7781H10.7782H10.7782H10.7783H10.7783H10.7783H10.7784H10.7784H10.7785H10.7785H10.7786H10.7786H10.7787H10.7787H10.7788H10.7788H10.7788H10.7789H10.7789H10.779H10.779H10.7791H10.7791H10.7792H10.7792H10.7793H10.7793H10.7793H10.7794H10.7794H10.7795H10.7795H10.7796H10.7796H10.7797H10.7797H10.7798H10.7798H10.7798H10.7799H10.7799H10.78H10.78H10.7801H10.7801H10.7802H10.7802H10.7803H10.7803H10.7803H10.7804H10.7804H10.7805H10.7805H10.7806H10.7806H10.7807H10.7807H10.7808H10.7808H10.7808H10.7809H10.7809H10.781H10.781H10.7811H10.7811H10.7812H10.7812H10.7813H10.7813H10.7814H10.7814H10.7814H10.7815H10.7815H10.7816H10.7816H10.7817H10.7817H10.7818H10.7818H10.7819H10.7819H10.7819H10.782H10.782H10.7821H10.7821H10.7822H10.7822H10.7823H10.7823H10.7824H10.7824H10.7825H10.7825H10.7825H10.7826H10.7826H10.7827H10.7827H10.7828H10.7828H10.7829H10.7829H10.783H10.783H10.7831H10.7831H10.7831H10.7832H10.7832H10.7833H10.7833H10.7834H10.7834H10.7835H10.7835H10.7836H10.7836H10.7837H10.7837H10.7837H10.7838H10.7838H10.7839H10.7839H10.784H10.784H10.7841H10.7841H10.7842H10.7842H10.7843H10.7843H10.7844H10.7844H10.7844H10.7845H10.7845H10.7846H10.7846H10.7847H10.7847H10.7848H10.7848H10.7849H10.7849H10.785H10.785H10.785H10.7851H10.7851H10.7852H10.7852H10.7853H10.7853H10.7854H10.7854H10.7855H10.7855H10.7856H10.7856H10.7857H10.7857H10.7857H10.7858H10.7858H10.7859H10.7859H10.786H10.786H10.7861H10.7861H10.7862H10.7862H10.7863H10.7863H10.7864H10.7864H10.7864H10.7865H10.7865H10.7866H10.7866H10.7867H10.7867H10.7868H10.7868H10.7869H10.7869H10.787H10.787H10.7871H10.7871H10.7871H10.7872H10.7872H10.7873H10.7873H10.7874H10.7874H10.7875H10.7875H10.7876H10.7876H10.7877H10.7877H10.7877H10.7878H10.7878H10.7879H10.7879H10.788H10.788H10.7881H10.7881H10.7882H10.7882H10.7883H10.7883H10.7884H10.7884H10.7884H10.7885H10.7885H10.7886H10.7886H10.7887H10.7887H10.7888H10.7888H10.7889H10.7889H10.789H10.789H10.7891H10.7891H10.7891H10.7892H10.7892H10.7893H10.7893H10.7894H10.7894H10.7895H10.7895H10.7896H10.7896H10.7897H10.7897H10.7897H10.7898H10.7898H10.7899H10.7899H10.79H10.79H10.7901H10.7901H10.7902H10.7902H10.7903H10.7903H10.7904H10.7904H10.7904H10.7905H10.7905H10.7906H10.7906H10.7907H10.7907H10.7908H10.7908H10.7909H10.7909H10.791H10.791H10.791H10.7911H10.7911H10.7912H10.7912H10.7913H10.7913H10.7914H10.7914H10.7915H10.7915H10.7916H10.7916H10.7917H10.7917H10.7917H10.7918H10.7918H10.7919H10.7919H10.792H10.792H10.7921H10.7921H10.7922H10.7922H10.7923H10.7923H10.7923H10.7924H10.7924H10.7925H10.7925H10.7926H10.7926H10.7927H10.7927H10.7928H10.7928H10.7929H10.7929H10.7929H10.793H10.793H10.7931H10.7931H10.7932H10.7932H10.7933H10.7933H10.7934H10.7934H10.7934H10.7935H10.7935H10.7936H10.7936H10.7937H10.7937H10.7938H10.7938H10.7939H10.7939H10.794H10.794H10.794H10.7941H10.7941H10.7942H10.7942H10.7943H10.7943H10.7944H10.7944H10.7945H10.7945H10.7945H10.7946H10.7946H10.7947H10.7947H10.7948H10.7948H10.7949H10.7949H10.795H10.795H10.795H10.7951H10.7951H10.7952H10.7952H10.7953H10.7953H10.7954H10.7954H10.7955H10.7955H10.7955H10.7956H10.7956H10.7957H10.7957H10.7958H10.7958H10.7959H10.7959H10.796H10.796H10.796H10.7961H10.7961H10.7962H10.7962H10.7963H10.7963H10.7964H10.7964H10.7965H10.7965H10.7965H10.7966H10.7966H10.7967H10.7967H10.7968H10.7968H10.7969H10.7969H10.7969H10.797H10.797H10.7971H10.7971H10.7972H10.7972H10.7973H10.7973H10.7973H10.7974H10.7974H10.7975H10.7975H10.7976H10.7976H10.7977H10.7977H10.7977H10.7978H10.7978H10.7979H10.7979H10.798H10.798H10.7981H10.7981H10.7981H10.7982H10.7982H10.7983H10.7983H10.7984H10.7984H10.7985H10.7985H10.7985H10.7986H10.7986H10.7987H10.7987H10.7988H10.7988H10.7989H10.7989H10.7989H10.799H10.799H10.7991H10.7991C12.3359 17.2245 13.6174 16.2241 13.991 14.7313L13.991 14.7313L16.7228 3.80379L16.7228 3.80367C16.9312 2.96555 16.6921 2.10037 16.0814 1.48966C15.4716 0.879816 14.6071 0.639853 13.7681 0.849179ZM15.3153 3.45201L12.5836 14.3794C12.3235 15.4177 11.4895 15.7809 10.7842 15.7745L10.784 15.7745C10.1122 15.7698 9.24969 15.3946 9.00478 14.355C9.00478 14.355 9.00478 14.355 9.00477 14.355L8.09754 10.5L11.5839 7.01275C11.5839 7.01275 11.5839 7.01275 11.584 7.01275C11.8672 6.72953 11.8672 6.27038 11.5839 5.98716C11.3007 5.70394 10.8415 5.70394 10.5583 5.98716L7.07111 9.47443L3.21604 8.56719C2.1756 8.32229 1.8005 7.45898 1.79573 6.78717C1.79095 6.11536 2.15429 5.2465 3.19073 4.98739L14.1183 2.25571L14.1185 2.25565C14.1995 2.2352 14.2813 2.22538 14.3615 2.22538C14.6182 2.22538 14.8661 2.32641 15.055 2.51525L15.0551 2.51536C15.3027 2.76219 15.4001 3.11192 15.3153 3.45196C15.3153 3.45198 15.3153 3.45199 15.3153 3.45201Z" fill="#000D2B" stroke="#000D2B" strokeWidth="0.2"/>
</svg>
