<svg width="20" height="20" viewBox="0 0 20 20" fill="none" xmlns="http://www.w3.org/2000/svg">
<path d="M15.1958 1.84918L15.1958 1.84919L4.26844 4.58087L4.29269 4.67788L4.26844 4.58087C2.76701 4.95623 1.76393 6.24992 1.77509 7.79776C1.78626 9.34554 2.80653 10.6246 4.31311 10.9794L4.31313 10.9794L8.12453 11.876L9.0212 15.6866L9.0212 15.6866C9.37594 17.1932 10.655 18.2134 12.2027 18.2245H12.2035H12.2035H12.2035H12.2036H12.2036H12.2037H12.2037H12.2038H12.2038H12.2039H12.2039H12.2039H12.204H12.204H12.2041H12.2041H12.2042H12.2042H12.2043H12.2043H12.2043H12.2044H12.2044H12.2045H12.2045H12.2046H12.2046H12.2047H12.2047H12.2047H12.2048H12.2048H12.2049H12.2049H12.205H12.205H12.2051H12.2051H12.2051H12.2052H12.2052H12.2053H12.2053H12.2054H12.2054H12.2055H12.2055H12.2055H12.2056H12.2056H12.2057H12.2057H12.2058H12.2058H12.2059H12.2059H12.2059H12.206H12.206H12.2061H12.2061H12.2062H12.2062H12.2063H12.2063H12.2064H12.2064H12.2064H12.2065H12.2065H12.2066H12.2066H12.2067H12.2067H12.2068H12.2068H12.2069H12.2069H12.2069H12.207H12.207H12.2071H12.2071H12.2072H12.2072H12.2073H12.2073H12.2074H12.2074H12.2074H12.2075H12.2075H12.2076H12.2076H12.2077H12.2077H12.2078H12.2078H12.2079H12.2079H12.2079H12.208H12.208H12.2081H12.2081H12.2082H12.2082H12.2083H12.2083H12.2084H12.2084H12.2084H12.2085H12.2085H12.2086H12.2086H12.2087H12.2087H12.2088H12.2088H12.2089H12.2089H12.2089H12.209H12.209H12.2091H12.2091H12.2092H12.2092H12.2093H12.2093H12.2094H12.2094H12.2095H12.2095H12.2095H12.2096H12.2096H12.2097H12.2097H12.2098H12.2098H12.2099H12.2099H12.21H12.21H12.2101H12.2101H12.2101H12.2102H12.2102H12.2103H12.2103H12.2104H12.2104H12.2105H12.2105H12.2106H12.2106H12.2107H12.2107H12.2107H12.2108H12.2108H12.2109H12.2109H12.211H12.211H12.2111H12.2111H12.2112H12.2112H12.2113H12.2113H12.2113H12.2114H12.2114H12.2115H12.2115H12.2116H12.2116H12.2117H12.2117H12.2118H12.2118H12.2119H12.2119H12.2119H12.212H12.212H12.2121H12.2121H12.2122H12.2122H12.2123H12.2123H12.2124H12.2124H12.2125H12.2125H12.2126H12.2126H12.2126H12.2127H12.2127H12.2128H12.2128H12.2129H12.2129H12.213H12.213H12.2131H12.2131H12.2132H12.2132H12.2132H12.2133H12.2133H12.2134H12.2134H12.2135H12.2135H12.2136H12.2136H12.2137H12.2137H12.2138H12.2138H12.2139H12.2139H12.2139H12.214H12.214H12.2141H12.2141H12.2142H12.2142H12.2143H12.2143H12.2144H12.2144H12.2145H12.2145H12.2146H12.2146H12.2146H12.2147H12.2147H12.2148H12.2148H12.2149H12.2149H12.215H12.215H12.2151H12.2151H12.2152H12.2152H12.2153H12.2153H12.2153H12.2154H12.2154H12.2155H12.2155H12.2156H12.2156H12.2157H12.2157H12.2158H12.2158H12.2159H12.2159H12.2159H12.216H12.216H12.2161H12.2161H12.2162H12.2162H12.2163H12.2163H12.2164H12.2164H12.2165H12.2165H12.2166H12.2166H12.2166H12.2167H12.2167H12.2168H12.2168H12.2169H12.2169H12.217H12.217H12.2171H12.2171H12.2172H12.2172H12.2173H12.2173H12.2173H12.2174H12.2174H12.2175H12.2175H12.2176H12.2176H12.2177H12.2177H12.2178H12.2178H12.2179H12.2179H12.2179H12.218H12.218H12.2181H12.2181H12.2182H12.2182H12.2183H12.2183H12.2184H12.2184H12.2185H12.2185H12.2186H12.2186H12.2186H12.2187H12.2187H12.2188H12.2188H12.2189H12.2189H12.219H12.219H12.2191H12.2191H12.2192H12.2192H12.2192H12.2193H12.2193H12.2194H12.2194H12.2195H12.2195H12.2196H12.2196H12.2197H12.2197H12.2198H12.2198H12.2198H12.2199H12.2199H12.22H12.22H12.2201H12.2201H12.2202H12.2202H12.2203H12.2203H12.2204H12.2204H12.2204H12.2205H12.2205H12.2206H12.2206H12.2207H12.2207H12.2208H12.2208H12.2209H12.2209H12.221H12.221H12.221H12.2211H12.2211H12.2212H12.2212H12.2213H12.2213H12.2214H12.2214H12.2215H12.2215H12.2215H12.2216H12.2216H12.2217H12.2217H12.2218H12.2218H12.2219H12.2219H12.222H12.222H12.2221H12.2221H12.2221H12.2222H12.2222H12.2223H12.2223H12.2224H12.2224H12.2225H12.2225H12.2226H12.2226H12.2226H12.2227H12.2227H12.2228H12.2228H12.2229H12.2229H12.223H12.223H12.2231H12.2231H12.2231H12.2232H12.2232H12.2233H12.2233H12.2234H12.2234H12.2235H12.2235H12.2236H12.2236H12.2236H12.2237H12.2237H12.2238H12.2238H12.2239H12.2239H12.224H12.224H12.224H12.2241H12.2241H12.2242H12.2242H12.2243H12.2243H12.2244H12.2244H12.2245H12.2245H12.2245H12.2246H12.2246H12.2247H12.2247H12.2248H12.2248H12.2249H12.2249H12.2249H12.225H12.225H12.2251H12.2251H12.2252H12.2252H12.2253H12.2253H12.2254H12.2254H12.2254H12.2255H12.2255H12.2256H12.2256H12.2257H12.2257H12.2258H12.2258H12.2258H12.2259H12.2259H12.226H12.226H12.2261H12.2261H12.2261H12.2262H12.2262H12.2263H12.2263H12.2264H12.2264H12.2265H12.2265H12.2265H12.2266H12.2266H12.2267H12.2267H12.2268H12.2268H12.2269C13.7636 18.2245 15.0451 17.2241 15.4188 15.7313L15.4188 15.7313L18.1505 4.80379L18.1505 4.80367C18.359 3.96555 18.1199 3.10037 17.5092 2.48966C16.8993 1.87982 16.0349 1.63985 15.1958 1.84918ZM12.2119 16.7745L12.2117 16.7745C11.5399 16.7698 10.6774 16.3946 10.4325 15.355C10.4325 15.355 10.4325 15.355 10.4325 15.355L9.52527 11.5L13.0117 8.01275C13.0117 8.01275 13.0117 8.01275 13.0117 8.01275C13.2949 7.72953 13.2949 7.27038 13.0117 6.98716C12.7285 6.70394 12.2693 6.70394 11.9861 6.98716L8.49884 10.4744L4.64377 9.56719C3.60333 9.32229 3.22823 8.45898 3.22346 7.78717C3.21869 7.11536 3.58202 6.2465 4.61846 5.98739L15.546 3.25571L15.5462 3.25565C15.6273 3.2352 15.7091 3.22538 15.7893 3.22538C16.046 3.22538 16.2939 3.32641 16.4827 3.51525L16.4828 3.51536C16.7304 3.7622 16.8279 4.11196 16.7431 4.45201L14.0114 15.3794C13.7512 16.4177 12.9173 16.7809 12.2119 16.7745Z" fill="#2353F5" stroke="#2353F5" strokeWidth="0.2"/>
</svg>
