<svg width="32" height="32" viewBox="0 0 32 32" fill="none" xmlns="http://www.w3.org/2000/svg">
<rect width="32" height="32" rx="8" fill="#6021D1"/>
<g clip-path="url(#clip0_1578_55)">
<path d="M18.2973 26.9998C19.0329 26.9998 19.6744 26.3583 19.6744 25.6227V22.4067H20.5939C21.1456 22.4067 21.5134 22.0388 21.5134 21.4872V12.3018H10.4883V21.4873C10.4883 22.039 10.8561 22.4068 11.4078 22.4068H12.3273V25.6228C12.3273 26.3584 12.9686 26.9998 13.7044 26.9998C14.4399 26.9998 15.0813 26.3584 15.0813 25.6228V22.4068H16.9203V25.6228C16.9203 26.3583 17.5617 26.9998 18.2973 26.9998Z" fill="white"/>
<path d="M23.8097 21.4873C24.5453 21.4873 25.1866 20.8459 25.1866 20.1102V13.6782C25.1866 12.9465 24.5453 12.3018 23.8097 12.3018C23.074 12.3018 22.4326 12.9465 22.4326 13.6782V20.1102C22.4326 20.8458 23.0739 21.4873 23.8097 21.4873Z" fill="white"/>
<path d="M8.19137 21.4873C8.92703 21.4873 9.56842 20.8459 9.56842 20.1102V13.6782C9.56842 12.9465 8.9271 12.3018 8.19137 12.3018C7.45578 12.3018 6.81445 12.9465 6.81445 13.6782V20.1102C6.81445 20.8458 7.45578 21.4873 8.19137 21.4873Z" fill="white"/>
<path d="M20.4099 5.13875C20.2261 4.95375 19.9524 4.95375 19.7686 5.13875L18.5353 6.36788L18.4784 6.4247C17.7472 6.05853 16.9273 5.87566 16.0143 5.8739C16.0098 5.8739 16.0054 5.87375 16.0009 5.87375H16.0008C15.9962 5.87375 15.9919 5.8739 15.9873 5.8739C15.0743 5.87566 14.2545 6.05853 13.5233 6.4247L13.4662 6.36788L12.2331 5.13875C12.0491 4.95375 11.7756 4.95375 11.5917 5.13875C11.4078 5.32272 11.4078 5.59574 11.5917 5.77956L12.7847 6.97272C12.4003 7.22937 12.0517 7.54343 11.7486 7.90263C11.0229 8.7628 10.5601 9.88226 10.4964 11.0952C10.4958 11.1078 10.4946 11.1203 10.494 11.1329C10.4901 11.2155 10.4883 11.2985 10.4883 11.3818H21.5134C21.5134 11.2985 21.5114 11.2155 21.5076 11.1329C21.507 11.1203 21.5058 11.1078 21.5051 11.0952C21.4416 9.88226 20.9785 8.76273 20.2529 7.90271C19.9499 7.5435 19.6012 7.22945 19.2168 6.9728L20.4099 5.77963C20.5939 5.59574 20.5939 5.32272 20.4099 5.13875ZM13.7026 9.7764C13.3222 9.7764 13.0138 9.46799 13.0138 9.08757C13.0138 8.70715 13.3222 8.39875 13.7026 8.39875C14.083 8.39875 14.3914 8.70715 14.3914 9.08757C14.3914 9.46799 14.083 9.7764 13.7026 9.7764ZM18.299 9.7764C17.9186 9.7764 17.6102 9.46799 17.6102 9.08757C17.6102 8.70715 17.9186 8.39875 18.299 8.39875C18.6794 8.39875 18.9878 8.70715 18.9878 9.08757C18.9878 9.46799 18.6794 9.7764 18.299 9.7764Z" fill="white"/>
</g>
<defs>
<clipPath id="clip0_1578_55">
<rect width="22" height="22" fill="white" transform="translate(5 5)"/>
</clipPath>
</defs>
</svg>
