<svg width="21" height="24" viewBox="0 0 21 24" fill="none" xmlns="http://www.w3.org/2000/svg">
<path fill-rule="evenodd" clip-rule="evenodd" d="M9.52344 3.03974V0.75C9.52344 0.335999 9.86932 0 10.2955 0C10.7217 0 11.0676 0.335999 11.0676 0.75V3.04004C14.6787 3.41605 17.5001 6.39387 17.5001 9.99994V12.7881C17.5001 14.7671 18.3926 16.6349 19.948 17.913C20.3587 18.2531 20.5883 18.7379 20.5883 19.2501C20.5883 20.215 19.7802 21 18.7867 21H14.0768C13.7183 22.7098 12.1586 24 10.2941 24C8.42959 24 6.8699 22.7098 6.51132 21H1.80141C0.80806 21 0 20.215 0 19.2501C0 18.7379 0.229582 18.2531 0.629937 17.92C2.19573 16.6349 3.08823 14.7671 3.08823 12.7881V9.99994C3.08823 6.39292 5.91104 3.41448 9.52344 3.03974ZM10.2941 22.5C11.3011 22.5 12.1596 21.8732 12.4781 21H8.11011C8.42866 21.8732 9.28724 22.5 10.2941 22.5ZM1.80141 19.5H7.20584H13.3823H18.7867C18.9267 19.5 19.0442 19.3859 19.0442 19.2501C19.0442 19.1501 18.9874 19.088 18.9535 19.06C17.0481 17.495 15.9559 15.2089 15.9559 12.7881V9.99994C15.9559 6.96698 13.4164 4.5 10.2941 4.5C7.17189 4.5 4.63235 6.96698 4.63235 9.99994V12.7881C4.63235 15.2089 3.54024 17.495 1.63686 19.058C1.60066 19.088 1.54412 19.1501 1.54412 19.2501C1.54412 19.3859 1.66155 19.5 1.80141 19.5Z" fill="#0C1928"/>
</svg>
