<svg width="22" height="24" viewBox="0 0 22 24" fill="none" xmlns="http://www.w3.org/2000/svg">
<path fill-rule="evenodd" clip-rule="evenodd" d="M15.3973 0C15.8595 0 16.2345 0.375068 16.2345 0.837205L16.235 1.78359C17.8649 1.89534 19.2186 2.45362 20.1767 3.41368C21.2226 4.46409 21.7729 5.97441 21.7674 7.78612V17.9699C21.7674 21.6893 19.4053 24 15.6044 24H6.16295C2.36204 24 0 21.6569 0 17.8851V7.78389C0 4.27566 2.10647 2.02374 5.54195 1.78398L5.54263 0.837205C5.54263 0.375068 5.9177 0 6.37984 0C6.84198 0 7.21705 0.375068 7.21705 0.837205L7.21671 1.7626H14.5596L14.5601 0.837205C14.5601 0.375068 14.9352 0 15.3973 0ZM20.0929 9.9393H1.67441V17.8851C1.67441 20.7494 3.26845 22.3256 6.16295 22.3256H15.6044C18.4989 22.3256 20.093 20.7784 20.093 17.9699L20.0929 9.9393ZM15.8524 16.9632C16.3146 16.9632 16.6896 17.3383 16.6896 17.8004C16.6896 18.2626 16.3146 18.6376 15.8524 18.6376C15.3903 18.6376 15.0108 18.2626 15.0108 17.8004C15.0108 17.3383 15.3802 16.9632 15.8424 16.9632H15.8524ZM10.899 16.9632C11.3611 16.9632 11.7362 17.3383 11.7362 17.8004C11.7362 18.2626 11.3611 18.6376 10.899 18.6376C10.4368 18.6376 10.0573 18.2626 10.0573 17.8004C10.0573 17.3383 10.4268 16.9632 10.8889 16.9632H10.899ZM5.93512 16.9632C6.39725 16.9632 6.77232 17.3383 6.77232 17.8004C6.77232 18.2626 6.39725 18.6376 5.93512 18.6376C5.47298 18.6376 5.09233 18.2626 5.09233 17.8004C5.09233 17.3383 5.46293 16.9632 5.92507 16.9632H5.93512ZM15.8524 12.6246C16.3146 12.6246 16.6896 12.9997 16.6896 13.4618C16.6896 13.924 16.3146 14.299 15.8524 14.299C15.3903 14.299 15.0108 13.924 15.0108 13.4618C15.0108 12.9997 15.3802 12.6246 15.8424 12.6246H15.8524ZM10.899 12.6246C11.3611 12.6246 11.7362 12.9997 11.7362 13.4618C11.7362 13.924 11.3611 14.299 10.899 14.299C10.4368 14.299 10.0573 13.924 10.0573 13.4618C10.0573 12.9997 10.4268 12.6246 10.8889 12.6246H10.899ZM5.93512 12.6246C6.39725 12.6246 6.77232 12.9997 6.77232 13.4618C6.77232 13.924 6.39725 14.299 5.93512 14.299C5.47298 14.299 5.09233 13.924 5.09233 13.4618C5.09233 12.9997 5.46293 12.6246 5.92507 12.6246H5.93512ZM14.5596 3.43701H7.21671L7.21705 4.51086C7.21705 4.973 6.84198 5.34807 6.37984 5.34807C5.9177 5.34807 5.54263 4.973 5.54263 4.51086L5.54204 3.46235C3.04133 3.67242 1.67441 5.18828 1.67441 7.78389V8.26489H20.0929L20.093 7.78389C20.0974 6.40529 19.7268 5.33367 18.9912 4.59693C18.3454 3.94927 17.4014 3.56248 16.2355 3.46288L16.2345 4.51086C16.2345 4.973 15.8595 5.34807 15.3973 5.34807C14.9352 5.34807 14.5601 4.973 14.5601 4.51086L14.5596 3.43701Z" fill="#0C1928"/>
</svg>
