<svg width="17" height="16" viewBox="0 0 17 16" fill="none" xmlns="http://www.w3.org/2000/svg">
<path d="M15.9069 14.4993L15.9068 14.4992L13.6591 12.3057C14.8138 11.0411 15.517 9.37308 15.517 7.54718C15.517 3.60263 12.2369 0.398047 8.20886 0.398047C4.18086 0.398047 0.9 3.60262 0.9 7.54718C0.9 11.4917 4.18084 14.697 8.20886 14.697C9.90024 14.697 11.4595 14.132 12.6994 13.1846L14.9825 15.4111L14.9827 15.4113C15.111 15.5359 15.2785 15.598 15.4447 15.598C15.6112 15.598 15.7798 15.5361 15.9079 15.4093C16.1648 15.1578 16.1636 14.7503 15.9069 14.4993ZM2.21031 7.54718C2.21031 4.31593 4.8992 1.68387 8.20886 1.68387C11.5178 1.68387 14.2067 4.31592 14.2067 7.54718C14.2067 10.7784 11.5177 13.4112 8.20886 13.4112C4.89922 13.4112 2.21031 10.7784 2.21031 7.54718Z" fill="white" stroke="white" strokeWidth="0.2"/>
</svg>
