<svg width="24" height="25" viewBox="0 0 24 25" fill="none" xmlns="http://www.w3.org/2000/svg">
<rect y="0.498047" width="24" height="24" rx="4" fill="#00A551" fillOpacity="0.1"/>
<path d="M19.9919 11.8107C19.9899 11.7804 19.9842 11.7514 19.9742 11.7227C19.9705 11.712 19.9679 11.7017 19.9632 11.6914C19.9472 11.6567 19.9269 11.624 19.8989 11.5964C19.8986 11.596 19.8986 11.596 19.8986 11.596L17.9962 9.69338V7.83138C17.9962 7.82405 17.9925 7.81771 17.9919 7.81038C17.9899 7.78105 17.9842 7.75271 17.9749 7.72471C17.9712 7.71405 17.9685 7.70371 17.9635 7.69338C17.9472 7.65805 17.9269 7.62438 17.8982 7.59571L14.8982 4.59571C14.8695 4.56705 14.8359 4.54638 14.8002 4.53038C14.7902 4.52571 14.7802 4.52305 14.7699 4.51971C14.7415 4.50971 14.7125 4.50405 14.6822 4.50238C14.6759 4.50138 14.6699 4.49805 14.6629 4.49805H6.32955C6.14555 4.49805 5.99622 4.64738 5.99622 4.83138V9.69338L4.09388 11.5957C4.09388 11.5957 4.09355 11.596 4.09322 11.5964C4.06522 11.6244 4.04522 11.657 4.02922 11.6914C4.02455 11.7017 4.02188 11.712 4.01822 11.7227C4.00822 11.7514 4.00222 11.7804 4.00055 11.8107C3.99988 11.818 3.99622 11.824 3.99622 11.8314V18.1647C3.99622 18.3487 4.14555 18.498 4.32955 18.498H5.99622V20.1647C5.99622 20.3487 6.14555 20.498 6.32955 20.498H17.6629C17.8469 20.498 17.9962 20.3487 17.9962 20.1647V18.498H19.6629C19.8469 18.498 19.9962 18.3487 19.9962 18.1647V11.8314C19.9962 11.824 19.9925 11.818 19.9919 11.8107ZM18.8582 11.498H17.9962V10.636L18.8582 11.498ZM16.8582 7.49805H14.9962V5.63605L16.8582 7.49805ZM6.66288 5.16471H14.3295V7.83138C14.3295 8.01538 14.4789 8.16471 14.6629 8.16471H17.3295V9.83138V11.498H6.66288V9.83138V5.16471ZM5.99622 10.636V11.498H5.13422L5.99622 10.636ZM17.3295 19.8314H6.66288V18.498H17.3295V19.8314ZM19.3295 17.8314H4.66288V12.1647H6.32955H17.6629H19.3295V17.8314Z" fill="#00A551"/>
<path d="M11.8036 13.7931C11.8526 13.7478 11.9076 13.7148 11.968 13.6938C12.0283 13.6731 12.0906 13.6628 12.155 13.6628C12.378 13.6628 12.563 13.7514 12.7103 13.9291L13.0843 13.4418C12.9746 13.3134 12.8396 13.2161 12.6793 13.1498C12.5186 13.0838 12.3366 13.0508 12.1326 13.0508C11.993 13.0508 11.855 13.0744 11.719 13.1214C11.583 13.1688 11.461 13.2414 11.3533 13.3398C11.2456 13.4381 11.1586 13.5618 11.0926 13.7108C11.0266 13.8601 10.9933 14.0388 10.9933 14.2464C10.9933 14.4128 11.015 14.5551 11.0583 14.6741C11.1016 14.7934 11.1603 14.8971 11.234 14.9858C11.3076 15.0748 11.3926 15.1511 11.489 15.2154C11.5853 15.2798 11.6883 15.3381 11.798 15.3911C11.9716 15.4781 12.1153 15.5724 12.2286 15.6744C12.342 15.7764 12.3986 15.9144 12.3986 16.0881C12.3986 16.2658 12.3513 16.4034 12.257 16.5018C12.1626 16.6001 12.0436 16.6491 11.9 16.6491C11.7716 16.6491 11.646 16.6188 11.523 16.5584C11.4 16.4981 11.2953 16.4148 11.2083 16.3091L10.84 16.8078C10.9533 16.9401 11.1043 17.0494 11.2933 17.1364C11.4823 17.2234 11.688 17.2668 11.911 17.2668C12.066 17.2668 12.2133 17.2404 12.353 17.1874C12.4926 17.1344 12.6146 17.0561 12.7186 16.9521C12.8226 16.8484 12.9056 16.7208 12.968 16.5698C13.0303 16.4188 13.0616 16.2448 13.0616 16.0484C13.0616 15.8784 13.0353 15.7311 12.9823 15.6064C12.9293 15.4818 12.8613 15.3741 12.7783 15.2834C12.6953 15.1928 12.6026 15.1154 12.5006 15.0511C12.3986 14.9868 12.2986 14.9301 12.2003 14.8811C12.034 14.7981 11.9 14.7101 11.798 14.6174C11.696 14.5251 11.645 14.3938 11.645 14.2238C11.645 14.1254 11.659 14.0404 11.6876 13.9688C11.716 13.8971 11.7546 13.8384 11.8036 13.7931Z" fill="#00A551"/>
<path d="M9.05523 14.1161C9.12323 13.9838 9.20823 13.8791 9.31023 13.8014C9.41223 13.7241 9.53123 13.6854 9.66723 13.6854C9.91289 13.6854 10.1129 13.7968 10.2679 14.0198L10.6589 13.5438C10.5492 13.3851 10.4076 13.2634 10.2339 13.1781C10.0602 13.0931 9.85789 13.0508 9.62756 13.0508C9.40456 13.0508 9.20156 13.1028 9.01823 13.2064C8.83489 13.3104 8.67923 13.4558 8.55056 13.6428C8.42223 13.8301 8.32289 14.0528 8.25323 14.3114C8.18323 14.5704 8.14856 14.8528 8.14856 15.1588C8.14856 15.4648 8.18356 15.7461 8.25323 16.0031C8.32289 16.2601 8.42123 16.4818 8.54789 16.6688C8.67456 16.8561 8.82923 17.0024 9.01256 17.1081C9.19589 17.2138 9.40089 17.2668 9.62756 17.2668C9.87689 17.2668 10.0836 17.2178 10.2479 17.1194C10.4122 17.0211 10.5472 16.8928 10.6529 16.7341L10.2619 16.2751C10.1976 16.3734 10.1172 16.4564 10.0212 16.5244C9.92523 16.5924 9.81056 16.6264 9.67856 16.6264C9.53889 16.6264 9.41689 16.5878 9.31289 16.5101C9.20889 16.4328 9.12323 16.3281 9.05489 16.1958C8.98656 16.0634 8.93589 15.9078 8.90189 15.7281C8.86789 15.5488 8.85089 15.3591 8.85089 15.1588C8.85089 14.9548 8.86789 14.7631 8.90189 14.5834C8.93623 14.4041 8.98723 14.2484 9.05523 14.1161Z" fill="#00A551"/>
<path d="M14.6639 16.371H14.6469L13.9782 13.1523H13.2189L14.1992 17.1643H15.0605L16.0579 13.1523H15.3325L14.6639 16.371Z" fill="#00A551"/>
</svg>
