<svg width="39" height="55" viewBox="0 0 39 55" fill="none" xmlns="http://www.w3.org/2000/svg">
<path d="M38.9999 36.0637C38.9999 39.5487 37.5112 42.3541 34.5329 44.4798C31.5546 46.5838 28.6069 47.8439 23.2464 48.2605V55H15.4824V48.3922C9.16374 48.2827 4.84322 47.34 0.0781459 45.5652V36.886C2.3309 37.8281 5.03743 38.6613 8.19642 39.3844C11.3817 40.1074 12.9957 40.5348 15.4818 40.6666V30.4751L14.1004 29.6203C8.97322 27.9106 5.33485 26.0588 3.18526 24.0643C1.06193 22.0481 0 19.5606 0 16.6017C0 13.4237 1.46317 10.8158 4.38951 8.77738C7.34152 6.71729 10.2251 5.46809 15.4818 5.02983V0H23.2459V4.89852C29.1761 5.1177 33.3153 6.12604 38.1059 7.92308L34.4548 15.6156C30.4152 14.2129 27.4931 13.3581 23.2459 13.0516V22.75C28.2955 24.3936 30.6607 25.8185 32.7846 27.0237C34.9341 28.229 36.5005 29.5552 37.4849 31.0018C38.4944 32.4479 39 34.1354 39 36.0637M27.3074 36.5573C27.3074 35.6368 26.8671 34.8589 25.9866 34.2232C25.106 33.5875 25.0064 32.9301 23.2459 32.2505V40.4366C26.7676 39.9322 27.3074 38.639 27.3074 36.5573ZM11.6925 16.6017C11.6925 17.5662 12.0809 18.3662 12.8577 19.0014C13.6608 19.6149 13.7212 20.2506 15.4818 20.908V13.1829C12.1408 13.5995 11.6925 14.7391 11.6925 16.6017Z" fill="#17DA94"/>
</svg>
