<svg width="24" height="25" viewBox="0 0 24 25" fill="none" xmlns="http://www.w3.org/2000/svg">
<rect y="0.498047" width="24" height="24" rx="4" fill="#9A5DFC" fillOpacity="0.15"/>
<g clip-path="url(#clip0_2043_14247)">
<path d="M14.2965 4.49805C14.4306 4.59606 14.5768 4.68299 14.6975 4.79386C16.0448 6.03568 17.3859 7.28237 18.7346 8.52241C18.8215 8.59703 18.8901 8.68801 18.9358 8.78922C18.9815 8.89043 19.0032 8.99953 18.9996 9.10917C18.9938 13.0377 18.9925 16.9663 18.9957 20.8949C18.9957 21.3206 18.8041 21.498 18.3441 21.498H5.64733C5.20127 21.498 5.00674 21.3171 5.00674 20.902C5.00674 15.6456 5.00515 10.389 5.00195 5.13226C5.00195 4.83112 5.10305 4.62134 5.40058 4.49805H14.2965ZM17.9076 20.4957V9.47817H14.2184C13.8221 9.47817 13.6147 9.28391 13.6147 8.91447C13.6147 7.83557 13.6147 6.75638 13.6147 5.67688V5.50658H6.08956V20.4971L17.9076 20.4957ZM17.0538 8.48028L14.7061 6.30711V8.48028H17.0538Z" fill="#9A5DFC"/>
<path d="M12.0074 11.8032C13.179 11.8032 14.3505 11.8032 15.5218 11.8032C15.918 11.8032 16.125 11.997 16.125 12.3669C16.125 14.3139 16.125 16.2608 16.125 18.2078C16.125 18.5857 15.9188 18.7746 15.5064 18.7746H8.49591C8.07572 18.7746 7.87305 18.5866 7.87305 18.1936V12.3859C7.87305 11.9868 8.07188 11.8032 8.50932 11.8032C9.67615 11.8026 10.8422 11.8026 12.0074 11.8032ZM8.95635 13.7834H11.4531V12.8077H8.95635V13.7834ZM15.0383 13.7932V12.8099H12.5522V13.7919L15.0383 13.7932ZM8.96353 14.7968V15.7792H11.4516V14.7968H8.96353ZM12.5517 14.7968V15.7792H15.0412V14.796L12.5517 14.7968ZM8.96209 16.7926V17.7683H11.4535V16.7926H8.96209ZM15.0422 16.797H12.5498V17.7728H15.0412L15.0422 16.797Z" fill="#9A5DFC"/>
</g>
<defs>
<clipPath id="clip0_2043_14247">
<rect width="14" height="17" fill="white" transform="translate(5 4.49805)"/>
</clipPath>
</defs>
</svg>
