<svg width="20" height="20" viewBox="0 0 20 20" fill="none" xmlns="http://www.w3.org/2000/svg">
<path d="M17.9527 9.20352C18.206 9.55877 18.3327 9.73643 18.3327 9.99935C18.3327 10.2623 18.206 10.4399 17.9527 10.7952C16.8143 12.3915 13.907 15.8327 9.99935 15.8327C6.09167 15.8327 3.18443 12.3915 2.04605 10.7952C1.79269 10.4399 1.66602 10.2623 1.66602 9.99935C1.66602 9.73643 1.79269 9.55877 2.04605 9.20352C3.18443 7.60722 6.09167 4.16602 9.99935 4.16602C13.907 4.16602 16.8143 7.60722 17.9527 9.20352Z" stroke="#6021D1" strokeWidth="1.25"/>
<path d="M12.5 10C12.5 8.61925 11.3807 7.5 10 7.5C8.61925 7.5 7.5 8.61925 7.5 10C7.5 11.3807 8.61925 12.5 10 12.5C11.3807 12.5 12.5 11.3807 12.5 10Z" stroke="#6021D1" strokeWidth="1.25"/>
</svg>
