<svg width="32" height="32" viewBox="0 0 32 32" fill="none" xmlns="http://www.w3.org/2000/svg">
<rect width="32" height="32" rx="8" fill="#6021D1"/>
<g clip-path="url(#clip0_1578_54)">
<path d="M12 27.9997C14.208 27.9997 16 26.2823 16 24.1663V20.333H12C9.792 20.333 8 22.0503 8 24.1663C8 26.2823 9.792 27.9997 12 27.9997Z" fill="white"/>
<path d="M8 16.5003C8 14.3843 9.792 12.667 12 12.667H16V20.3337H12C9.792 20.3337 8 18.6163 8 16.5003Z" fill="white"/>
<path d="M8 8.83333C8 6.71733 9.792 5 12 5H16V12.6667H12C9.792 12.6667 8 10.9493 8 8.83333Z" fill="white"/>
<path opacity="0.9" d="M16 5H20C22.208 5 24 6.71733 24 8.83333C24 10.9493 22.208 12.6667 20 12.6667H16V5Z" fill="white"/>
<path d="M24 16.5003C24 18.6163 22.208 20.3337 20 20.3337C17.792 20.3337 16 18.6163 16 16.5003C16 14.3843 17.792 12.667 20 12.667C22.208 12.667 24 14.3843 24 16.5003Z" fill="white"/>
</g>
<defs>
<clipPath id="clip0_1578_54">
<rect width="16" height="23" fill="white" transform="translate(8 5)"/>
</clipPath>
</defs>
</svg>
