<svg width="24" height="24" viewBox="0 0 24 24" fill="none" xmlns="http://www.w3.org/2000/svg">
<g clip-path="url(#clip0_477_14206)">
<path d="M14.266 0.371216C14.7265 0.48215 15.1776 0.612996 15.5591 0.905976C16.4367 1.58182 16.8352 2.46077 16.6486 3.54053C16.4689 4.57705 15.8429 5.2876 14.8265 5.65454C14.644 5.71996 14.5802 5.79847 14.5872 5.98791C14.603 6.41117 14.5872 6.83557 14.5978 7.25882C14.6021 7.29855 14.616 7.33673 14.6382 7.37032C14.6605 7.40391 14.6905 7.43196 14.7259 7.45225C15.1355 7.59732 15.545 7.72418 15.988 7.8664V7.24062C16.0874 7.23607 16.1635 7.22981 16.2384 7.22924C17.3501 7.22924 18.4618 7.22924 19.5782 7.2264C19.6463 7.22268 19.7144 7.23348 19.7778 7.25805C19.8411 7.28261 19.8982 7.32035 19.945 7.36862C20.9151 8.32038 21.8922 9.26475 22.8623 10.2165C22.9375 10.2868 22.9845 10.3807 22.9952 10.4816C23.0033 12.0785 23.001 13.6754 23.0004 15.2728C23.0004 15.3087 22.9957 15.3451 22.9916 15.3974H20.2071V23.6117H14.3789C14.6961 22.1354 14.6826 22.0654 13.9038 20.9544C14.111 20.5641 14.3719 20.2182 14.4889 19.832C14.9436 18.3068 13.7622 16.8282 12.1 16.8168C10.691 16.806 9.28212 16.8168 7.87319 16.8168H7.59351V15.4122H4.78502V15.1795C4.78502 13.6356 4.78502 12.0916 4.78151 10.5476C4.77921 10.4812 4.79202 10.4151 4.81902 10.354C4.84603 10.2929 4.88656 10.2384 4.93773 10.1943C5.91017 9.25564 6.87618 8.31128 7.8492 7.37317C7.91883 7.30604 8.02473 7.23777 8.11893 7.23664C9.30962 7.2281 10.5009 7.23152 11.6922 7.23209C11.7222 7.23467 11.7521 7.23904 11.7817 7.24517V7.87095C12.2363 7.72532 12.6646 7.59447 13.0859 7.44485C13.1415 7.42494 13.1888 7.30661 13.1894 7.23322C13.1964 6.40093 13.1941 5.56807 13.1941 4.73521V4.47863C13.5089 4.46157 13.812 4.46669 14.108 4.42516C14.8031 4.32788 15.3256 3.71518 15.2923 3.06379C15.2785 2.71587 15.1301 2.38583 14.8768 2.13974C14.6235 1.89364 14.2839 1.74964 13.9261 1.73656C13.255 1.70641 12.6388 2.21159 12.5218 2.89028C12.5113 2.94717 12.4984 3.00861 12.4844 3.08143H11.0959C11.0824 2.53523 11.2527 1.99967 11.581 1.55622C12.028 0.934421 12.6342 0.541883 13.4135 0.412744C13.4499 0.402657 13.485 0.388732 13.5183 0.371216H14.266ZM11.8086 9.3114C11.8671 10.5556 12.867 11.3241 13.9202 11.3099C15.0699 11.2951 15.9494 10.4213 15.9681 9.30798C15.2987 9.08953 14.6255 8.87069 13.9483 8.65148C13.9116 8.6401 13.8721 8.6401 13.8354 8.65148C13.159 8.8705 12.485 9.09066 11.8057 9.3114H11.8086Z" fill="white"/>
<path d="M6.85786 20.2201C5.11426 20.2201 3.37124 20.2246 1.62822 20.2201C1.44252 20.2224 1.25956 20.1764 1.09825 20.0869C0.936936 19.9975 0.803135 19.8677 0.710673 19.7111C0.618212 19.5545 0.570448 19.3768 0.572319 19.1962C0.574189 19.0156 0.625625 18.8388 0.721312 18.6841C0.932534 18.3376 1.25902 18.1783 1.67503 18.1789C3.34023 18.1819 5.00562 18.1819 6.67122 18.1789C8.49205 18.1789 10.3129 18.1749 12.1337 18.1789C12.3194 18.1766 12.5024 18.2226 12.6637 18.312C12.825 18.4015 12.9588 18.5313 13.0513 18.6879C13.1437 18.8445 13.1915 19.0222 13.1896 19.2028C13.1878 19.3834 13.1363 19.5602 13.0406 19.7149C12.8294 20.0619 12.5029 20.2207 12.0869 20.2201C10.3441 20.2182 8.60108 20.2182 6.85786 20.2201Z" fill="white"/>
<path d="M6.88199 23.6265C5.13137 23.6265 3.38075 23.6311 1.62954 23.6265C1.44376 23.629 1.26069 23.5831 1.09924 23.4937C0.937789 23.4043 0.803824 23.2746 0.711189 23.118C0.618554 22.9614 0.570607 22.7836 0.572309 22.603C0.574012 22.4224 0.6253 22.2454 0.72087 22.0905C0.931507 21.7435 1.25799 21.5836 1.674 21.5848C3.23856 21.5871 4.80274 21.5871 6.36652 21.5848C8.28858 21.5848 10.2106 21.5808 12.1327 21.5848C12.3185 21.5823 12.5016 21.6282 12.663 21.7176C12.8244 21.807 12.9584 21.9367 13.051 22.0933C13.1437 22.2499 13.1916 22.4277 13.1899 22.6083C13.1882 22.789 13.1369 22.9659 13.0414 23.1208C12.8307 23.4678 12.5042 23.6271 12.0882 23.6265C10.3528 23.625 8.61741 23.625 6.88199 23.6265Z" fill="white"/>
</g>
<defs>
<clipPath id="clip0_477_14206">
<rect width="24" height="24" fill="white"/>
</clipPath>
</defs>
</svg>
