<svg width="24" height="24" viewBox="0 0 24 24" fill="none" xmlns="http://www.w3.org/2000/svg">
<path d="M9.13478 20.7729V17.7151C9.13478 16.9346 9.77217 16.3018 10.5584 16.3018H13.4326C13.8102 16.3018 14.1723 16.4507 14.4393 16.7158C14.7063 16.9808 14.8563 17.3403 14.8563 17.7151V20.7729C14.8539 21.0974 14.9821 21.4094 15.2124 21.6397C15.4427 21.87 15.7561 21.9995 16.0829 21.9995H18.0438C18.9596 22.0019 19.8388 21.6424 20.4872 21.0003C21.1356 20.3583 21.5 19.4865 21.5 18.5773V9.86637C21.5 9.13197 21.1721 8.43535 20.6046 7.96418L13.934 2.67538C12.7737 1.74807 11.1111 1.77801 9.98539 2.74649L3.46701 7.96418C2.87274 8.42146 2.51755 9.12015 2.5 9.86637V18.5684C2.5 20.4634 4.04738 21.9995 5.95617 21.9995H7.87229C8.55123 21.9995 9.103 21.4557 9.10792 20.7817L9.13478 20.7729Z" fill="white"/>
</svg>
