<svg width="32" height="32" viewBox="0 0 32 32" fill="none" xmlns="http://www.w3.org/2000/svg">
<rect width="32" height="32" rx="8" fill="#6021D1"/>
<g clip-path="url(#clip0_1578_59)">
<path d="M25.9888 10.5166C25.9962 10.5432 26 10.5706 26 10.5982V14.8837C26 14.9956 25.9383 15.099 25.838 15.1547L22.1289 17.2257V21.3303C22.1289 21.3852 22.114 21.4391 22.0857 21.4867C22.0575 21.5343 22.0168 21.5738 21.9678 21.6014L14.225 25.9236C14.2073 25.9333 14.188 25.9395 14.1686 25.9462C14.1613 25.9485 14.1545 25.9528 14.1469 25.9548C14.0927 25.9686 14.0358 25.9686 13.9817 25.9548C13.9728 25.9525 13.9648 25.9478 13.9563 25.9446C13.9386 25.9384 13.9201 25.9329 13.9032 25.9236L6.16195 21.6013C6.11277 21.5739 6.07191 21.5344 6.04347 21.4869C6.01504 21.4393 6.00005 21.3853 6 21.3303V8.47389C6 8.44571 6.00406 8.41836 6.01125 8.39184C6.01367 8.38283 6.0193 8.37465 6.02258 8.36563C6.02859 8.34927 6.0343 8.33245 6.04312 8.31722C6.04914 8.30707 6.05797 8.29889 6.06523 8.2895C6.07453 8.277 6.08297 8.26412 6.09383 8.25313C6.10312 8.24419 6.11523 8.23753 6.1257 8.22972C6.13742 8.22033 6.14781 8.21018 6.16109 8.20275H6.16148L10.0323 6.04169C10.0813 6.01438 10.1369 6 10.1934 6C10.2499 6 10.3055 6.01438 10.3545 6.04169L14.2253 8.20275H14.2261C14.239 8.21063 14.2499 8.22033 14.2616 8.22934C14.272 8.23715 14.2838 8.24419 14.293 8.25283C14.3043 8.26412 14.3123 8.27707 14.322 8.2895C14.3288 8.29889 14.3381 8.30707 14.3438 8.31722C14.353 8.33283 14.3582 8.34927 14.3647 8.36571C14.3679 8.37465 14.3735 8.38283 14.3759 8.39222C14.3834 8.41881 14.3872 8.44631 14.3873 8.47389V16.5037L17.6127 14.7028V10.5978C17.6127 10.5706 17.6168 10.5428 17.6241 10.5166C17.6269 10.5072 17.6321 10.499 17.6353 10.4901C17.6418 10.4737 17.6474 10.4568 17.6562 10.4416C17.6623 10.4315 17.6711 10.4233 17.678 10.4139C17.6877 10.4014 17.6957 10.3885 17.707 10.3775C17.7163 10.3686 17.728 10.3619 17.7384 10.3541C17.7505 10.3447 17.761 10.3346 17.7739 10.3271H17.7743L21.6455 8.16609C21.6945 8.1387 21.75 8.12428 21.8066 8.12428C21.8632 8.12428 21.9187 8.1387 21.9677 8.16609L25.8385 10.3271C25.8522 10.3349 25.8627 10.3447 25.8748 10.3537C25.8848 10.3615 25.8965 10.3686 25.9058 10.3771C25.917 10.3885 25.9251 10.4014 25.9347 10.4139C25.942 10.4233 25.9509 10.4315 25.9566 10.4416C25.9658 10.4568 25.971 10.4737 25.9774 10.4901C25.9811 10.499 25.9863 10.5072 25.9888 10.5166ZM25.3548 14.7028V11.1392L24.0002 11.8953L22.1288 12.9402V16.5038L25.3552 14.7028H25.3548ZM21.484 21.1494V17.5833L19.6432 18.6028L14.3869 21.5118V25.1114L21.484 21.1494ZM6.64523 9.0148V21.1494L13.7416 25.1111V21.5122L10.0344 19.4777L10.0332 19.4769L10.0316 19.4762C10.0191 19.4691 10.0086 19.459 9.99695 19.4504C9.9868 19.4425 9.97516 19.4363 9.96633 19.4277L9.96555 19.4265C9.95508 19.4168 9.94781 19.4046 9.93898 19.3937C9.93086 19.3831 9.92125 19.3742 9.91477 19.3633L9.91438 19.3621C9.90711 19.3504 9.90266 19.3363 9.89742 19.3231C9.89219 19.3113 9.88539 19.3003 9.88211 19.2879V19.2875C9.87813 19.2727 9.87734 19.257 9.8757 19.2418C9.87414 19.2301 9.87086 19.2184 9.87086 19.2066V10.8159L7.99984 9.77056L6.64523 9.01525V9.0148ZM10.1938 6.67366L6.96867 8.47389L10.193 10.274L13.4177 8.47343L10.193 6.67366H10.1938ZM11.871 17.9084L13.742 16.864V9.0148L12.3875 9.77101L10.516 10.8158V18.6649L11.871 17.9084ZM21.8066 8.79806L18.5819 10.5982L21.8066 12.3984L25.0309 10.5978L21.8066 8.79806ZM21.4839 12.9402L19.6126 11.8953L18.258 11.1392V14.7028L20.129 15.7473L21.484 16.5038L21.4839 12.9402ZM14.0638 20.9709L18.7937 18.3524L21.1581 17.044L17.9358 15.2449L14.2257 17.3162L10.8443 19.2039L14.0638 20.9709Z" fill="white"/>
</g>
<defs>
<clipPath id="clip0_1578_59">
<rect width="20" height="20" fill="white" transform="translate(6 6)"/>
</clipPath>
</defs>
</svg>
