<svg width="17" height="17" viewBox="0 0 17 17" fill="none" xmlns="http://www.w3.org/2000/svg">
<path d="M12.0765 16.1318L12.0704 16.1257C12.0704 16.1075 12.0583 16.0893 12.0522 16.0771C12.0401 16.0346 12.0158 15.9982 11.9915 15.9618C11.9672 15.9314 11.9429 15.895 11.9126 15.8646C11.8822 15.8343 11.8519 15.81 11.8154 15.7857C11.779 15.7614 11.7487 15.7432 11.7062 15.725C11.6819 15.7129 11.6515 15.7007 11.6212 15.7007C11.5847 15.6886 11.5422 15.6825 11.4997 15.6764C11.4815 15.6704 11.4633 15.6704 11.4451 15.6704H11.3722H3.3033C2.42902 15.6704 1.87652 15.1118 1.87045 14.2436V9.01C1.87652 8.12964 2.42902 7.57107 3.30937 7.57107H12.6533C12.8051 7.57107 12.9629 7.58321 13.1147 7.6075C13.5215 7.68643 13.8676 7.47393 13.9344 7.11571C14.0133 6.715 13.7704 6.39321 13.3454 6.30821C12.9751 6.22929 12.5987 6.2475 12.2222 6.24143C12.1312 6.24143 12.0401 6.25964 11.949 6.22929V4.15893C11.949 4.08607 11.949 4.01929 11.9429 3.94643V3.81286C11.9429 3.77036 11.9369 3.72179 11.9369 3.67929C11.9369 3.66107 11.9308 3.64286 11.9308 3.62464C11.9308 3.6125 11.9308 3.59429 11.9247 3.57607V3.55786C11.7487 1.82143 10.4737 0.406786 8.7433 0.0728571C8.73116 0.0728571 8.71295 0.0667857 8.7008 0.0667857C8.7008 0.0667857 8.7008 0.0667857 8.69473 0.0667857C8.60973 0.0546429 8.52473 0.0546429 8.43973 0.0303571C8.28188 0.0121429 8.13009 0 7.97223 0C7.80223 0 7.63223 0.0121429 7.4683 0.0303571C7.40152 0.0546429 7.32866 0.0546429 7.2558 0.0667857C7.24366 0.0667857 7.22545 0.0667857 7.2133 0.0728571C5.46473 0.412857 4.12295 1.85179 4.00759 3.62464C4.00759 3.64893 4.00759 3.67929 4.00152 3.70964C4.00152 3.81893 3.99545 3.92821 3.99545 4.0375C3.97723 4.675 3.99545 5.3125 3.99545 5.95V6.24143H3.20616C1.92509 6.25357 0.874732 7.10964 0.601518 8.36643C0.559018 8.56679 0.546875 8.77321 0.546875 8.97964V14.2557C0.546875 15.6461 1.40902 16.6964 2.76902 16.9636C2.78116 16.9636 2.78723 16.9636 2.79938 16.9696C2.80545 16.9757 2.81152 16.9757 2.81759 16.9757C2.87223 16.9939 2.93295 17 2.99366 17H11.4451L11.5969 16.9818C11.7608 16.9454 11.9065 16.8421 11.9915 16.7025C11.9976 16.6964 12.0037 16.6964 12.0037 16.6904C12.0219 16.66 12.0401 16.6296 12.0522 16.5932C12.0704 16.5568 12.0826 16.5204 12.0887 16.4839L12.1069 16.3382C12.1069 16.2836 12.1008 16.2289 12.0887 16.1804C12.0887 16.1621 12.0826 16.1439 12.0765 16.1318ZM5.31902 6.10786V3.9525C5.32509 2.65321 6.24795 1.56036 7.50473 1.36607C8.84045 1.15964 10.079 1.88821 10.4919 3.12071C10.5587 3.315 10.6072 3.51536 10.6133 3.72179C10.6194 4.55357 10.6133 5.39143 10.6133 6.24143H5.3433C5.3008 6.19893 5.31902 6.15036 5.31902 6.10786Z" fill="#0C1928"/>
<path d="M16.0615 9.71979C15.5218 8.89468 14.4872 8.49336 13.5292 8.73743C12.4909 9.00154 11.735 9.96993 11.7502 11.0173C11.7557 11.3797 12.0247 11.6675 12.3756 11.6863C12.7356 11.7051 13.0368 11.441 13.072 11.0749C13.0787 11.0033 13.0805 10.931 13.0926 10.8606C13.1904 10.2802 13.7423 9.8995 14.3105 10.0197C14.8825 10.1405 15.237 10.7034 15.098 11.2741C15.0227 11.5819 14.8388 11.809 14.5558 11.9474C14.285 12.0797 14.0367 12.2382 13.8449 12.475C13.5213 12.8739 13.4132 13.3365 13.4423 13.8156C13.4423 13.9613 13.4369 14.0827 13.4435 14.2041C13.4642 14.5721 13.758 14.8477 14.1169 14.841C14.4684 14.8344 14.7507 14.5557 14.7647 14.195C14.7708 14.0402 14.775 13.8848 14.7647 13.7306C14.7459 13.4464 14.863 13.2606 15.1235 13.1429C15.4659 12.988 15.7458 12.7506 15.9747 12.4501C16.58 11.6523 16.6165 10.568 16.0615 9.71979Z" fill="#0C1928"/>
<path d="M3.59767 11.4938C3.6001 11.8581 3.90003 12.1544 4.26431 12.1514C4.62617 12.1483 4.92489 11.8447 4.92124 11.4823C4.9176 11.1198 4.61524 10.8217 4.25278 10.8254C3.8891 10.8284 3.59524 11.1283 3.59767 11.4938Z" fill="#0C1928"/>
<path d="M6.08206 11.4805C6.07842 11.8466 6.37107 12.1471 6.73474 12.1514C7.09721 12.1556 7.40078 11.8593 7.40564 11.4963C7.41049 11.1344 7.11299 10.8296 6.75114 10.8254C6.38685 10.8211 6.08571 11.1162 6.08206 11.4805Z" fill="#0C1928"/>
<path d="M8.56839 11.4798C8.56475 11.8453 8.85739 12.1465 9.22107 12.1513C9.58354 12.1556 9.88711 11.8593 9.89196 11.4962C9.89682 11.1344 9.59932 10.829 9.23746 10.8247C8.87318 10.8211 8.57204 11.1162 8.56839 11.4798Z" fill="#0C1928"/>
<path d="M14.1012 16.9981C14.4667 16.9981 14.763 16.7018 14.763 16.3363C14.763 15.9709 14.4667 15.6746 14.1012 15.6746C13.7357 15.6746 13.4395 15.9709 13.4395 16.3363C13.4395 16.7018 13.7357 16.9981 14.1012 16.9981Z" fill="#0C1928"/>
</svg>
