<svg width="16" height="18" viewBox="0 0 16 18" fill="none" xmlns="http://www.w3.org/2000/svg">
<path d="M11.4581 6.04225C13.5798 6.04225 15.3 7.72454 15.3 9.79944V14.2426C15.3 16.3175 13.5798 17.9998 11.4581 17.9998H3.84192C1.72022 17.9998 0 16.3175 0 14.2426V9.79944C0 7.72454 1.72022 6.04225 3.84192 6.04225H11.4581ZM7.64543 10.2457C7.20646 10.2457 6.84979 10.5945 6.84979 11.0238V13.0093C6.84979 13.4475 7.20646 13.7963 7.64543 13.7963C8.09354 13.7963 8.45021 13.4475 8.45021 13.0093V11.0238C8.45021 10.5945 8.09354 10.2457 7.64543 10.2457Z" fill="#0C1928"/>
<path opacity="0.4" d="M12.6206 4.85636V6.18C12.3005 6.09057 11.9621 6.04585 11.6146 6.04585H11.0202V4.85636C11.0202 3.04081 9.51119 1.56512 7.6547 1.56512C5.79822 1.56512 4.28925 3.03187 4.28011 4.83847V6.04585H3.69481C3.33815 6.04585 2.99977 6.09057 2.67969 6.18895V4.85636C2.68883 2.17329 4.91113 0 7.63641 0C10.3983 0 12.6206 2.17329 12.6206 4.85636Z" fill="#0C1928"/>
</svg>
