<svg width="20" height="18" viewBox="0 0 20 18" fill="none" xmlns="http://www.w3.org/2000/svg">
<path opacity="0.4" d="M19.9993 12.94C19.9993 15.7299 17.7594 17.9898 14.9695 17.9998H14.9595H5.04984C2.26993 17.9998 0 15.7499 0 12.96V12.95C0 12.95 0.0059998 8.52411 0.0139995 6.29818C0.0149995 5.8802 0.494984 5.6462 0.821973 5.90619C3.1979 7.79113 7.44676 11.228 7.49976 11.273C8.20973 11.842 9.1097 12.163 10.0297 12.163C10.9496 12.163 11.8496 11.842 12.5596 11.262C12.6126 11.227 16.7665 7.89313 19.1784 5.97719C19.5064 5.7162 19.9883 5.95019 19.9893 6.36718C19.9993 8.57611 19.9993 12.94 19.9993 12.94Z" fill="#0C1928"/>
<path d="M19.4762 2.67391C18.6103 1.04197 16.9063 0 15.0304 0H5.05071C3.17477 0 1.47083 1.04197 0.604857 2.67391C0.410863 3.0389 0.50286 3.49389 0.82585 3.75188L8.25061 9.69068C8.77059 10.1107 9.40057 10.3197 10.0305 10.3197C10.0345 10.3197 10.0375 10.3197 10.0405 10.3197C10.0435 10.3197 10.0475 10.3197 10.0505 10.3197C10.6805 10.3197 11.3105 10.1107 11.8305 9.69068L19.2552 3.75188C19.5782 3.49389 19.6702 3.0389 19.4762 2.67391Z" fill="#0C1928"/>
</svg>
