<svg width="27" height="24" viewBox="0 0 27 24" fill="none" xmlns="http://www.w3.org/2000/svg">
<path d="M19.682 0H7.23013C3.11297 0 0 3.31381 0 7.73222V16.2678C0 18.477 0.803347 20.5858 2.30962 21.9916C3.61506 23.2971 5.32218 24 7.23013 24H19.682C21.59 24 23.2971 23.2971 24.6025 21.9916C26.1088 20.5858 26.9121 18.5774 26.9121 16.2678V7.73222C26.9121 3.31381 23.7992 0 19.682 0ZM25.205 16.1674C25.205 17.9749 24.6025 19.5816 23.3975 20.7866C22.3933 21.7908 21.0879 22.2929 19.682 22.2929H7.23013C5.72385 22.2929 4.41841 21.7908 3.41423 20.7866C2.20921 19.682 1.60669 18.0753 1.60669 16.1674V7.73222C1.60669 4.21757 3.91632 1.60669 7.23013 1.60669H19.5816C22.795 1.60669 25.205 4.11716 25.205 7.73222V16.1674Z" fill="#0C1928"/>
<path d="M20.3858 7.43082L14.7624 11.8492C13.9591 12.4517 12.9549 12.4517 12.1515 11.8492L6.5281 7.43082C6.42768 7.3304 6.22684 7.22998 6.026 7.22998C5.82517 7.22998 5.52391 7.3304 5.42349 7.53124C5.22266 7.73207 5.22266 7.93291 5.22266 8.13375C5.22266 8.33458 5.32307 8.53542 5.52391 8.63584L11.1473 13.1547C11.8503 13.6568 12.6536 13.958 13.457 13.958C14.2603 13.958 15.1641 13.6568 15.7666 13.1547L21.39 8.73626C21.5909 8.63584 21.6913 8.435 21.6913 8.23416C21.6913 8.03333 21.6913 7.83249 21.4904 7.63165C21.2896 7.22998 20.6871 7.12956 20.3858 7.43082Z" fill="#0C1928"/>
</svg>
