<svg width="24" height="25" viewBox="0 0 24 25" fill="none" xmlns="http://www.w3.org/2000/svg">
<rect y="0.498047" width="24" height="24" rx="4" fill="#F13C3C" fillOpacity="0.1"/>
<path d="M19.9936 11.8107C19.9916 11.7804 19.9859 11.7514 19.9759 11.7227C19.9723 11.712 19.9696 11.7017 19.9649 11.6914C19.9489 11.6567 19.9286 11.624 19.9006 11.5964C19.9003 11.596 19.9003 11.596 19.9003 11.596L17.9979 9.69338V7.83138C17.9979 7.82405 17.9943 7.81771 17.9936 7.81038C17.9916 7.78105 17.9859 7.75271 17.9766 7.72471C17.9729 7.71405 17.9703 7.70371 17.9653 7.69338C17.9489 7.65805 17.9286 7.62438 17.8999 7.59571L14.8999 4.59571C14.8713 4.56705 14.8376 4.54638 14.8019 4.53005C14.7919 4.52571 14.7819 4.52271 14.7719 4.51938C14.7433 4.50938 14.7139 4.50371 14.6839 4.50171C14.6773 4.50138 14.6713 4.49805 14.6646 4.49805H6.33126C6.14726 4.49805 5.99792 4.64738 5.99792 4.83138V9.69338L4.09559 11.5957C4.09559 11.5957 4.09526 11.596 4.09492 11.5964C4.06692 11.6244 4.04692 11.657 4.03092 11.6914C4.02626 11.7017 4.02359 11.712 4.01992 11.7227C4.00992 11.7514 4.00392 11.7804 4.00226 11.8107C4.00159 11.818 3.99792 11.824 3.99792 11.8314V18.1647C3.99792 18.3487 4.14726 18.498 4.33126 18.498H5.99792V20.1647C5.99792 20.3487 6.14726 20.498 6.33126 20.498H17.6646C17.8486 20.498 17.9979 20.3487 17.9979 20.1647V18.498H19.6646C19.8486 18.498 19.9979 18.3487 19.9979 18.1647V11.8314C19.9979 11.824 19.9943 11.818 19.9936 11.8107ZM18.8599 11.498H17.9979V10.636L18.8599 11.498ZM16.8599 7.49805H14.9979V5.63605L16.8599 7.49805ZM6.66459 5.16471H14.3313V7.83138C14.3313 8.01538 14.4806 8.16471 14.6646 8.16471H17.3313V9.83138V11.498H6.66459V9.83138V5.16471ZM5.99792 10.636V11.498H5.13592L5.99792 10.636ZM17.3313 19.8314H6.66459V18.498H17.3313V19.8314ZM19.3313 17.8314H4.66459V12.1647H6.33126H17.6646H19.3313V17.8314Z" fill="#F13C3C"/>
<path d="M10.0819 13.4043C9.9742 13.312 9.85253 13.2467 9.7162 13.209C9.5802 13.1713 9.44786 13.1523 9.31953 13.1523H8.20886V17.1643H8.87753V15.555H9.35353C9.4932 15.555 9.6292 15.5303 9.76153 15.4813C9.89386 15.4323 10.0109 15.3567 10.1129 15.2547C10.2149 15.1527 10.2969 15.0253 10.3595 14.872C10.4219 14.719 10.4532 14.5407 10.4532 14.3367C10.4532 14.11 10.4182 13.921 10.3482 13.77C10.2782 13.619 10.1895 13.497 10.0819 13.4043ZM9.6542 14.8327C9.5522 14.944 9.42186 14.9997 9.2632 14.9997H8.87786V13.7247H9.2632C9.42186 13.7247 9.5522 13.7737 9.6542 13.872C9.7562 13.9703 9.8072 14.127 9.8072 14.3423C9.8072 14.5577 9.7562 14.721 9.6542 14.8327Z" fill="#F13C3C"/>
<path d="M14.2401 17.1643H14.9258V15.4417H15.9514V14.858H14.9204V13.7643H16.0364V13.1523H14.2401V17.1643Z" fill="#F13C3C"/>
<path d="M12.0222 13.1523H11.0135V17.1643H12.0166C12.5342 17.1643 12.9262 16.9897 13.1926 16.6403C13.4589 16.2907 13.5919 15.7987 13.5919 15.164C13.5919 14.5293 13.4589 14.0353 13.1926 13.682C12.9262 13.329 12.5362 13.1523 12.0222 13.1523ZM12.8469 15.7787C12.8035 15.9547 12.7419 16.101 12.6629 16.218C12.5835 16.335 12.4892 16.423 12.3796 16.4813C12.2699 16.54 12.1509 16.5693 12.0225 16.5693H11.6996V13.7473H12.0225C12.1509 13.7473 12.2699 13.7767 12.3796 13.8353C12.4892 13.8937 12.5835 13.9817 12.6629 14.0987C12.7422 14.2157 12.8035 14.363 12.8469 14.5407C12.8902 14.7183 12.9122 14.926 12.9122 15.164C12.9122 15.3983 12.8902 15.603 12.8469 15.7787Z" fill="#F13C3C"/>
</svg>
