<svg width="32" height="32" viewBox="0 0 32 32" fill="none" xmlns="http://www.w3.org/2000/svg">
<rect width="32" height="32" rx="8" fill="#6021D1"/>
<path d="M11.8493 12.7071C12.2496 12.3165 12.2496 11.6834 11.8493 11.2929C11.4491 10.9024 10.8002 10.9024 10.3999 11.2929L6.3002 15.2928C5.89993 15.6833 5.89993 16.3164 6.3002 16.707L10.3999 20.7069C10.8002 21.0974 11.4491 21.0974 11.8493 20.7069C12.2496 20.3163 12.2496 19.6832 11.8493 19.2927L8.47466 16.0002L11.8493 12.7071ZM24.5253 16.0002L21.1507 19.2927C20.7504 19.6832 20.7504 20.3163 21.1507 20.7069C21.5509 21.0974 22.1998 21.0974 22.6001 20.7069L26.6998 16.707C27.1001 16.3164 27.1001 15.6833 26.6998 15.2928L22.6001 11.2929C22.1998 10.9024 21.5509 10.9024 21.1507 11.2929C20.7504 11.6834 20.7504 12.3165 21.1507 12.7071L24.5253 16.0002ZM15.8204 11.6494C15.6217 11.1325 15.0309 10.8701 14.5011 11.0645C13.9712 11.2583 13.7023 11.8348 13.9015 12.3517L16.9764 20.3509C17.1751 20.8678 17.7659 21.1303 18.2958 20.9358C18.8256 20.742 19.094 20.1656 18.8953 19.6486L15.8204 11.6494Z" fill="white"/>
</svg>
