<svg width="24" height="25" viewBox="0 0 24 25" fill="none" xmlns="http://www.w3.org/2000/svg">
<rect y="0.498047" width="24" height="24" rx="4" fill="#FF8400" fillOpacity="0.1"/>
<path d="M8.56836 10.398V5.49805H17.1872V10.398" stroke="#FF8400" strokeLinecap="round" strokeLinejoin="round"/>
<path d="M8.56826 16.6984H7.13179C6.75081 16.6984 6.38544 16.5509 6.11605 16.2884C5.84665 16.0258 5.69531 15.6697 5.69531 15.2984V11.7984C5.69531 11.4271 5.84665 11.071 6.11605 10.8085C6.38544 10.5459 6.75081 10.3984 7.13179 10.3984H18.6236C19.0046 10.3984 19.3699 10.5459 19.6393 10.8085C19.9087 11.071 20.0601 11.4271 20.0601 11.7984V15.2984C20.0601 15.6697 19.9087 16.0258 19.6393 16.2884C19.3699 16.5509 19.0046 16.6984 18.6236 16.6984H17.1871" stroke="#FF8400" strokeLinecap="round" strokeLinejoin="round"/>
<path d="M17.1872 13.8984H8.56836V19.4984H17.1872V13.8984Z" stroke="#FF8400" strokeLinecap="round" strokeLinejoin="round"/>
</svg>
