<svg width="24" height="24" viewBox="0 0 24 24" fill="none" xmlns="http://www.w3.org/2000/svg">
<path d="M22 10.2835V13.7212C21.8518 14.0563 21.5935 14.1753 21.2339 14.1549C20.8743 14.1345 20.5033 14.1502 20.1782 14.1502L19.2983 16.2675C19.5478 16.5144 19.8202 16.7832 20.0936 17.0545C20.4417 17.4032 20.4396 17.7111 20.0879 18.0634C19.4119 18.7408 18.7352 19.4173 18.0578 20.093C17.705 20.4453 17.4018 20.4458 17.0501 20.093C16.7746 19.8185 16.5006 19.5419 16.236 19.2768C15.8994 19.4375 15.5894 19.6024 15.2664 19.7355C14.9433 19.8686 14.5932 19.9693 14.2607 20.0972C14.2311 20.114 14.2059 20.1376 14.1871 20.166C14.1682 20.1943 14.1563 20.2267 14.1522 20.2605C14.1423 20.6259 14.148 20.9912 14.147 21.3539C14.147 21.7636 13.9147 22 13.5113 22C12.5024 22 11.4934 22 10.4845 22C10.0894 22 9.85304 21.7641 9.852 21.3711C9.852 20.9614 9.852 20.5517 9.852 20.1791L7.74366 19.3029C7.75671 19.2935 7.74366 19.3002 7.73583 19.3091C7.4822 19.5617 7.22893 19.8147 6.976 20.068C6.59504 20.4479 6.30123 20.45 5.926 20.0747C5.25349 19.4029 4.5815 18.7309 3.91003 18.0587C3.55882 17.7069 3.5583 17.4016 3.91003 17.0514C4.18558 16.7758 4.46216 16.5024 4.72727 16.2388C4.56549 15.9006 4.40059 15.5906 4.26751 15.2676C4.13444 14.9445 4.03319 14.5943 3.90586 14.2614C3.88885 14.2318 3.86517 14.2067 3.83672 14.1879C3.80827 14.1692 3.77583 14.1573 3.74199 14.1533C3.37668 14.1434 3.01138 14.1492 2.64607 14.1481C2.23641 14.1481 2.00052 13.9164 2 13.5124C2 12.5035 2 11.4945 2 10.4855C2 10.0899 2.23536 9.85397 2.62624 9.85293C3.0359 9.85293 3.44557 9.85293 3.81766 9.85293L4.69857 7.73457C4.44495 7.48406 4.16575 7.21267 3.8902 6.9345C3.55882 6.6031 3.56038 6.28996 3.8949 5.95491C4.57959 5.2681 5.26532 4.58215 5.9521 3.89708C6.28557 3.56411 6.60025 3.56307 6.93163 3.89291C7.2124 4.17264 7.49055 4.45446 7.73479 4.69975L9.84887 3.82245C9.84887 3.4874 9.86505 3.11581 9.84469 2.74631C9.82486 2.3909 9.95428 2.14509 10.2778 2H13.7159C14.0394 2.14509 14.1704 2.39194 14.1485 2.74631C14.1292 3.07093 14.1485 3.39711 14.1417 3.72277C14.1386 3.84333 14.1819 3.88456 14.2941 3.92161C14.6594 4.04008 15.02 4.16481 15.3733 4.31094C15.6645 4.4315 15.9417 4.58546 16.2344 4.72846C16.5126 4.44716 16.786 4.16847 17.0621 3.89343C17.393 3.56255 17.7087 3.56359 18.0422 3.89343C18.7237 4.57398 19.4049 5.25522 20.0858 5.93716C20.437 6.28944 20.4386 6.59684 20.091 6.94598C19.816 7.22154 19.5394 7.49554 19.2983 7.73561L20.175 9.8498C20.5101 9.8498 20.8816 9.86546 21.2511 9.84562C21.6086 9.83049 21.8549 9.96044 22 10.2835ZM6.53032 11.9969C6.5251 14.9967 8.98309 17.4621 11.989 17.4721C14.9866 17.482 17.4545 15.0259 17.4686 12.0177C17.4827 9.00955 15.0106 6.53369 12 6.53264C8.99822 6.53212 6.53658 8.99233 6.53032 11.9969Z" fill="white"/>
<path d="M11.4138 9.07327C11.4138 9.47461 11.407 9.8509 11.4138 10.2272C11.4237 10.6619 11.8266 10.938 12.2127 10.7851C12.4403 10.6948 12.5817 10.4756 12.5843 10.1964C12.5843 9.83106 12.5843 9.46574 12.5843 9.07327H12.7774C13.2784 9.07327 13.7796 9.07327 14.2809 9.07327C14.6911 9.07327 14.9264 9.30447 14.9264 9.70894C14.9264 11.2398 14.9264 12.7707 14.9264 14.3016C14.9264 14.6962 14.6895 14.9331 14.2966 14.9336C12.7657 14.9336 11.2349 14.9336 9.70413 14.9336C9.29916 14.9336 9.06641 14.6982 9.06641 14.2901C9.06641 12.7662 9.06641 11.2426 9.06641 9.71938C9.06641 9.31021 9.29812 9.07641 9.70361 9.07588C10.2683 9.07275 10.8272 9.07327 11.4138 9.07327Z" fill="white"/>
</svg>
