<svg width="46" height="51" viewBox="0 0 46 51" fill="none" xmlns="http://www.w3.org/2000/svg">
<path d="M10.6161 35.3678C9.90996 35.3678 9.34429 34.7738 9.34429 34.0413C9.34429 33.3089 9.91776 32.7148 10.6161 32.7148H18.9997C19.7058 32.7148 20.2715 33.3089 20.2715 34.0413C20.2715 34.7738 19.7019 35.3678 18.9997 35.3678H10.6161ZM24.594 31.5226C24.2195 31.5226 23.8996 31.189 23.8996 30.7821C23.8996 30.3914 24.2195 30.0578 24.594 30.0578H26.408C26.4236 30.0578 26.4626 30.0578 26.4782 30.0578C27.118 30.0741 27.6876 30.2043 28.1674 30.5216C28.7019 30.8757 29.092 31.4128 29.3066 32.2103C29.3066 32.2266 29.3066 32.2469 29.3261 32.2673L29.5055 33.0078H45.0673C45.4574 33.0078 45.7617 33.3415 45.7617 33.7321C45.7617 33.8053 45.7422 33.8786 45.7266 33.9559L43.9126 41.5812C43.8423 41.9149 43.5576 42.1387 43.2377 42.1387H31.854C32.1037 43.103 32.3534 43.6239 32.6889 43.8639C33.0985 44.1406 33.8085 44.161 35.0023 44.1406H35.0179H43.0582C43.4483 44.1406 43.7526 44.4743 43.7526 44.8649C43.7526 45.2718 43.4327 45.5892 43.0582 45.5892H35.014C33.5354 45.6055 32.6304 45.5689 31.9009 45.0684C31.1518 44.5475 30.7617 43.6605 30.3716 42.0451L27.988 32.6335C27.988 32.6131 27.988 32.6131 27.9724 32.5968C27.867 32.1899 27.6876 31.9092 27.4379 31.7627C27.1882 31.5959 26.8527 31.5226 26.4587 31.5226C26.4392 31.5226 26.4236 31.5226 26.4041 31.5226H24.594ZM40.975 46.4396C41.9191 46.4396 42.6837 47.2371 42.6837 48.2218C42.6837 49.2065 41.9191 50.0041 40.975 50.0041C40.0309 50.0041 39.2663 49.2065 39.2663 48.2218C39.2663 47.2371 40.0309 46.4396 40.975 46.4396ZM33.4847 46.4396C34.4288 46.4396 35.1934 47.2371 35.1934 48.2218C35.1934 49.2065 34.4288 50.0041 33.4847 50.0041C32.5406 50.0041 31.776 49.2065 31.776 48.2218C31.776 47.2371 32.5445 46.4396 33.4847 46.4396ZM10.6161 13.6637C9.90996 13.6637 9.34429 13.0656 9.34429 12.3372C9.34429 11.6048 9.91776 11.0107 10.6161 11.0107H30.3248C31.0309 11.0107 31.5966 11.6048 31.5966 12.3372C31.5966 13.0697 31.027 13.6637 30.3248 13.6637H10.6161ZM3.711 0H37.1167C37.9321 0 38.6733 0.345866 39.2038 0.899251C39.7344 1.45264 40.066 2.22575 40.066 3.07617V27.4821H37.5302V3.08838C37.5302 2.97038 37.4834 2.86051 37.4093 2.77913C37.3313 2.70182 37.226 2.65299 37.1128 2.65299H3.711C3.59786 2.65299 3.49253 2.70182 3.41451 2.77913C3.33649 2.85645 3.29747 2.97038 3.29747 3.08838V43.2373C3.29747 43.3553 3.34429 43.4652 3.41841 43.5466C3.49253 43.6279 3.59786 43.6727 3.7149 43.6727H25.1908C25.4288 44.6452 25.698 45.4956 26.0608 46.3053H3.711C2.89565 46.3053 2.15443 45.9595 1.62387 45.4061C1.08941 44.8568 0.757812 44.0837 0.757812 43.2332V3.08024C0.757812 2.22982 1.08941 1.45264 1.61997 0.899251C2.15053 0.345866 2.89565 0 3.711 0ZM10.6161 24.5158C9.90996 24.5158 9.34429 23.9217 9.34429 23.1893C9.34429 22.4569 9.91776 21.8628 10.6161 21.8628H30.3248C31.0309 21.8628 31.5966 22.4569 31.5966 23.1893C31.5966 23.9217 31.027 24.5158 30.3248 24.5158H10.6161Z" fill="#17DA94"/>
</svg>
