<svg width="32" height="32" viewBox="0 0 32 32" fill="none" xmlns="http://www.w3.org/2000/svg">
<rect width="32" height="32" rx="8" fill="#6021D1"/>
<path d="M22.444 12.8342C22.2311 12.7603 22.0165 12.6919 21.8002 12.6289C21.8366 12.4788 21.87 12.3304 21.8997 12.1847C22.387 9.79166 22.0684 7.86376 20.9802 7.22901C19.9369 6.62049 18.2305 7.25501 16.5073 8.77211C16.3374 8.92189 16.1714 9.07599 16.0092 9.23427C15.9007 9.12903 15.7902 9.02583 15.6779 8.92472C13.8718 7.30259 12.0615 6.61891 10.9745 7.25548C9.93203 7.8659 9.62336 9.67825 10.0621 11.9462C10.1058 12.1708 10.155 12.3943 10.2099 12.6164C9.95367 12.69 9.70641 12.7684 9.46977 12.8519C7.35227 13.5987 6 14.769 6 15.983C6 17.2367 7.45172 18.4943 9.65719 19.2569C9.83599 19.3184 10.0163 19.3755 10.1979 19.428C10.1389 19.6672 10.0866 19.908 10.0409 20.1501C9.62258 22.3787 9.94922 24.1482 10.9888 24.7548C12.0626 25.3812 13.8648 24.7374 15.6195 23.1857C15.7618 23.0595 15.901 22.9298 16.0369 22.7966C16.2125 22.968 16.3927 23.1344 16.5775 23.2956C18.2773 24.7752 19.9561 25.3726 20.9947 24.7644C22.0674 24.1362 22.4161 22.2353 21.9634 19.9225C21.9278 19.7413 21.8878 19.561 21.8435 19.3818C21.9701 19.3439 22.0943 19.3048 22.2154 19.2642C24.5082 18.4958 26 17.2535 26 15.983C26 14.7646 24.6041 13.5864 22.444 12.8342ZM21.9467 18.4439C21.8372 18.4805 21.7253 18.5159 21.6108 18.5502C21.3577 17.7396 21.0161 16.8777 20.598 15.9872C20.997 15.1178 21.3254 14.2669 21.5714 13.4616C21.776 13.5216 21.9745 13.5847 22.1659 13.6513C24.0167 14.2959 25.1456 15.2487 25.1456 15.983C25.1456 16.765 23.9264 17.7803 21.9467 18.4439ZM21.1253 20.0904C21.3255 21.113 21.354 22.0376 21.2214 22.7605C21.1023 23.41 20.8628 23.843 20.5666 24.0165C19.9363 24.3856 18.5884 23.9059 17.1348 22.6405C16.9629 22.4906 16.7952 22.3359 16.6319 22.1766C17.1955 21.5531 17.7587 20.8283 18.3084 20.0234C19.2752 19.9366 20.1887 19.7947 21.017 19.601C21.0579 19.7675 21.094 19.9307 21.1253 20.0904ZM12.8184 23.9527C12.2027 24.1727 11.7122 24.179 11.4157 24.0061C10.7848 23.638 10.5226 22.2172 10.8803 20.3113C10.9228 20.0861 10.9715 19.8622 11.0263 19.6397C11.8455 19.823 12.7523 19.9548 13.7215 20.0343C14.2749 20.822 14.8544 21.546 15.4384 22.18C15.3142 22.3014 15.1872 22.4198 15.0573 22.535C14.2813 23.2211 13.5038 23.7079 12.8184 23.9527ZM9.93359 18.4391C8.95836 18.1019 8.15297 17.6637 7.60094 17.1855C7.10484 16.7558 6.85445 16.3291 6.85445 15.983C6.85445 15.2463 7.94016 14.3066 9.75102 13.668C9.97078 13.5905 10.2008 13.5174 10.4395 13.4488C10.6898 14.2723 11.018 15.1333 11.4142 16.004C11.0129 16.8875 10.6799 17.7623 10.4272 18.5955C10.2614 18.5474 10.0968 18.4953 9.93359 18.4391ZM10.9006 11.7802C10.5248 9.8371 10.7744 8.37136 11.4026 8.00349C12.0716 7.61166 13.5512 8.17031 15.1106 9.57101C15.2123 9.66255 15.3124 9.75595 15.4107 9.85117C14.8296 10.4824 14.2555 11.201 13.707 11.984C12.7663 12.0722 11.8659 12.2138 11.0381 12.4035C10.9871 12.197 10.9413 11.9891 10.9006 11.7802ZM19.5277 13.9352C19.3322 13.5935 19.1294 13.2562 18.9195 12.9234C19.5577 13.005 20.1691 13.1134 20.7432 13.2458C20.5709 13.8047 20.356 14.389 20.1031 14.988C19.9183 14.6332 19.7264 14.2822 19.5277 13.9352ZM16.0096 10.4689C16.4037 10.9008 16.7984 11.383 17.1866 11.9061C16.3991 11.8685 15.6102 11.8684 14.8227 11.9057C15.2113 11.3873 15.6094 10.9058 16.0096 10.4689ZM12.4689 13.941C12.2727 14.2853 12.0844 14.6341 11.9043 14.9872C11.6555 14.3903 11.4427 13.8034 11.2688 13.2366C11.8395 13.1074 12.448 13.0019 13.082 12.9217C12.8698 13.2566 12.6654 13.5965 12.4689 13.941ZM13.1002 19.1056C12.4452 19.0316 11.8275 18.9315 11.257 18.8058C11.4336 18.2289 11.6512 17.6295 11.9053 17.0198C12.0862 17.3732 12.2752 17.7222 12.4723 18.0666C12.6749 18.4207 12.8848 18.7674 13.1002 19.1056ZM16.0332 21.5578C15.6282 21.1159 15.2243 20.627 14.8298 20.1011C15.2128 20.1163 15.6032 20.124 16 20.124C16.4077 20.124 16.8106 20.1148 17.2073 20.0969C16.8178 20.6323 16.4246 21.1219 16.0332 21.5578ZM20.1112 16.9887C20.3785 17.6051 20.6038 18.2014 20.7827 18.7684C20.2029 18.9023 19.5768 19.0101 18.9171 19.0901C19.1285 18.7511 19.3332 18.4079 19.5311 18.0607C19.7323 17.7078 19.9257 17.3503 20.1112 16.9887ZM18.791 17.6289C18.488 18.1612 18.1681 18.6835 17.8316 19.1948C17.222 19.2385 16.6111 19.2602 16 19.2599C15.3776 19.2599 14.7722 19.2403 14.1892 19.202C13.8439 18.6919 13.5178 18.1687 13.2116 17.6336C12.9069 17.1014 12.6223 16.5576 12.3584 16.0035C12.6216 15.4493 12.9054 14.9052 13.2091 14.3726L13.2091 14.3727C13.5126 13.8399 13.8361 13.3189 14.1788 12.811C14.7736 12.7655 15.3835 12.7418 15.9999 12.7418C16.6191 12.7418 17.2299 12.7657 17.8245 12.8116C18.1638 13.3187 18.4852 13.8379 18.7882 14.368C19.0929 14.8995 19.3804 15.4409 19.6504 15.9913C19.3832 16.5473 19.0966 17.0935 18.791 17.6289ZM20.5535 7.97764C21.2232 8.36836 21.4837 9.94394 21.0629 12.0101C21.0359 12.1421 21.006 12.2761 20.973 12.4124C20.1432 12.2186 19.2422 12.0745 18.2988 11.985C17.7493 11.1934 17.1798 10.4737 16.6082 9.85061C16.758 9.70453 16.9114 9.56224 17.0682 9.42386C18.5448 8.12408 19.9248 7.61087 20.5535 7.97764ZM16 14.1764C16.9863 14.1764 17.7859 14.9852 17.7859 15.983C17.7859 16.9807 16.9863 17.7895 16 17.7895C15.0137 17.7895 14.2141 16.9807 14.2141 15.983C14.2141 14.9852 15.0137 14.1764 16 14.1764Z" fill="white"/>
</svg>
