<svg width="47" height="48" viewBox="0 0 47 48" fill="none" xmlns="http://www.w3.org/2000/svg">
<path d="M24.9379 1.50514V4.96457C24.9409 4.96586 24.9387 4.965 24.9422 4.96629C25.5339 4.32386 26.5339 4.326 27.1239 4.94871L27.1445 4.97057C27.7087 5.56586 27.6838 6.50443 27.09 7.07014C26.725 7.41771 26.363 7.76229 26.0002 8.10643C25.4922 8.58857 24.9903 9.07757 24.4711 9.54729C23.8623 10.0984 23.0245 10.1374 22.4375 9.60386C21.577 8.82129 20.729 8.02543 19.8646 7.21414C19.2674 6.65357 19.2347 5.71671 19.7925 5.11629L19.8208 5.08586C20.3752 4.48929 21.3087 4.45243 21.9085 5.00357L21.921 5.01514V1.50514C21.921 0.673714 22.5964 0 23.429 0C24.2629 0 24.9379 0.674143 24.9379 1.50514Z" fill="#FF10BC"/>
<path d="M46.8077 24.7987C45.6394 22.5097 44.468 20.2211 43.3082 17.9274C43.0652 17.4474 42.7023 17.1512 42.1944 16.9875C36.7604 15.2424 31.3304 13.4848 25.8904 11.7555C25.5083 11.6338 25.0969 11.6287 24.7109 11.7397C18.7054 13.4702 12.7077 15.2252 6.71342 16.9914C6.39353 17.0852 6.06032 17.279 5.83403 17.5202C4.04991 19.4385 2.28297 21.3727 0.524618 23.3167C-0.270183 24.1952 -0.037024 25.3117 1.04375 25.7981C6.03799 28.0481 11.0361 30.2891 16.0338 32.528C16.7397 32.8447 17.5723 32.633 18.0386 32.0171C18.7505 31.0798 19.45 30.134 20.1572 29.1932C20.2328 29.0921 20.3208 29.0021 20.4427 28.8594V44.2464C20.3217 44.2074 20.2362 44.1855 20.1546 44.1538C16.3657 42.6962 12.5776 41.2348 8.78394 39.7905C8.48981 39.6782 8.48852 39.503 8.48981 39.2664C8.49239 37.4552 8.4911 35.6428 8.4911 33.8321V33.3727C8.4911 32.9582 8.32363 32.5841 8.0514 32.3124C7.77917 32.0407 7.40431 31.8735 6.98909 31.8735C6.17325 31.8735 5.50898 32.5232 5.48837 33.3337V33.8552C5.48579 36.1185 5.48365 38.3818 5.49095 40.6451C5.49352 41.4212 5.91476 41.9077 6.6327 42.182C9.04802 43.1021 11.4595 44.0308 13.8714 44.9621C16.4649 45.9641 19.0575 46.9717 21.6498 47.9775C21.8413 47.9861 22.0173 47.9934 22.2088 48.0007C24.1016 47.4448 25.9918 46.883 27.8858 46.3335C32.6031 44.9625 37.3199 43.5988 42.0359 42.23C43.0617 41.9325 43.4001 41.4778 43.401 40.4162V38.0432C43.401 37.6275 43.2326 37.2521 42.96 36.9804C42.6877 36.7087 42.3116 36.5402 41.8951 36.5402C41.0646 36.5402 40.3896 37.2118 40.3896 38.0407C40.3896 38.4234 40.3922 38.8048 40.3995 39.185C40.4042 39.4751 40.3261 39.602 40.0281 39.6881C34.6225 41.2447 29.2216 42.8167 23.8182 44.3827C23.7203 44.4105 23.6155 44.4131 23.4944 44.4302V28.4342C23.57 28.4171 23.5554 28.421 23.6314 28.4051C23.6743 28.5075 23.701 28.6245 23.7692 28.706C24.7044 29.8297 25.6461 30.9474 26.5886 32.066C27.1211 32.6985 27.6754 32.8605 28.4616 32.5948C34.2069 30.6495 39.9495 28.6961 45.6973 26.7555C46.2981 26.5532 46.663 26.1534 46.8756 25.5817V24.8505C46.8528 24.8338 46.8198 24.8218 46.8077 24.7987ZM16.2875 29.3471C12.2272 27.5261 8.19396 25.7175 4.11089 23.8845C4.20492 23.7637 4.27577 23.6565 4.36122 23.5627C5.29514 22.5388 6.23422 21.5201 7.16256 20.4928C7.32273 20.3171 7.45068 20.2357 7.70574 20.3355C11.6012 21.8492 15.5 23.3531 19.3976 24.8595C19.438 24.8754 19.4732 24.9045 19.5659 24.962C18.4637 26.438 17.3816 27.8844 16.2875 29.3471ZM22.5141 22.5341C22.1917 22.628 21.9147 22.6147 21.5982 22.4912C18.4418 21.2578 15.278 20.0428 12.1177 18.8214C12.019 18.7837 11.9211 18.7421 11.7025 18.6542C12.882 18.3092 13.9444 17.9985 15.0067 17.6891C18.3035 16.7261 21.5982 15.761 24.8977 14.8091C25.1016 14.7495 25.3533 14.735 25.5521 14.798C29.1568 15.9448 32.7564 17.1075 36.3577 18.269C36.4431 18.296 36.5238 18.335 36.702 18.4057C36.2052 18.5557 35.7973 18.6834 35.3868 18.803C31.0959 20.0467 26.8037 21.2848 22.5141 22.5341ZM40.8865 25.208C36.8558 26.5768 32.8238 27.9392 28.7965 29.3214C28.4328 29.4457 28.2349 29.381 27.9953 29.0874C26.994 27.86 25.9647 26.6561 24.9462 25.4432C24.8496 25.3288 24.7607 25.2067 24.6323 25.0421C30.1444 23.4465 35.6135 21.8634 41.1291 20.267C41.8436 21.6598 42.5332 23.0081 43.2464 24.3984C42.4327 24.6778 41.6606 24.9448 40.8865 25.208ZM42.9879 31.8615C42.7534 31.6275 42.4288 31.4827 42.0707 31.4827H41.7143C40.999 31.4827 40.4188 32.0617 40.4188 32.7757C40.4188 33.1327 40.564 33.4558 40.7984 33.6898C41.0329 33.9238 41.3566 34.0687 41.7143 34.0687H42.0707C42.7861 34.0687 43.3675 33.4897 43.3675 32.7757C43.3679 32.4182 43.2223 32.0955 42.9879 31.8615Z" fill="#FF10BC"/>
</svg>
