<svg width="107" height="52" viewBox="0 0 107 52" fill="none" xmlns="http://www.w3.org/2000/svg">
<path d="M3.75391 44H1.06072V35.2727H3.87322C4.71982 35.2727 5.44425 35.4474 6.04652 35.7969C6.64879 36.1435 7.11044 36.642 7.43146 37.2926C7.75249 37.9403 7.913 38.7159 7.913 39.6193C7.913 40.5284 7.75107 41.3111 7.4272 41.9673C7.10334 42.6207 6.63175 43.1236 6.01243 43.4759C5.39311 43.8253 4.64027 44 3.75391 44ZM2.11754 43.0625H3.68572C4.40732 43.0625 5.00533 42.9233 5.47976 42.6449C5.95419 42.3665 6.30788 41.9702 6.54084 41.456C6.77379 40.9418 6.89027 40.3295 6.89027 39.6193C6.89027 38.9148 6.77521 38.3082 6.5451 37.7997C6.31499 37.2884 5.97124 36.8963 5.51385 36.6236C5.05646 36.348 4.48686 36.2102 3.80504 36.2102H2.11754V43.0625ZM9.54936 44V37.4545H10.521V38.4432H10.5891C10.7085 38.1193 10.9244 37.8565 11.2369 37.6548C11.5494 37.4531 11.9016 37.3523 12.2937 37.3523C12.3675 37.3523 12.4599 37.3537 12.5707 37.3565C12.6815 37.3594 12.7653 37.3636 12.8221 37.3693V38.392C12.788 38.3835 12.7099 38.3707 12.5877 38.3537C12.4684 38.3338 12.342 38.3239 12.2085 38.3239C11.8903 38.3239 11.6062 38.3906 11.3562 38.5241C11.109 38.6548 10.913 38.8366 10.7681 39.0696C10.6261 39.2997 10.555 39.5625 10.555 39.858V44H9.54936ZM15.9403 44.1534C15.5256 44.1534 15.1491 44.0753 14.8111 43.919C14.473 43.7599 14.2045 43.5312 14.0057 43.233C13.8068 42.9318 13.7074 42.5682 13.7074 42.142C13.7074 41.767 13.7813 41.4631 13.929 41.2301C14.0767 40.9943 14.2741 40.8097 14.5213 40.6761C14.7685 40.5426 15.0412 40.4432 15.3395 40.3778C15.6406 40.3097 15.9432 40.2557 16.2472 40.2159C16.6449 40.1648 16.9673 40.1264 17.2145 40.1009C17.4645 40.0724 17.6463 40.0256 17.7599 39.9602C17.8764 39.8949 17.9347 39.7812 17.9347 39.6193V39.5852C17.9347 39.1648 17.8196 38.8381 17.5895 38.6051C17.3622 38.3722 17.017 38.2557 16.554 38.2557C16.0739 38.2557 15.6974 38.3608 15.4247 38.571C15.152 38.7812 14.9602 39.0057 14.8494 39.2443L13.8949 38.9034C14.0653 38.5057 14.2926 38.196 14.5767 37.9744C14.8636 37.75 15.1761 37.5937 15.5142 37.5057C15.8551 37.4148 16.1903 37.3693 16.5199 37.3693C16.7301 37.3693 16.9716 37.3949 17.2443 37.446C17.5199 37.4943 17.7855 37.5952 18.0412 37.7486C18.2997 37.902 18.5142 38.1335 18.6847 38.4432C18.8551 38.7528 18.9403 39.1676 18.9403 39.6875V44H17.9347V43.1136H17.8835C17.8153 43.2557 17.7017 43.4077 17.5426 43.5696C17.3835 43.7315 17.1719 43.8693 16.9077 43.983C16.6435 44.0966 16.321 44.1534 15.9403 44.1534ZM16.0938 43.25C16.4915 43.25 16.8267 43.1719 17.0994 43.0156C17.375 42.8594 17.5824 42.6577 17.7216 42.4105C17.8636 42.1634 17.9347 41.9034 17.9347 41.6307V40.7102C17.892 40.7614 17.7983 40.8082 17.6534 40.8509C17.5114 40.8906 17.3466 40.9261 17.1591 40.9574C16.9744 40.9858 16.794 41.0114 16.6179 41.0341C16.4446 41.054 16.304 41.071 16.196 41.0852C15.9347 41.1193 15.6903 41.1747 15.4631 41.2514C15.2386 41.3253 15.0568 41.4375 14.9176 41.5881C14.7813 41.7358 14.7131 41.9375 14.7131 42.1932C14.7131 42.5426 14.8423 42.8068 15.1009 42.9858C15.3622 43.1619 15.6932 43.25 16.0938 43.25ZM23.418 46.5909C22.9322 46.5909 22.5146 46.5284 22.1651 46.4034C21.8157 46.2812 21.5245 46.1193 21.2915 45.9176C21.0614 45.7188 20.8782 45.5057 20.7418 45.2784L21.543 44.7159C21.6339 44.8352 21.7489 44.9716 21.8881 45.125C22.0273 45.2812 22.2177 45.4162 22.4592 45.5298C22.7035 45.6463 23.0231 45.7045 23.418 45.7045C23.9464 45.7045 24.3825 45.5767 24.7262 45.321C25.07 45.0653 25.2418 44.6648 25.2418 44.1193V42.7898H25.1566C25.0827 42.9091 24.9776 43.0568 24.8413 43.233C24.7077 43.4062 24.5146 43.5611 24.2617 43.6974C24.0117 43.831 23.6737 43.8977 23.2475 43.8977C22.7191 43.8977 22.2447 43.7727 21.8242 43.5227C21.4066 43.2727 21.0756 42.9091 20.8313 42.4318C20.5898 41.9545 20.4691 41.375 20.4691 40.6932C20.4691 40.0227 20.587 39.4389 20.8228 38.9418C21.0586 38.4418 21.3867 38.0554 21.8072 37.7827C22.2276 37.5071 22.7134 37.3693 23.2646 37.3693C23.6907 37.3693 24.0288 37.4403 24.2788 37.5824C24.5316 37.7216 24.7248 37.8807 24.8583 38.0597C24.9947 38.2358 25.0998 38.3807 25.1737 38.4943H25.2759V37.4545H26.2475V44.1875C26.2475 44.75 26.1197 45.2074 25.864 45.5597C25.6112 45.9148 25.2702 46.1747 24.8413 46.3395C24.4151 46.5071 23.9407 46.5909 23.418 46.5909ZM23.3839 42.9943C23.7873 42.9943 24.1282 42.902 24.4066 42.7173C24.685 42.5327 24.8967 42.267 25.0415 41.9205C25.1864 41.5739 25.2589 41.1591 25.2589 40.6761C25.2589 40.2045 25.1879 39.7884 25.0458 39.4276C24.9038 39.0668 24.6935 38.7841 24.4151 38.5795C24.1367 38.375 23.793 38.2727 23.3839 38.2727C22.9577 38.2727 22.6026 38.3807 22.3185 38.5966C22.0373 38.8125 21.8256 39.1023 21.6836 39.4659C21.5444 39.8295 21.4748 40.233 21.4748 40.6761C21.4748 41.1307 21.5458 41.5327 21.6879 41.8821C21.8327 42.2287 22.0458 42.5014 22.3271 42.7003C22.6112 42.8963 22.9634 42.9943 23.3839 42.9943ZM33.935 44.1193C33.3612 44.1193 32.8668 44.0142 32.4521 43.804C32.0373 43.5937 31.7177 43.3054 31.4933 42.9389C31.2688 42.5724 31.1566 42.1534 31.1566 41.6818C31.1566 41.3182 31.2333 40.9957 31.3867 40.7145C31.543 40.4304 31.7575 40.1676 32.0302 39.9261C32.3058 39.6818 32.6225 39.4375 32.9805 39.1932L34.2418 38.2557C34.489 38.0937 34.6864 37.9205 34.8342 37.7358C34.9847 37.5511 35.06 37.3097 35.06 37.0114C35.06 36.7898 34.962 36.5753 34.766 36.3679C34.5728 36.1605 34.3185 36.0568 34.0032 36.0568C33.7816 36.0568 33.5856 36.1136 33.4151 36.2273C33.2475 36.3381 33.1154 36.4801 33.0188 36.6534C32.9251 36.8239 32.8782 37 32.8782 37.1818C32.8782 37.3864 32.9336 37.5938 33.0444 37.804C33.158 38.0114 33.3015 38.2244 33.4748 38.4432C33.6509 38.6591 33.8327 38.8807 34.0202 39.108L38.0259 44H36.8157L33.5089 40.0114C33.2021 39.642 32.9237 39.3068 32.6737 39.0057C32.4237 38.7045 32.2248 38.4077 32.0771 38.1151C31.9293 37.8224 31.8555 37.5057 31.8555 37.1648C31.8555 36.7727 31.9421 36.429 32.1154 36.1335C32.2915 35.8352 32.5373 35.6037 32.8526 35.4389C33.1708 35.2713 33.543 35.1875 33.9691 35.1875C34.4066 35.1875 34.783 35.2727 35.0984 35.4432C35.4137 35.6108 35.6566 35.8338 35.8271 36.1122C35.9975 36.3878 36.0827 36.6875 36.0827 37.0114C36.0827 37.429 35.979 37.7912 35.7717 38.098C35.5643 38.4048 35.2816 38.6903 34.9237 38.9545L33.185 40.25C32.793 40.5398 32.5273 40.821 32.3881 41.0938C32.2489 41.3665 32.1793 41.5625 32.1793 41.6818C32.1793 41.9545 32.2504 42.2088 32.3924 42.4446C32.5344 42.6804 32.7347 42.8707 32.9933 43.0156C33.2518 43.1605 33.5543 43.233 33.9009 43.233C34.2305 43.233 34.5515 43.1634 34.864 43.0241C35.1765 42.8821 35.4592 42.6776 35.712 42.4105C35.9677 42.1435 36.1694 41.8224 36.3171 41.4474C36.4677 41.0724 36.543 40.6506 36.543 40.1818H37.5146C37.5146 40.7614 37.4478 41.2344 37.3143 41.6009C37.1808 41.9673 37.0302 42.2543 36.8626 42.4616C36.695 42.669 36.56 42.8239 36.4577 42.9261C36.4237 42.9687 36.3924 43.0114 36.364 43.054C36.3356 43.0966 36.3043 43.1392 36.2702 43.1818C35.989 43.4972 35.6339 43.733 35.2049 43.8892C34.7759 44.0426 34.3526 44.1193 33.935 44.1193ZM45.3438 44H42.6506V35.2727H45.4631C46.3097 35.2727 47.0341 35.4474 47.6364 35.7969C48.2386 36.1435 48.7003 36.642 49.0213 37.2926C49.3423 37.9403 49.5028 38.7159 49.5028 39.6193C49.5028 40.5284 49.3409 41.3111 49.017 41.9673C48.6932 42.6207 48.2216 43.1236 47.6023 43.4759C46.983 43.8253 46.2301 44 45.3438 44ZM43.7074 43.0625H45.2756C45.9972 43.0625 46.5952 42.9233 47.0696 42.6449C47.544 42.3665 47.8977 41.9702 48.1307 41.456C48.3636 40.9418 48.4801 40.3295 48.4801 39.6193C48.4801 38.9148 48.3651 38.3082 48.1349 37.7997C47.9048 37.2884 47.5611 36.8963 47.1037 36.6236C46.6463 36.348 46.0767 36.2102 45.3949 36.2102H43.7074V43.0625ZM51.1392 44V37.4545H52.1108V38.4432H52.179C52.2983 38.1193 52.5142 37.8565 52.8267 37.6548C53.1392 37.4531 53.4915 37.3523 53.8835 37.3523C53.9574 37.3523 54.0497 37.3537 54.1605 37.3565C54.2713 37.3594 54.3551 37.3636 54.4119 37.3693V38.392C54.3778 38.3835 54.2997 38.3707 54.1776 38.3537C54.0582 38.3338 53.9318 38.3239 53.7983 38.3239C53.4801 38.3239 53.196 38.3906 52.946 38.5241C52.6989 38.6548 52.5028 38.8366 52.358 39.0696C52.2159 39.2997 52.1449 39.5625 52.1449 39.858V44H51.1392ZM58.0639 44.1364C57.473 44.1364 56.9545 43.9957 56.5085 43.7145C56.0653 43.4332 55.7188 43.0398 55.4688 42.5341C55.2216 42.0284 55.098 41.4375 55.098 40.7614C55.098 40.0795 55.2216 39.4844 55.4688 38.9759C55.7188 38.4673 56.0653 38.0724 56.5085 37.7912C56.9545 37.5099 57.473 37.3693 58.0639 37.3693C58.6548 37.3693 59.1719 37.5099 59.6151 37.7912C60.0611 38.0724 60.4077 38.4673 60.6548 38.9759C60.9048 39.4844 61.0298 40.0795 61.0298 40.7614C61.0298 41.4375 60.9048 42.0284 60.6548 42.5341C60.4077 43.0398 60.0611 43.4332 59.6151 43.7145C59.1719 43.9957 58.6548 44.1364 58.0639 44.1364ZM58.0639 43.233C58.5128 43.233 58.8821 43.1179 59.1719 42.8878C59.4616 42.6577 59.6761 42.3551 59.8153 41.9801C59.9545 41.6051 60.0241 41.1989 60.0241 40.7614C60.0241 40.3239 59.9545 39.9162 59.8153 39.5384C59.6761 39.1605 59.4616 38.8551 59.1719 38.6222C58.8821 38.3892 58.5128 38.2727 58.0639 38.2727C57.6151 38.2727 57.2457 38.3892 56.956 38.6222C56.6662 38.8551 56.4517 39.1605 56.3125 39.5384C56.1733 39.9162 56.1037 40.3239 56.1037 40.7614C56.1037 41.1989 56.1733 41.6051 56.3125 41.9801C56.4517 42.3551 56.6662 42.6577 56.956 42.8878C57.2457 43.1179 57.6151 43.233 58.0639 43.233ZM62.565 46.4545V37.4545H63.5366V38.4943H63.6559C63.7298 38.3807 63.832 38.2358 63.9627 38.0597C64.0962 37.8807 64.2866 37.7216 64.5337 37.5824C64.7837 37.4403 65.1218 37.3693 65.5479 37.3693C66.0991 37.3693 66.5849 37.5071 67.0053 37.7827C67.4258 38.0582 67.7539 38.4489 67.9897 38.9545C68.2255 39.4602 68.3434 40.0568 68.3434 40.7443C68.3434 41.4375 68.2255 42.0384 67.9897 42.5469C67.7539 43.0526 67.4272 43.4446 67.0096 43.723C66.592 43.9986 66.1104 44.1364 65.565 44.1364C65.1445 44.1364 64.8079 44.0668 64.555 43.9276C64.3022 43.7855 64.1076 43.625 63.9712 43.446C63.8349 43.2642 63.7298 43.1136 63.6559 42.9943H63.5707V46.4545H62.565ZM63.5536 40.7273C63.5536 41.2216 63.6261 41.6577 63.771 42.0355C63.9158 42.4105 64.1275 42.7045 64.4059 42.9176C64.6843 43.1278 65.0252 43.233 65.4286 43.233C65.8491 43.233 66.1999 43.1222 66.4812 42.9006C66.7653 42.6761 66.9783 42.375 67.1204 41.9972C67.2653 41.6165 67.3377 41.1932 67.3377 40.7273C67.3377 40.267 67.2667 39.8523 67.1246 39.483C66.9854 39.1108 66.7738 38.8168 66.4897 38.6009C66.2085 38.3821 65.8548 38.2727 65.4286 38.2727C65.0195 38.2727 64.6758 38.3764 64.3974 38.5838C64.119 38.7884 63.9087 39.0753 63.7667 39.4446C63.6246 39.8111 63.5536 40.2386 63.5536 40.7273ZM74.4457 35.2727V44H73.3888V35.2727H74.4457ZM76.4283 44V37.4545H77.3999V38.4773H77.4851C77.6214 38.1278 77.8416 37.8565 78.1456 37.6634C78.4496 37.4673 78.8146 37.3693 79.2408 37.3693C79.6726 37.3693 80.032 37.4673 80.3189 37.6634C80.6087 37.8565 80.8345 38.1278 80.9964 38.4773H81.0646C81.2322 38.1392 81.4837 37.8707 81.8189 37.6719C82.1541 37.4702 82.5561 37.3693 83.0249 37.3693C83.6101 37.3693 84.0888 37.5526 84.4609 37.919C84.8331 38.2827 85.0192 38.8494 85.0192 39.6193V44H84.0135V39.6193C84.0135 39.1364 83.8814 38.7912 83.6172 38.5838C83.353 38.3764 83.0419 38.2727 82.6839 38.2727C82.2237 38.2727 81.8672 38.4119 81.6143 38.6903C81.3615 38.9659 81.2351 39.3153 81.2351 39.7386V44H80.2124V39.517C80.2124 39.1449 80.0916 38.8452 79.8501 38.6179C79.6087 38.3878 79.2976 38.2727 78.9169 38.2727C78.6555 38.2727 78.4112 38.3423 78.1839 38.4815C77.9595 38.6207 77.7777 38.8139 77.6385 39.0611C77.5021 39.3054 77.4339 39.5881 77.4339 39.9091V44H76.4283ZM88.7841 44.1534C88.3693 44.1534 87.9929 44.0753 87.6548 43.919C87.3168 43.7599 87.0483 43.5312 86.8494 43.233C86.6506 42.9318 86.5511 42.5682 86.5511 42.142C86.5511 41.767 86.625 41.4631 86.7727 41.2301C86.9205 40.9943 87.1179 40.8097 87.3651 40.6761C87.6122 40.5426 87.8849 40.4432 88.1832 40.3778C88.4844 40.3097 88.7869 40.2557 89.0909 40.2159C89.4886 40.1648 89.8111 40.1264 90.0582 40.1009C90.3082 40.0724 90.4901 40.0256 90.6037 39.9602C90.7202 39.8949 90.7784 39.7812 90.7784 39.6193V39.5852C90.7784 39.1648 90.6634 38.8381 90.4332 38.6051C90.206 38.3722 89.8608 38.2557 89.3977 38.2557C88.9176 38.2557 88.5412 38.3608 88.2685 38.571C87.9957 38.7812 87.804 39.0057 87.6932 39.2443L86.7386 38.9034C86.9091 38.5057 87.1364 38.196 87.4205 37.9744C87.7074 37.75 88.0199 37.5937 88.358 37.5057C88.6989 37.4148 89.0341 37.3693 89.3636 37.3693C89.5739 37.3693 89.8153 37.3949 90.0881 37.446C90.3636 37.4943 90.6293 37.5952 90.8849 37.7486C91.1435 37.902 91.358 38.1335 91.5284 38.4432C91.6989 38.7528 91.7841 39.1676 91.7841 39.6875V44H90.7784V43.1136H90.7273C90.6591 43.2557 90.5455 43.4077 90.3864 43.5696C90.2273 43.7315 90.0156 43.8693 89.7514 43.983C89.4872 44.0966 89.1648 44.1534 88.7841 44.1534ZM88.9375 43.25C89.3352 43.25 89.6705 43.1719 89.9432 43.0156C90.2188 42.8594 90.4261 42.6577 90.5653 42.4105C90.7074 42.1634 90.7784 41.9034 90.7784 41.6307V40.7102C90.7358 40.7614 90.642 40.8082 90.4972 40.8509C90.3551 40.8906 90.1903 40.9261 90.0028 40.9574C89.8182 40.9858 89.6378 41.0114 89.4616 41.0341C89.2884 41.054 89.1477 41.071 89.0398 41.0852C88.7784 41.1193 88.5341 41.1747 88.3068 41.2514C88.0824 41.3253 87.9006 41.4375 87.7614 41.5881C87.625 41.7358 87.5568 41.9375 87.5568 42.1932C87.5568 42.5426 87.6861 42.8068 87.9446 42.9858C88.206 43.1619 88.5369 43.25 88.9375 43.25ZM96.2617 46.5909C95.7759 46.5909 95.3583 46.5284 95.0089 46.4034C94.6594 46.2812 94.3683 46.1193 94.1353 45.9176C93.9052 45.7188 93.7219 45.5057 93.5856 45.2784L94.3867 44.7159C94.4776 44.8352 94.5927 44.9716 94.7319 45.125C94.8711 45.2812 95.0614 45.4162 95.3029 45.5298C95.5472 45.6463 95.8668 45.7045 96.2617 45.7045C96.7901 45.7045 97.2262 45.5767 97.57 45.321C97.9137 45.0653 98.0856 44.6648 98.0856 44.1193V42.7898H98.0004C97.9265 42.9091 97.8214 43.0568 97.685 43.233C97.5515 43.4062 97.3583 43.5611 97.1055 43.6974C96.8555 43.831 96.5174 43.8977 96.0913 43.8977C95.5629 43.8977 95.0884 43.7727 94.668 43.5227C94.2504 43.2727 93.9194 42.9091 93.6751 42.4318C93.4336 41.9545 93.3129 41.375 93.3129 40.6932C93.3129 40.0227 93.4308 39.4389 93.6665 38.9418C93.9023 38.4418 94.2305 38.0554 94.6509 37.7827C95.0714 37.5071 95.5572 37.3693 96.1083 37.3693C96.5344 37.3693 96.8725 37.4403 97.1225 37.5824C97.3754 37.7216 97.5685 37.8807 97.7021 38.0597C97.8384 38.2358 97.9435 38.3807 98.0174 38.4943H98.1197V37.4545H99.0913V44.1875C99.0913 44.75 98.9634 45.2074 98.7077 45.5597C98.4549 45.9148 98.114 46.1747 97.685 46.3395C97.2589 46.5071 96.7844 46.5909 96.2617 46.5909ZM96.2276 42.9943C96.631 42.9943 96.9719 42.902 97.2504 42.7173C97.5288 42.5327 97.7404 42.267 97.8853 41.9205C98.0302 41.5739 98.1026 41.1591 98.1026 40.6761C98.1026 40.2045 98.0316 39.7884 97.8896 39.4276C97.7475 39.0668 97.5373 38.7841 97.2589 38.5795C96.9805 38.375 96.6367 38.2727 96.2276 38.2727C95.8015 38.2727 95.4464 38.3807 95.1623 38.5966C94.881 38.8125 94.6694 39.1023 94.5273 39.4659C94.3881 39.8295 94.3185 40.233 94.3185 40.6761C94.3185 41.1307 94.3896 41.5327 94.5316 41.8821C94.6765 42.2287 94.8896 42.5014 95.1708 42.7003C95.4549 42.8963 95.8072 42.9943 96.2276 42.9943ZM103.676 44.1364C103.046 44.1364 102.502 43.9972 102.044 43.7188C101.59 43.4375 101.239 43.0455 100.992 42.5426C100.748 42.0369 100.625 41.4489 100.625 40.7784C100.625 40.108 100.748 39.517 100.992 39.0057C101.239 38.4915 101.583 38.0909 102.023 37.804C102.466 37.5142 102.983 37.3693 103.574 37.3693C103.915 37.3693 104.252 37.4261 104.584 37.5398C104.917 37.6534 105.219 37.8381 105.492 38.0938C105.765 38.3466 105.982 38.6818 106.144 39.0994C106.306 39.517 106.387 40.0312 106.387 40.642V41.0682H101.341V40.1989H105.364C105.364 39.8295 105.29 39.5 105.142 39.2102C104.998 38.9205 104.79 38.6918 104.52 38.5241C104.253 38.3565 103.938 38.2727 103.574 38.2727C103.174 38.2727 102.827 38.3722 102.534 38.571C102.245 38.767 102.022 39.0227 101.865 39.3381C101.709 39.6534 101.631 39.9915 101.631 40.3523V40.9318C101.631 41.4261 101.716 41.8452 101.887 42.1889C102.06 42.5298 102.3 42.7898 102.607 42.9688C102.914 43.1449 103.27 43.233 103.676 43.233C103.941 43.233 104.179 43.196 104.392 43.1222C104.608 43.0455 104.794 42.9318 104.951 42.7812C105.107 42.6278 105.228 42.4375 105.313 42.2102L106.284 42.483C106.182 42.8125 106.01 43.1023 105.769 43.3523C105.527 43.5994 105.229 43.7926 104.874 43.9318C104.519 44.0682 104.12 44.1364 103.676 44.1364Z" fill="#737373"/>
<path d="M49.8816 6.53002C49.5398 6.23702 49.5398 5.76199 49.8816 5.46899L53.3816 2.46899C53.4621 2.39999 53.5591 2.345 53.6665 2.307C53.88 2.231 54.1215 2.231 54.335 2.307C54.4423 2.345 54.539 2.39999 54.6195 2.46899L58.1195 5.46899C58.4613 5.76199 58.4613 6.23702 58.1195 6.53002C57.9492 6.67602 57.7251 6.74999 57.5011 6.74999C57.2771 6.74999 57.0531 6.67702 56.8828 6.53002L54.8761 4.80999V16C54.8761 16.414 54.4841 16.75 54.0011 16.75C53.5181 16.75 53.1261 16.414 53.1261 16V4.81097L51.1195 6.531C50.7765 6.823 50.2235 6.82302 49.8816 6.53002ZM61 9.24999C60.517 9.24999 60.125 9.58599 60.125 9.99999C60.125 10.414 60.517 10.75 61 10.75C62.8398 10.75 63.625 11.423 63.625 13V18C63.625 19.577 62.8398 20.25 61 20.25H47C45.1602 20.25 44.375 19.577 44.375 18V13C44.375 11.423 45.1602 10.75 47 10.75C47.483 10.75 47.875 10.414 47.875 9.99999C47.875 9.58599 47.483 9.24999 47 9.24999C44.179 9.24999 42.625 10.582 42.625 13V18C42.625 20.418 44.179 21.75 47 21.75H61C63.821 21.75 65.375 20.418 65.375 18V13C65.375 10.582 63.821 9.24999 61 9.24999Z" fill="#737373"/>
</svg>
