<svg width="50" height="33" viewBox="0 0 50 33" fill="none" xmlns="http://www.w3.org/2000/svg">
<g clip-path="url(#clip0_1576_5)">
<path d="M50.0004 21.5551C49.7959 22.4309 49.66 23.332 49.3753 24.1825C47.9186 28.5372 43.7668 32.2682 37.9382 32.2984C34.2285 32.3178 30.5179 32.2984 26.8083 32.2984C26.7104 32.2984 26.6185 32.2828 26.4991 32.2731V20.1275C26.6312 20.2394 26.7398 20.3221 26.8347 20.4146C27.7151 21.2826 28.5819 22.1555 29.4594 23.0226C30.1383 23.6921 31.0247 23.7388 31.6302 23.1452C32.2358 22.5516 32.1927 21.6514 31.5324 20.9878C29.7415 19.1992 27.948 17.4151 26.1518 15.6356C25.4211 14.9125 24.6052 14.9125 23.8793 15.6356C22.0812 17.417 20.2877 19.2011 18.4987 20.9878C17.8335 21.6514 17.7924 22.5555 18.3872 23.1452C18.982 23.7349 19.883 23.6999 20.558 23.0323C21.5255 22.0747 22.4852 21.1084 23.5124 20.0818V32.2818C23.3403 32.2886 23.1818 32.3023 23.0233 32.3023C18.6954 32.3023 14.3665 32.313 10.0385 32.3023C5.5179 32.2896 1.83956 29.6972 0.490514 25.5984C-1.26452 20.2657 1.99413 14.4961 7.4911 13.231C7.82959 13.1531 7.97438 13.0266 8.04286 12.688C9.28234 6.55731 14.5308 1.42895 20.7145 0.296234C27.7699 -0.9951 34.4105 2.02353 38.0135 8.16978C38.0675 8.28352 38.1535 8.37916 38.2613 8.44501C38.369 8.51085 38.4937 8.54405 38.62 8.54054C41.3804 8.66432 44.0124 9.73554 46.0683 11.572C48.1242 13.4084 49.4771 15.8966 49.8967 18.6133C49.928 18.8187 49.974 19.022 50.0141 19.2254L50.0004 21.5551Z" fill="#979797"/>
</g>
<defs>
<clipPath id="clip0_1576_5">
<rect width="50" height="32.3077" fill="white"/>
</clipPath>
</defs>
</svg>
