<svg width="24" height="24" viewBox="0 0 24 24" fill="none" xmlns="http://www.w3.org/2000/svg">
<path d="M9.34933 14.8578C5.38553 14.8578 2 15.4701 2 17.9174C2 20.3667 5.364 21.0001 9.34933 21.0001C13.3131 21.0001 16.6987 20.3877 16.6987 17.9404C16.6987 15.4912 13.3347 14.8578 9.34933 14.8578Z" fill="white"/>
<path d="M9.3474 12.5248C12.047 12.5248 14.2104 10.4062 14.2104 7.76241C14.2104 5.11865 12.047 3 9.3474 3C6.64876 3 4.48438 5.11865 4.48438 7.76241C4.48438 10.4062 6.64876 12.5248 9.3474 12.5248Z" fill="white"/>
<path d="M16.1747 7.84873C16.1747 9.19505 15.7618 10.4513 15.0378 11.4948C14.9624 11.6021 15.029 11.7468 15.1601 11.7698C15.3421 11.7995 15.529 11.8177 15.7198 11.8216C17.618 11.8704 19.3215 10.6736 19.7922 8.87116C20.4898 6.19674 18.4429 3.79541 15.8352 3.79541C15.5524 3.79541 15.2814 3.82416 15.0172 3.87686C14.981 3.88453 14.9419 3.90177 14.9223 3.93244C14.8969 3.97172 14.9154 4.02251 14.9409 4.05605C15.7246 5.13214 16.1747 6.44205 16.1747 7.84873Z" fill="white"/>
<path d="M21.7785 15.1693C21.4311 14.4439 20.5925 13.9465 19.3166 13.7022C18.7149 13.5585 17.0847 13.3544 15.5691 13.3831C15.5465 13.386 15.5338 13.4013 15.5319 13.4109C15.5289 13.4262 15.5358 13.4492 15.5651 13.4655C16.2657 13.8047 18.9732 15.2804 18.6327 18.3927C18.618 18.5288 18.7286 18.6438 18.8665 18.6246C19.5329 18.5317 21.2471 18.1704 21.7785 17.0474C22.073 16.4533 22.073 15.7634 21.7785 15.1693Z" fill="white"/>
</svg>
