<svg width="24" height="24" viewBox="0 0 24 24" fill="none" xmlns="http://www.w3.org/2000/svg">
<path d="M16.5138 3C19.96 3 21.9964 4.97862 21.9964 8.33786V8.37513H17.7618C15.7911 8.37859 14.1947 9.93514 14.1911 11.8566C14.1884 13.7823 15.7867 15.3458 17.7618 15.3484H22V15.6543C22 19.0136 19.9636 21 16.5173 21H7.48356C4.03644 21 2 19.0136 2 15.6543V8.33786C2 4.97862 4.03644 3 7.48356 3H16.5138ZM12.3831 6.8749H6.73956C6.32 6.87664 5.97956 7.20858 5.97777 7.61852C5.976 8.03019 6.31733 8.36559 6.73956 8.36733H12.3902C12.8124 8.36559 13.1538 8.03019 13.152 7.61765C13.1502 7.20598 12.8053 6.87318 12.3831 6.8749Z" fill="white"/>
<path opacity="0.4" d="M16.0374 12.2967C16.2465 13.2479 17.0805 13.9171 18.0326 13.8997H21.2825C21.6787 13.8997 22 13.5716 22 13.1661V10.6345C21.9992 10.2298 21.6787 9.90089 21.2825 9.90002H17.9561C16.8731 9.90351 15.9983 10.8025 16 11.9103C16 12.04 16.0128 12.1696 16.0374 12.2967Z" fill="white"/>
<path d="M18 12.9C18.5523 12.9 19 12.4523 19 11.9C19 11.3477 18.5523 10.9 18 10.9C17.4477 10.9 17 11.3477 17 11.9C17 12.4523 17.4477 12.9 18 12.9Z" fill="white"/>
</svg>
