<svg width="35" height="35" viewBox="0 0 35 35" fill="none" xmlns="http://www.w3.org/2000/svg">
<path opacity="0.5" d="M17.5 0C7.83522 0 0 7.83522 0 17.5C0 27.1648 7.83522 35 17.5 35C27.1648 35 35 27.1648 35 17.5C35 7.83522 27.1648 0 17.5 0ZM28.8534 11.1824C28.8377 11.1818 28.8222 11.1812 28.8066 11.1812C25.0959 11.0966 23.1962 11.4301 22.2316 11.829C22.2298 11.8272 22.228 11.8254 22.2268 11.823C22.2082 11.8296 22.1957 11.8356 22.1776 11.8416C20.8166 12.2525 19.768 14.0551 20.3996 15.5199C20.8285 16.5252 23.8392 16.3357 23.5812 18.4993C23.3671 20.2713 25.6843 20.7373 26.5055 20.6516C27.3273 20.5532 28.59 22 27.9523 22.6377C27.6668 22.9262 27.2661 23.0893 26.9296 23.3335C26.5745 23.5914 26.2908 23.9393 26.2908 24.6213C26.2908 24.7215 26.2968 24.8283 26.3094 24.9428C26.3586 25.4209 27.806 25.3597 27.806 26.0831C27.806 26.5114 27.548 26.9733 27.4515 27.452C27.3837 27.7885 27.3957 28.1334 27.6338 28.4807C27.7568 28.6643 27.8852 28.8052 28.0202 28.9156C27.5487 29.3493 27.0514 29.7542 26.5302 30.1273C23.982 31.9527 20.8634 33.0294 17.5001 33.0294C8.9348 33.0294 1.97117 26.0652 1.97117 17.5005C1.97117 14.9007 2.6148 12.448 3.7485 10.291C3.74191 13.0803 5.2325 15.3969 5.93073 16.0963C8.21195 18.3709 11.5165 17.6535 11.9394 19.5598C12.3683 21.4607 9.67079 21.4667 9.84831 22.9201C10.0318 24.3784 13.5452 24.7647 12.7606 26.1071C11.724 27.8917 13.4594 28.0206 12.9567 30.2209C12.6868 31.423 14.4221 31.6557 15.0658 30.7428C15.5565 30.0433 15.4581 29.185 16.4448 28.137C17.6529 26.8492 20.4548 26.641 20.1417 24.5134C19.6084 20.9827 16.1749 20.4302 14.6795 19.603C13.5913 19.0056 13.3712 17.873 13.2578 16.8551V16.8545C13.1936 16.2841 13.163 15.7496 13.0298 15.3663C12.7425 14.5205 12.0701 14.752 11.3701 14.9674C10.8176 15.1372 10.2472 15.2967 9.83622 14.9068C9.19681 14.3039 9.13858 13.5961 9.38155 12.9789C9.7211 12.1157 10.6491 11.4307 11.3994 11.4553C11.4181 11.4559 11.4378 11.4565 11.457 11.4583C14.1276 11.5783 14.956 14.1828 15.9481 14.091C16.371 14.0539 16.7285 13.7773 17.0128 13.4168C17.1988 13.1811 17.3523 12.9099 17.4723 12.646C17.5923 12.3821 17.6775 12.1265 17.7266 11.9214C18.0883 10.3456 17.1136 11.0504 16.7206 10.2293C16.1934 9.13152 18.5724 8.08358 19.4919 7.27439C19.6329 7.1514 19.7373 7.03505 19.7924 6.92467C20.0684 6.3854 19.7067 5.9745 19.0936 5.60021C17.8675 4.85879 15.6295 4.27037 15.5257 3.11146C15.4651 2.41502 16.768 2.07132 18.2778 1.99996C18.3378 2.00054 18.4355 2.00175 18.4956 2.00297C18.5562 2.00719 18.6161 2.01135 18.6761 2.01557C18.6893 2.01615 18.7019 2.01737 18.7151 2.01858C18.7426 2.02037 18.7709 2.0228 18.799 2.02517C18.823 2.02754 18.8476 2.02939 18.8716 2.03177C18.8974 2.03414 18.9226 2.03599 18.9484 2.03836C18.9939 2.04258 19.0396 2.04738 19.0846 2.05154C23.7016 2.52182 27.7254 5.02081 30.2477 8.64146C31.011 9.73555 30.1868 11.2244 28.8534 11.1824Z" fill="#0C1928"/>
</svg>
