<svg width="32" height="32" viewBox="0 0 32 32" fill="none" xmlns="http://www.w3.org/2000/svg">
<rect width="32" height="32" rx="8" fill="#6021D1"/>
<path d="M8.42708 15.9997C8.42708 19.0002 10.1725 21.5852 12.6965 22.814L9.08512 12.9181C8.65144 13.8876 8.42721 14.9377 8.42708 15.9997ZM15.9997 23.5724C16.8571 23.5708 17.7081 23.4257 18.5176 23.143L18.4634 23.0418L16.1333 16.6648L13.8642 23.2634C14.5362 23.4642 15.2544 23.5724 15.9997 23.5724ZM17.04 12.4477L19.7795 20.5903L20.5379 18.0664C20.8608 17.0191 21.1087 16.2677 21.1087 15.6166C21.1087 14.6767 20.7727 14.0317 20.4908 13.5352C20.1016 12.9042 19.7455 12.3744 19.7455 11.7557C19.7455 11.0575 20.2691 10.4134 21.0214 10.4134H21.1148C19.7193 9.13314 17.8935 8.42415 15.9997 8.42708C14.7456 8.42696 13.5111 8.73858 12.4072 9.33392C11.3034 9.92926 10.3648 10.7896 9.67595 11.8377L10.1594 11.8508C10.951 11.8508 12.1728 11.7504 12.1728 11.7504C12.5891 11.7304 12.6362 12.3273 12.2269 12.3744C12.2269 12.3744 11.8168 12.4285 11.3542 12.4486L14.1208 20.6522L15.7789 15.6847L14.5964 12.4486C14.3319 12.4337 14.068 12.4113 13.8048 12.3814C13.3946 12.3552 13.4418 11.7304 13.8511 11.7504C13.8511 11.7504 15.1 11.8508 15.8453 11.8508C16.6377 11.8508 17.8595 11.7504 17.8595 11.7504C18.2688 11.7304 18.3221 12.3273 17.9128 12.3744C17.9128 12.3744 17.5034 12.4216 17.04 12.4486M19.8066 22.5452C21.5129 21.5534 22.7645 19.9345 23.2948 18.0334C23.8251 16.1323 23.5921 14.0993 22.6456 12.3674C22.7652 13.5565 22.5852 14.7567 22.1219 15.8584L19.8066 22.5452ZM15.9997 24.727C13.6851 24.727 11.4653 23.8075 9.82862 22.1708C8.19194 20.5342 7.27246 18.3144 7.27246 15.9997C7.27246 13.6851 8.19194 11.4653 9.82862 9.82862C11.4653 8.19194 13.6851 7.27246 15.9997 7.27246C18.3144 7.27246 20.5342 8.19194 22.1708 9.82862C23.8075 11.4653 24.727 13.6851 24.727 15.9997C24.727 18.3144 23.8075 20.5342 22.1708 22.1708C20.5342 23.8075 18.3144 24.727 15.9997 24.727Z" fill="white"/>
</svg>
