<svg width="26" height="20" viewBox="0 0 26 20" fill="none" xmlns="http://www.w3.org/2000/svg">
<g clip-path="url(#clip0_3200_32884)">
<rect width="26" height="20" rx="4" fill="#D2D2D2"/>
<mask id="mask0_3200_32884" style="mask-type:luminance" maskUnits="userSpaceOnUse" x="-1" y="0" width="28" height="21">
<path d="M25 0.142578H1C-0.10457 0.142578 -1 1.03801 -1 2.14258V18.1426C-1 19.2472 -0.10457 20.1426 1 20.1426H25C26.1046 20.1426 27 19.2472 27 18.1426V2.14258C27 1.03801 26.1046 0.142578 25 0.142578Z" fill="white"/>
</mask>
<g mask="url(#mask0_3200_32884)">
<path d="M25 0.142578H1C-0.10457 0.142578 -1 1.03801 -1 2.14258V18.1426C-1 19.2472 -0.10457 20.1426 1 20.1426H25C26.1046 20.1426 27 19.2472 27 18.1426V2.14258C27 1.03801 26.1046 0.142578 25 0.142578Z" fill="white"/>
<mask id="mask1_3200_32884" style="mask-type:alpha" maskUnits="userSpaceOnUse" x="-1" y="0" width="28" height="21">
<path d="M25 0.142578H1C-0.10457 0.142578 -1 1.03801 -1 2.14258V18.1426C-1 19.2472 -0.10457 20.1426 1 20.1426H25C26.1046 20.1426 27 19.2472 27 18.1426V2.14258C27 1.03801 26.1046 0.142578 25 0.142578Z" fill="white"/>
</mask>
<g mask="url(#mask1_3200_32884)">
<path d="M27 0.142578H-1V20.1426H27V0.142578Z" fill="#128363"/>
<path fill-rule="evenodd" clip-rule="evenodd" d="M11.6665 16.1426C14.9802 16.1426 17.6665 13.4563 17.6665 10.1426C17.6665 6.82887 14.9802 4.14258 11.6665 4.14258C8.35279 4.14258 5.6665 6.82887 5.6665 10.1426C5.6665 13.4563 8.35279 16.1426 11.6665 16.1426Z" fill="#F23C53"/>
</g>
</g>
</g>
<defs>
<clipPath id="clip0_3200_32884">
<rect width="26" height="20" rx="4" fill="white"/>
</clipPath>
</defs>
</svg>
