<svg width="31" height="28" viewBox="0 0 31 28" fill="none" xmlns="http://www.w3.org/2000/svg">
<path d="M24.4347 15.4189L11.342 13.3672L13.0777 21.169L24.4347 15.4189Z" fill="#D12053"/>
<path d="M24.4344 15.4184L14.5686 1.71094L11.3442 13.3692L24.4344 15.4184Z" fill="#E2136E"/>
<path d="M11.0354 13.2112L0.697998 0L14.2351 1.61714L11.0354 13.2112Z" fill="#D12053"/>
<path d="M6.32984 7.69065L0.5896 2.28125H2.10058L6.32984 7.69065Z" fill="#9E1638"/>
<path d="M27.2265 8.75391L24.7971 15.3435L20.8591 9.89702L27.2265 8.75391Z" fill="#D12053"/>
<path d="M14.606 20.773L24.1385 16.9437L24.5384 15.7266L14.606 20.773Z" fill="#E2136E"/>
<path d="M6.9812 28.0004L11.0648 13.6758L13.1362 22.9959L6.9812 28.0004Z" fill="#9E1638"/>
<path d="M27.6066 8.80664L26.6042 11.5274L30.2187 11.4681L27.6066 8.80664Z" fill="#E2136E"/>
</svg>
