<svg width="46" height="17" viewBox="0 0 46 17" fill="none" xmlns="http://www.w3.org/2000/svg">
<path d="M0.554199 0.849609C0.788399 0.869401 1.0259 0.912282 1.27659 0.912282C1.52728 0.912282 1.7318 0.869401 1.99898 0.849609V8.5914C2.76095 7.29505 3.72084 6.44072 5.13264 6.44072C7.68575 6.44072 8.78088 8.96743 8.78088 11.2896C8.78088 14.0703 7.29651 16.7323 4.69393 16.7323C4.17285 16.7437 3.65858 16.6124 3.20681 16.3525C2.75503 16.0926 2.38297 15.714 2.13092 15.2578C1.69551 15.6405 1.30958 16.099 0.897252 16.5146H0.567394L0.554199 0.849609ZM1.96599 12.2363C1.96599 14.4926 2.92259 16.066 4.49601 16.066C6.53784 16.066 7.19426 13.3216 7.19426 11.3754C7.19426 9.11587 6.44878 7.33793 4.68073 7.31814C2.61582 7.30165 1.96599 9.7459 1.96599 12.2396" fill="#E2136E"/>
<path d="M15.4409 5.8576L13.9038 7.83676C15.3485 9.94785 16.8461 12.0161 18.2975 14.1536L19.7621 16.4626V16.578C19.4025 16.5549 19.076 16.5087 18.7725 16.5087C18.469 16.5087 18.0864 16.5549 17.7631 16.578C17.364 15.8391 16.9682 15.1563 16.5162 14.4867L12.5579 8.63172C12.4689 8.53936 12.2545 8.46679 12.2545 8.56245V16.578C11.9642 16.5549 11.7102 16.5087 11.4595 16.5087C11.2088 16.5087 10.9185 16.5549 10.6646 16.578V0.850347C10.9185 0.870139 11.1923 0.919617 11.4595 0.919617C11.7267 0.919617 11.9642 0.870139 12.2545 0.850347V7.94891C12.2545 8.08745 12.525 7.99509 12.7031 7.81037C13.0467 7.45415 13.3683 7.07742 13.6663 6.68225L18.1161 0.84375C18.3503 0.863542 18.5845 0.91302 18.8385 0.91302C19.0924 0.91302 19.2871 0.863542 19.5443 0.84375L15.4409 5.8576Z" fill="#231F20"/>
<path d="M27.4117 14.8066C27.4117 15.6247 27.3589 16.0403 28.4243 15.7698V16.2283C28.2503 16.3155 28.0679 16.3851 27.8801 16.4361C26.94 16.6241 26.1615 16.4559 26.0164 15.2255L25.8547 15.407C25.5405 15.8188 25.1351 16.1522 24.6704 16.3811C24.2057 16.61 23.6943 16.7282 23.1763 16.7264C21.8964 16.7264 20.7749 15.717 20.7749 14.17C20.7749 11.7851 22.4242 11.4718 24.1164 11.1584C25.548 10.8879 26.0362 10.7626 26.0362 9.75649C26.0362 8.20615 25.2775 7.30893 23.9218 7.30893C23.4588 7.29986 23.0042 7.43327 22.6195 7.69109C22.2348 7.94892 21.9386 8.31871 21.7711 8.75042H21.5732V7.58931C22.3871 6.88112 23.4206 6.47565 24.499 6.44141C26.3957 6.44141 27.4282 7.58932 27.4282 9.9544L27.4117 14.8066ZM25.9669 11.353L25.3303 11.4981C24.0999 11.7686 22.256 11.9764 22.256 13.8863C22.256 15.2058 22.9157 15.8655 24.024 15.8655C24.5973 15.7949 25.1216 15.5067 25.4886 15.0606C25.6205 14.9089 25.9834 14.5526 25.9834 14.4009L25.9669 11.353Z" fill="#231F20"/>
<path d="M30.6314 14.5291C31.0602 15.3505 31.8585 16.0861 32.7095 16.0861C33.1951 16.0613 33.652 15.8484 33.9833 15.4925C34.3146 15.1366 34.4942 14.6656 34.4842 14.1795C34.4842 11.3559 30.2125 13.1899 30.2125 9.53508C30.2125 7.52954 31.5319 6.4443 33.1581 6.4443C33.8772 6.42831 34.5861 6.61584 35.2033 6.98527C35.0251 7.4692 34.8818 7.96526 34.7744 8.46964H34.6095C34.372 7.78023 33.742 7.08753 33.0724 7.08753C32.1686 7.08753 31.4231 7.69777 31.4231 8.82918C31.4231 11.5043 35.6947 10.0793 35.6947 13.4274C35.6947 15.6672 33.9597 16.726 32.3632 16.726C31.5636 16.7254 30.7809 16.4965 30.1069 16.0663C30.2688 15.5644 30.3956 15.0519 30.4863 14.5324L30.6314 14.5291Z" fill="#231F20"/>
<path d="M38.1338 0.849609C38.3746 0.869401 38.6088 0.912282 38.8595 0.912282C39.1102 0.912282 39.3147 0.869401 39.5852 0.849609V8.46605C40.2185 7.1895 41.2114 6.44072 42.4978 6.44072C44.5957 6.44072 45.4105 7.8789 45.4105 10.5178V16.5773C45.1367 16.5542 44.9256 16.5146 44.6848 16.5146C44.444 16.5146 44.1966 16.5575 43.9591 16.5773V10.9961C43.9591 8.68705 43.494 7.52265 41.9536 7.52265C40.3241 7.52265 39.5852 8.69695 39.5852 10.8707V16.5773C39.3147 16.5542 39.1003 16.5146 38.8595 16.5146C38.6187 16.5146 38.3779 16.5575 38.1338 16.5773V0.849609Z" fill="#231F20"/>
</svg>
