<svg width="27" height="20" viewBox="0 0 27 20" fill="none" xmlns="http://www.w3.org/2000/svg">
<rect x="0.5" width="26" height="20" rx="4" fill="white"/>
<path d="M5.27197 9.37497H10.2567C10.308 6.98265 10.6525 4.80778 11.1974 3.1732C11.4085 2.53975 11.6556 1.96971 11.9387 1.49414C8.29655 2.37363 5.54321 5.53166 5.27197 9.37497Z" fill="#6021D1"/>
<path d="M5.27197 10.625C5.54321 14.4683 8.29655 17.6263 11.9387 18.5058C11.6556 18.0303 11.4085 17.4603 11.1974 16.8268C10.6525 15.1922 10.308 13.0173 10.2567 10.625H5.27197Z" fill="#6021D1"/>
<path d="M16.0613 18.5058C19.7034 17.6263 22.4568 14.4683 22.728 10.625H17.7434C17.6919 13.0173 17.3475 15.1922 16.8027 16.8268C16.5915 17.4603 16.3444 18.0303 16.0613 18.5058Z" fill="#6021D1"/>
<path d="M22.728 9.37497C22.4568 5.53166 19.7034 2.37363 16.0613 1.49414C16.3444 1.96971 16.5915 2.53975 16.8027 3.1732C17.3475 4.80778 17.6919 6.98265 17.7434 9.37497H22.728Z" fill="#6021D1"/>
<path d="M14.0001 1.25C13.8422 1.25 13.5923 1.34542 13.2746 1.74859C12.9624 2.14472 12.6539 2.75664 12.3833 3.56852C11.8888 5.05189 11.5584 7.08778 11.5071 9.375H16.4931C16.4418 7.08778 16.1113 5.05189 15.6168 3.56852C15.3463 2.75664 15.0378 2.14472 14.7256 1.74859C14.4078 1.34542 14.158 1.25 14.0001 1.25Z" fill="#6021D1"/>
<path d="M15.6168 16.4315C16.1113 14.9481 16.4418 12.9122 16.4931 10.625H11.5071C11.5584 12.9122 11.8888 14.9481 12.3833 16.4315C12.6539 17.2433 12.9624 17.8552 13.2746 18.2514C13.5923 18.6546 13.8422 18.75 14.0001 18.75C14.158 18.75 14.4078 18.6546 14.7256 18.2514C15.0378 17.8552 15.3463 17.2433 15.6168 16.4315Z" fill="#6021D1"/>
</svg>
