<svg width="16" height="16" viewBox="0 0 16 16" fill="none" xmlns="http://www.w3.org/2000/svg">
<g clip-path="url(#clip0_3200_32922)">
<path d="M7.99992 14.6673C11.6818 14.6673 14.6666 11.6825 14.6666 8.00065C14.6666 4.31875 11.6818 1.33398 7.99992 1.33398C4.31802 1.33398 1.33325 4.31875 1.33325 8.00065C1.33325 11.6825 4.31802 14.6673 7.99992 14.6673Z" stroke="#000D2B" strokeWidth="1.5" strokeLinecap="round" strokeLinejoin="round"/>
<path d="M6.06006 6.00038C6.21679 5.55483 6.52616 5.17912 6.93336 4.9398C7.34056 4.70049 7.81932 4.61301 8.28484 4.69285C8.75036 4.7727 9.1726 5.01473 9.47678 5.37607C9.78095 5.7374 9.94743 6.19473 9.94672 6.66705C9.94672 8.00038 7.94673 8.66705 7.94673 8.66705" stroke="#000D2B" strokeWidth="1.5" strokeLinecap="round" strokeLinejoin="round"/>
<path d="M8 11.334H8.00833" stroke="#000D2B" strokeWidth="1.5" strokeLinecap="round" strokeLinejoin="round"/>
</g>
<defs>
<clipPath id="clip0_3200_32922">
<rect width="16" height="16" fill="white"/>
</clipPath>
</defs>
</svg>
