<svg width="27" height="20" viewBox="0 0 27 20" fill="none" xmlns="http://www.w3.org/2000/svg">
<path d="M27.2431 0H0.75691C-0.531655 0 -1.57617 1.04452 -1.57617 2.33308V18.0771C-1.57617 19.3656 -0.531655 20.4102 0.75691 20.4102H27.2431C28.5316 20.4102 29.5762 19.3657 29.5762 18.0771V2.33308C29.5762 1.04452 28.5317 0 27.2431 0Z" fill="#F5F5F5"/>
<path d="M-1.44775 1.57003H29.4479C29.1318 0.656329 28.2644 0 27.2432 0H0.757007C-0.264207 0 -1.13155 0.656329 -1.44775 1.57003Z" fill="#FF4B55"/>
<path d="M29.576 6.28125H-1.57642V7.85122H29.576V6.28125Z" fill="#FF4B55"/>
<path d="M29.576 3.14062H-1.57642V4.71059H29.576V3.14062Z" fill="#FF4B55"/>
<path d="M-1.57642 10.4528C-1.57642 10.7494 -1.3359 10.99 -1.03928 10.99H29.576V9.41992H-1.57642V10.4528Z" fill="#FF4B55"/>
<path d="M29.576 15.6992H-1.57642V17.2692H29.576V15.6992Z" fill="#FF4B55"/>
<path d="M29.448 18.8438H-1.44775C-1.13155 19.7575 -0.264146 20.4138 0.757007 20.4138H27.2432C28.2644 20.4138 29.1318 19.7575 29.448 18.8438Z" fill="#FF4B55"/>
<path d="M29.576 12.5605H-1.57642V14.1305H29.576V12.5605Z" fill="#FF4B55"/>
<path d="M-1.03904 10.9902H12.3887C12.6853 10.9902 12.9259 10.7496 12.9259 10.453V0.537135C12.9259 0.240457 12.6853 0 12.3887 0H0.75691C-0.531655 6.08445e-05 -1.57617 1.04458 -1.57617 2.33314V10.453C-1.57617 10.7497 -1.33565 10.9902 -1.03904 10.9902Z" fill="#41479B"/>
<path d="M-0.0681494 1.22994L0.0507408 1.58649L0.426577 1.58935C0.475253 1.58977 0.495392 1.65184 0.456269 1.68074L0.153933 1.90398L0.267347 2.26229C0.282071 2.30865 0.229198 2.34711 0.189588 2.31875L-0.116156 2.10026L-0.421899 2.31881C-0.461509 2.34717 -0.514261 2.30871 -0.499658 2.26235L-0.386244 1.90404L-0.68858 1.6808C-0.727703 1.65184 -0.707564 1.58977 -0.658888 1.58941L-0.283052 1.58655L-0.164162 1.23C-0.148829 1.18376 -0.0836039 1.18376 -0.0681494 1.22994Z" fill="#F5F5F5"/>
<path d="M-0.0681494 3.09708L0.0507408 3.45363L0.426577 3.45649C0.475253 3.45692 0.495392 3.51892 0.456269 3.54788L0.153933 3.77118L0.267347 4.12949C0.282071 4.17585 0.229198 4.21431 0.189588 4.18596L-0.116156 3.96746L-0.421899 4.18602C-0.461509 4.21431 -0.514261 4.17592 -0.499658 4.12955L-0.386244 3.77124L-0.68858 3.54794C-0.727703 3.51898 -0.707564 3.45698 -0.658888 3.45655L-0.283052 3.45369L-0.164162 3.09714C-0.148829 3.05096 -0.0836039 3.05096 -0.0681494 3.09708Z" fill="#F5F5F5"/>
<path d="M-0.0681494 4.96041L0.0507408 5.31696L0.426577 5.31982C0.475253 5.32024 0.495392 5.38224 0.456269 5.41121L0.153933 5.63451L0.267347 5.99282C0.282071 6.03918 0.229198 6.07764 0.189588 6.04928L-0.116156 5.83079L-0.421899 6.04934C-0.461509 6.07764 -0.514261 6.0393 -0.499658 5.99288L-0.386244 5.63457L-0.68858 5.41127C-0.727703 5.3823 -0.707564 5.3203 -0.658888 5.31988L-0.283052 5.31702L-0.164162 4.96047C-0.148829 4.91423 -0.0836039 4.91423 -0.0681494 4.96041Z" fill="#F5F5F5"/>
<path d="M-0.0681494 6.82564L0.0507408 7.18219L0.426577 7.18505C0.475253 7.18548 0.495392 7.24754 0.456269 7.27644L0.153933 7.49974L0.267347 7.85805C0.282071 7.90442 0.229198 7.94287 0.189588 7.91452L-0.116156 7.69602L-0.421899 7.91458C-0.461509 7.94287 -0.514261 7.90448 -0.499658 7.85811L-0.386244 7.4998L-0.68858 7.2765C-0.727703 7.24766 -0.707564 7.18554 -0.658888 7.18511L-0.283052 7.18225L-0.164162 6.8257C-0.148829 6.77946 -0.0836039 6.77946 -0.0681494 6.82564Z" fill="#F5F5F5"/>
<path d="M-0.0681494 8.68888L0.0507408 9.04543L0.426577 9.04829C0.475253 9.04871 0.495392 9.11071 0.456269 9.13968L0.153933 9.36298L0.267347 9.72129C0.282071 9.76765 0.229198 9.80611 0.189588 9.77775L-0.116156 9.55926L-0.421899 9.77781C-0.461509 9.80611 -0.514261 9.76771 -0.499658 9.72135L-0.386244 9.36304L-0.68858 9.13974C-0.727703 9.11077 -0.707564 9.04877 -0.658888 9.04835L-0.283052 9.04549L-0.164162 8.68894C-0.148829 8.64276 -0.0836039 8.64276 -0.0681494 8.68888Z" fill="#F5F5F5"/>
<path d="M1.3796 2.14592L1.49849 2.50247L1.87433 2.50533C1.92301 2.50575 1.94315 2.56781 1.90402 2.59672L1.60169 2.82001L1.7151 3.17833C1.72983 3.22469 1.67695 3.26314 1.63734 3.23479L1.3316 3.01624L1.02585 3.23479C0.986245 3.26308 0.933493 3.22469 0.948096 3.17833L1.06151 2.82001L0.759173 2.59672C0.72005 2.56775 0.74019 2.50575 0.788866 2.50533L1.1647 2.50247L1.28359 2.14592C1.29892 2.0998 1.36421 2.0998 1.3796 2.14592Z" fill="#F5F5F5"/>
<path d="M1.3796 4.00925L1.49849 4.36579L1.87433 4.36865C1.92301 4.36908 1.94315 4.43114 1.90402 4.46004L1.60169 4.68334L1.7151 5.04165C1.72983 5.08802 1.67695 5.12647 1.63734 5.09812L1.3316 4.87956L1.02585 5.09812C0.986245 5.12641 0.933493 5.08808 0.948096 5.04165L1.06151 4.68334L0.759173 4.46004C0.72005 4.4312 0.74019 4.36908 0.788866 4.36865L1.1647 4.36579L1.28359 4.00925C1.29892 3.96306 1.36421 3.96306 1.3796 4.00925Z" fill="#F5F5F5"/>
<path d="M1.3796 5.87253L1.49849 6.22907L1.87433 6.23193C1.92301 6.23236 1.94315 6.29436 1.90402 6.32332L1.60169 6.54662L1.7151 6.90494C1.72983 6.9513 1.67695 6.98975 1.63734 6.9614L1.3316 6.74285L1.02585 6.9614C0.986245 6.98969 0.933493 6.9513 0.948096 6.90494L1.06151 6.54662L0.759173 6.32332C0.72005 6.29436 0.74019 6.23236 0.788866 6.23193L1.1647 6.22907L1.28359 5.87253C1.29892 5.82635 1.36421 5.82635 1.3796 5.87253Z" fill="#F5F5F5"/>
<path d="M1.3796 7.73967L1.49849 8.09622L1.87433 8.09908C1.92301 8.0995 1.94315 8.1615 1.90402 8.19046L1.60169 8.41376L1.7151 8.77208C1.72983 8.81844 1.67695 8.85689 1.63734 8.82854L1.3316 8.60999L1.02585 8.82854C0.986245 8.85689 0.933493 8.81844 0.948096 8.77208L1.06151 8.41376L0.759173 8.19046C0.72005 8.1615 0.74019 8.0995 0.788866 8.09908L1.1647 8.09622L1.28359 7.73967C1.29892 7.69355 1.36421 7.69355 1.3796 7.73967Z" fill="#F5F5F5"/>
<path d="M2.82687 1.22995L2.94576 1.5865L3.3216 1.58936C3.37027 1.58978 3.39041 1.65184 3.35129 1.68074L3.04895 1.90398L3.16237 2.2623C3.17709 2.30866 3.12422 2.34711 3.08461 2.31876L2.77886 2.10021L2.47312 2.31876C2.43351 2.34711 2.38076 2.30866 2.39536 2.2623L2.50878 1.90398L2.20644 1.68074C2.16732 1.65178 2.18746 1.58972 2.23613 1.58936L2.61197 1.5865L2.73086 1.22995C2.74619 1.18377 2.81148 1.18377 2.82687 1.22995Z" fill="#F5F5F5"/>
<path d="M2.82687 3.09709L2.94576 3.45364L3.3216 3.4565C3.37027 3.45693 3.39041 3.51893 3.35129 3.54789L3.04895 3.77119L3.16237 4.1295C3.17709 4.17586 3.12422 4.21432 3.08461 4.18596L2.77886 3.96741L2.47312 4.18596C2.43351 4.21426 2.38076 4.17586 2.39536 4.1295L2.50878 3.77119L2.20644 3.54789C2.16732 3.51893 2.18746 3.45693 2.23613 3.4565L2.61197 3.45364L2.73086 3.09709C2.74619 3.05097 2.81148 3.05097 2.82687 3.09709Z" fill="#F5F5F5"/>
<path d="M2.82687 4.96042L2.94576 5.31697L3.3216 5.31983C3.37027 5.32025 3.39041 5.38225 3.35129 5.41121L3.04895 5.63451L3.16237 5.99283C3.17709 6.03919 3.12422 6.07764 3.08461 6.04929L2.77886 5.83074L2.47312 6.04929C2.43351 6.07758 2.38076 6.03925 2.39536 5.99283L2.50878 5.63451L2.20644 5.41121C2.16732 5.38225 2.18746 5.32025 2.23613 5.31983L2.61197 5.31697L2.73086 4.96042C2.74619 4.91424 2.81148 4.91424 2.82687 4.96042Z" fill="#F5F5F5"/>
<path d="M2.82687 6.82565L2.94576 7.1822L3.3216 7.18506C3.37027 7.18549 3.39041 7.24755 3.35129 7.27645L3.04895 7.49975L3.16237 7.85806C3.17709 7.90442 3.12422 7.94288 3.08461 7.91452L2.77886 7.69597L2.47312 7.91452C2.43351 7.94282 2.38076 7.90442 2.39536 7.85806L2.50878 7.49975L2.20644 7.27645C2.16732 7.24761 2.18746 7.18549 2.23613 7.18506L2.61197 7.1822L2.73086 6.82565C2.74619 6.77947 2.81148 6.77947 2.82687 6.82565Z" fill="#F5F5F5"/>
<path d="M2.82687 8.68889L2.94576 9.04544L3.3216 9.0483C3.37027 9.04872 3.39041 9.11072 3.35129 9.13968L3.04895 9.36298L3.16237 9.7213C3.17709 9.76766 3.12422 9.80611 3.08461 9.77776L2.77886 9.55921L2.47312 9.77776C2.43351 9.80605 2.38076 9.76766 2.39536 9.7213L2.50878 9.36298L2.20644 9.13968C2.16732 9.11072 2.18746 9.04872 2.23613 9.0483L2.61197 9.04544L2.73086 8.68889C2.74619 8.64277 2.81148 8.64277 2.82687 8.68889Z" fill="#F5F5F5"/>
<path d="M4.27462 2.14592L4.39351 2.50247L4.76935 2.50533C4.81803 2.50575 4.83817 2.56781 4.79904 2.59672L4.49671 2.82001L4.61012 3.17833C4.62484 3.22469 4.57197 3.26314 4.53236 3.23479L4.22662 3.01624L3.92087 3.23479C3.88126 3.26308 3.82851 3.22469 3.84312 3.17833L3.95653 2.82001L3.65419 2.59672C3.61507 2.56775 3.63521 2.50575 3.68389 2.50533L4.05972 2.50247L4.17861 2.14592C4.19388 2.0998 4.25923 2.0998 4.27462 2.14592Z" fill="#F5F5F5"/>
<path d="M4.27462 4.00925L4.39351 4.36579L4.76935 4.36865C4.81803 4.36908 4.83817 4.43114 4.79904 4.46004L4.49671 4.68334L4.61012 5.04165C4.62484 5.08802 4.57197 5.12647 4.53236 5.09812L4.22662 4.87956L3.92087 5.09812C3.88126 5.12641 3.82851 5.08808 3.84312 5.04165L3.95653 4.68334L3.65419 4.46004C3.61507 4.4312 3.63521 4.36908 3.68389 4.36865L4.05972 4.36579L4.17861 4.00925C4.19388 3.96306 4.25923 3.96306 4.27462 4.00925Z" fill="#F5F5F5"/>
<path d="M4.27462 5.87253L4.39351 6.22907L4.76935 6.23193C4.81803 6.23236 4.83817 6.29436 4.79904 6.32332L4.49671 6.54662L4.61012 6.90494C4.62484 6.9513 4.57197 6.98975 4.53236 6.9614L4.22662 6.74285L3.92087 6.9614C3.88126 6.98969 3.82851 6.9513 3.84312 6.90494L3.95653 6.54662L3.65419 6.32332C3.61507 6.29436 3.63521 6.23236 3.68389 6.23193L4.05972 6.22907L4.17861 5.87253C4.19388 5.82635 4.25923 5.82635 4.27462 5.87253Z" fill="#F5F5F5"/>
<path d="M4.27462 7.73967L4.39351 8.09622L4.76935 8.09908C4.81803 8.0995 4.83817 8.1615 4.79904 8.19046L4.49671 8.41376L4.61012 8.77208C4.62484 8.81844 4.57197 8.85689 4.53236 8.82854L4.22662 8.60999L3.92087 8.82854C3.88126 8.85689 3.82851 8.81844 3.84312 8.77208L3.95653 8.41376L3.65419 8.19046C3.61507 8.1615 3.63521 8.0995 3.68389 8.09908L4.05972 8.09622L4.17861 7.73967C4.19388 7.69355 4.25923 7.69355 4.27462 7.73967Z" fill="#F5F5F5"/>
<path d="M5.72244 1.22994L5.84133 1.58649L6.21717 1.58935C6.26584 1.58977 6.28598 1.65184 6.24686 1.68074L5.94452 1.90398L6.05794 2.26229C6.07266 2.30865 6.01979 2.34711 5.98018 2.31875L5.67437 2.10026L5.36863 2.31881C5.32902 2.34717 5.27627 2.30871 5.29087 2.26235L5.40428 1.90404L5.10195 1.6808C5.06282 1.65184 5.08296 1.58977 5.13164 1.58941L5.50748 1.58655L5.62637 1.23C5.64176 1.18376 5.70705 1.18376 5.72244 1.22994Z" fill="#F5F5F5"/>
<path d="M5.72244 3.09709L5.84133 3.45364L6.21717 3.4565C6.26584 3.45693 6.28598 3.51893 6.24686 3.54789L5.94452 3.77119L6.05794 4.1295C6.07266 4.17586 6.01979 4.21432 5.98018 4.18596L5.67437 3.96741L5.36863 4.18596C5.32902 4.21426 5.27627 4.17586 5.29087 4.1295L5.40428 3.77119L5.10195 3.54789C5.06282 3.51893 5.08296 3.45693 5.13164 3.4565L5.50748 3.45364L5.62637 3.09709C5.64176 3.05097 5.70705 3.05097 5.72244 3.09709Z" fill="#F5F5F5"/>
<path d="M5.72244 4.96042L5.84133 5.31697L6.21717 5.31983C6.26584 5.32026 6.28598 5.38226 6.24686 5.41122L5.94452 5.63452L6.05794 5.99283C6.07266 6.0392 6.01979 6.07765 5.98018 6.0493L5.67437 5.83068L5.36863 6.04924C5.32902 6.07753 5.27627 6.03914 5.29087 5.99277L5.40428 5.63446L5.10195 5.41116C5.06282 5.3822 5.08296 5.3202 5.13164 5.31977L5.50748 5.31691L5.62637 4.96036C5.64176 4.91424 5.70705 4.91424 5.72244 4.96042Z" fill="#F5F5F5"/>
<path d="M5.72244 6.82565L5.84133 7.1822L6.21717 7.18506C6.26584 7.18549 6.28598 7.24755 6.24686 7.27645L5.94452 7.49975L6.05794 7.85806C6.07266 7.90442 6.01979 7.94288 5.98018 7.91452L5.67437 7.69597L5.36863 7.91452C5.32902 7.94282 5.27627 7.90442 5.29087 7.85806L5.40428 7.49975L5.10195 7.27645C5.06282 7.24761 5.08296 7.18549 5.13164 7.18506L5.50748 7.1822L5.62637 6.82565C5.64176 6.77947 5.70705 6.77947 5.72244 6.82565Z" fill="#F5F5F5"/>
<path d="M5.72244 8.68889L5.84133 9.04544L6.21717 9.0483C6.26584 9.04872 6.28598 9.11072 6.24686 9.13968L5.94452 9.36298L6.05794 9.7213C6.07266 9.76766 6.01979 9.80611 5.98018 9.77776L5.67437 9.55921L5.36863 9.77776C5.32902 9.80605 5.27627 9.76766 5.29087 9.7213L5.40428 9.36298L5.10195 9.13968C5.06282 9.11072 5.08296 9.04872 5.13164 9.0483L5.50748 9.04544L5.62637 8.68889C5.64176 8.64277 5.70705 8.64277 5.72244 8.68889Z" fill="#F5F5F5"/>
<path d="M7.17111 2.14592L7.29 2.50247L7.66584 2.50533C7.71451 2.50575 7.73465 2.56781 7.69553 2.59672L7.39319 2.82001L7.5066 3.17833C7.52133 3.22469 7.46846 3.26314 7.42885 3.23479L7.1231 3.01624L6.81736 3.23479C6.77775 3.26308 6.725 3.22469 6.7396 3.17833L6.85301 2.82001L6.55068 2.59672C6.51155 2.56775 6.53169 2.50575 6.58037 2.50533L6.95621 2.50247L7.0751 2.14592C7.09049 2.0998 7.15572 2.0998 7.17111 2.14592Z" fill="#F5F5F5"/>
<path d="M7.17111 4.00925L7.29 4.36579L7.66584 4.36865C7.71451 4.36908 7.73465 4.43114 7.69553 4.46004L7.39319 4.68334L7.5066 5.04165C7.52133 5.08802 7.46846 5.12647 7.42885 5.09812L7.1231 4.87956L6.81736 5.09812C6.77775 5.12641 6.725 5.08808 6.7396 5.04165L6.85301 4.68334L6.55068 4.46004C6.51155 4.4312 6.53169 4.36908 6.58037 4.36865L6.95621 4.36579L7.0751 4.00925C7.09049 3.96306 7.15572 3.96306 7.17111 4.00925Z" fill="#F5F5F5"/>
<path d="M7.17111 5.87253L7.29 6.22907L7.66584 6.23193C7.71451 6.23236 7.73465 6.29436 7.69553 6.32332L7.39319 6.54662L7.5066 6.90494C7.52133 6.9513 7.46846 6.98975 7.42885 6.9614L7.1231 6.74285L6.81736 6.9614C6.77775 6.98969 6.725 6.9513 6.7396 6.90494L6.85301 6.54662L6.55068 6.32332C6.51155 6.29436 6.53169 6.23236 6.58037 6.23193L6.95621 6.22907L7.0751 5.87253C7.09049 5.82635 7.15572 5.82635 7.17111 5.87253Z" fill="#F5F5F5"/>
<path d="M7.17111 7.73967L7.29 8.09622L7.66584 8.09908C7.71451 8.0995 7.73465 8.1615 7.69553 8.19046L7.39319 8.41376L7.5066 8.77208C7.52133 8.81844 7.46846 8.85689 7.42885 8.82854L7.1231 8.60999L6.81736 8.82854C6.77775 8.85689 6.725 8.81844 6.7396 8.77208L6.85301 8.41376L6.55068 8.19046C6.51155 8.1615 6.53169 8.0995 6.58037 8.09908L6.95621 8.09622L7.0751 7.73967C7.09049 7.69355 7.15572 7.69355 7.17111 7.73967Z" fill="#F5F5F5"/>
<path d="M8.61789 1.22995L8.73678 1.5865L9.11261 1.58936C9.16129 1.58978 9.18143 1.65184 9.1423 1.68074L8.83997 1.90398L8.95338 2.2623C8.96811 2.30866 8.91523 2.34711 8.87562 2.31876L8.56988 2.10021L8.26414 2.31876C8.22453 2.34711 8.17177 2.30866 8.18638 2.2623L8.29979 1.90398L7.99745 1.68074C7.95833 1.65178 7.97847 1.58972 8.02715 1.58936L8.40298 1.5865L8.52187 1.22995C8.53714 1.18377 8.60249 1.18377 8.61789 1.22995Z" fill="#F5F5F5"/>
<path d="M8.61789 3.09709L8.73678 3.45364L9.11261 3.4565C9.16129 3.45693 9.18143 3.51893 9.1423 3.54789L8.83997 3.77119L8.95338 4.1295C8.96811 4.17586 8.91523 4.21432 8.87562 4.18596L8.56988 3.96741L8.26414 4.18596C8.22453 4.21426 8.17177 4.17586 8.18638 4.1295L8.29979 3.77119L7.99745 3.54789C7.95833 3.51893 7.97847 3.45693 8.02715 3.4565L8.40298 3.45364L8.52187 3.09709C8.53714 3.05097 8.60249 3.05097 8.61789 3.09709Z" fill="#F5F5F5"/>
<path d="M8.61789 4.96042L8.73678 5.31697L9.11261 5.31983C9.16129 5.32025 9.18143 5.38225 9.1423 5.41121L8.83997 5.63451L8.95338 5.99283C8.96811 6.03919 8.91523 6.07764 8.87562 6.04929L8.56988 5.83074L8.26414 6.04929C8.22453 6.07758 8.17177 6.03925 8.18638 5.99283L8.29979 5.63451L7.99745 5.41121C7.95833 5.38225 7.97847 5.32025 8.02715 5.31983L8.40298 5.31697L8.52187 4.96042C8.53714 4.91424 8.60249 4.91424 8.61789 4.96042Z" fill="#F5F5F5"/>
<path d="M8.61789 6.82565L8.73678 7.1822L9.11261 7.18506C9.16129 7.18549 9.18143 7.24755 9.1423 7.27645L8.83997 7.49975L8.95338 7.85806C8.96811 7.90442 8.91523 7.94288 8.87562 7.91452L8.56988 7.69597L8.26414 7.91452C8.22453 7.94282 8.17177 7.90442 8.18638 7.85806L8.29979 7.49975L7.99745 7.27645C7.95833 7.24761 7.97847 7.18549 8.02715 7.18506L8.40298 7.1822L8.52187 6.82565C8.53714 6.77947 8.60249 6.77947 8.61789 6.82565Z" fill="#F5F5F5"/>
<path d="M8.61789 8.68889L8.73678 9.04544L9.11261 9.0483C9.16129 9.04872 9.18143 9.11072 9.1423 9.13968L8.83997 9.36298L8.95338 9.7213C8.96811 9.76766 8.91523 9.80611 8.87562 9.77776L8.56988 9.55921L8.26414 9.77776C8.22453 9.80605 8.17177 9.76766 8.18638 9.7213L8.29979 9.36298L7.99745 9.13968C7.95833 9.11072 7.97847 9.04872 8.02715 9.0483L8.40298 9.04544L8.52187 8.68889C8.53714 8.64277 8.60249 8.64277 8.61789 8.68889Z" fill="#F5F5F5"/>
<path d="M10.0656 2.14592L10.1845 2.50247L10.5604 2.50533C10.609 2.50575 10.6292 2.56781 10.5901 2.59672L10.2877 2.82001L10.4011 3.17833C10.4159 3.22469 10.363 3.26314 10.3234 3.23479L10.0176 3.01624L9.71189 3.23479C9.67228 3.26308 9.61953 3.22469 9.63413 3.17833L9.74754 2.82001L9.44521 2.59672C9.40609 2.56775 9.42622 2.50575 9.4749 2.50533L9.85074 2.50247L9.96963 2.14592C9.98496 2.0998 10.0502 2.0998 10.0656 2.14592Z" fill="#F5F5F5"/>
<path d="M10.0656 4.00925L10.1845 4.36579L10.5604 4.36865C10.609 4.36908 10.6292 4.43114 10.5901 4.46004L10.2877 4.68334L10.4011 5.04165C10.4159 5.08802 10.363 5.12647 10.3234 5.09812L10.0176 4.87956L9.71189 5.09812C9.67228 5.12641 9.61953 5.08808 9.63413 5.04165L9.74754 4.68334L9.44521 4.46004C9.40609 4.4312 9.42622 4.36908 9.4749 4.36865L9.85074 4.36579L9.96963 4.00925C9.98496 3.96306 10.0502 3.96306 10.0656 4.00925Z" fill="#F5F5F5"/>
<path d="M10.0656 5.87253L10.1845 6.22907L10.5604 6.23193C10.609 6.23236 10.6292 6.29436 10.5901 6.32332L10.2877 6.54662L10.4011 6.90494C10.4159 6.9513 10.363 6.98975 10.3234 6.9614L10.0176 6.74285L9.71189 6.9614C9.67228 6.98969 9.61953 6.9513 9.63413 6.90494L9.74754 6.54662L9.44521 6.32332C9.40609 6.29436 9.42622 6.23236 9.4749 6.23193L9.85074 6.22907L9.96963 5.87253C9.98496 5.82635 10.0502 5.82635 10.0656 5.87253Z" fill="#F5F5F5"/>
<path d="M10.0656 7.73967L10.1845 8.09622L10.5604 8.09908C10.609 8.0995 10.6292 8.1615 10.5901 8.19046L10.2877 8.41376L10.4011 8.77208C10.4159 8.81844 10.363 8.85689 10.3234 8.82854L10.0176 8.60999L9.71189 8.82854C9.67228 8.85689 9.61953 8.81844 9.63413 8.77208L9.74754 8.41376L9.44521 8.19046C9.40609 8.1615 9.42622 8.0995 9.4749 8.09908L9.85074 8.09622L9.96963 7.73967C9.98496 7.69355 10.0502 7.69355 10.0656 7.73967Z" fill="#F5F5F5"/>
<path d="M11.5134 1.22995L11.6323 1.5865L12.0081 1.58936C12.0568 1.58978 12.0769 1.65184 12.0378 1.68074L11.7355 1.90398L11.8489 2.2623C11.8636 2.30866 11.8107 2.34711 11.7711 2.31876L11.4654 2.10021L11.1596 2.31876C11.12 2.34711 11.0673 2.30866 11.0819 2.2623L11.1953 1.90398L10.893 1.68074C10.8538 1.65178 10.874 1.58972 10.9227 1.58936L11.2985 1.5865L11.4174 1.22995C11.4327 1.18377 11.4979 1.18377 11.5134 1.22995Z" fill="#F5F5F5"/>
<path d="M11.5134 3.09709L11.6323 3.45364L12.0081 3.4565C12.0568 3.45693 12.0769 3.51893 12.0378 3.54789L11.7355 3.77119L11.8489 4.1295C11.8636 4.17586 11.8107 4.21432 11.7711 4.18596L11.4654 3.96741L11.1596 4.18596C11.12 4.21426 11.0673 4.17586 11.0819 4.1295L11.1953 3.77119L10.893 3.54789C10.8538 3.51893 10.874 3.45693 10.9227 3.4565L11.2985 3.45364L11.4174 3.09709C11.4327 3.05097 11.4979 3.05097 11.5134 3.09709Z" fill="#F5F5F5"/>
<path d="M11.5134 4.96042L11.6323 5.31697L12.0081 5.31983C12.0568 5.32025 12.0769 5.38225 12.0378 5.41121L11.7355 5.63451L11.8489 5.99283C11.8636 6.03919 11.8107 6.07764 11.7711 6.04929L11.4654 5.83074L11.1596 6.04929C11.12 6.07758 11.0673 6.03925 11.0819 5.99283L11.1953 5.63451L10.893 5.41121C10.8538 5.38225 10.874 5.32025 10.9227 5.31983L11.2985 5.31697L11.4174 4.96042C11.4327 4.91424 11.4979 4.91424 11.5134 4.96042Z" fill="#F5F5F5"/>
<path d="M11.5134 6.82565L11.6323 7.1822L12.0081 7.18506C12.0568 7.18549 12.0769 7.24755 12.0378 7.27645L11.7355 7.49975L11.8489 7.85806C11.8636 7.90442 11.8107 7.94288 11.7711 7.91452L11.4654 7.69597L11.1596 7.91452C11.12 7.94282 11.0673 7.90442 11.0819 7.85806L11.1953 7.49975L10.893 7.27645C10.8538 7.24761 10.874 7.18549 10.9227 7.18506L11.2985 7.1822L11.4174 6.82565C11.4327 6.77947 11.4979 6.77947 11.5134 6.82565Z" fill="#F5F5F5"/>
<path d="M11.5134 8.68889L11.6323 9.04544L12.0081 9.0483C12.0568 9.04872 12.0769 9.11072 12.0378 9.13968L11.7355 9.36298L11.8489 9.7213C11.8636 9.76766 11.8107 9.80611 11.7711 9.77776L11.4654 9.55921L11.1596 9.77776C11.12 9.80605 11.0673 9.76766 11.0819 9.7213L11.1953 9.36298L10.893 9.13968C10.8538 9.11072 10.874 9.04872 10.9227 9.0483L11.2985 9.04544L11.4174 8.68889C11.4327 8.64277 11.4979 8.64277 11.5134 8.68889Z" fill="#F5F5F5"/>
</svg>
